{
classes = (
{
automatic = 1;
code = "A Aacute Abreve Acircumflex Adieresis Agrave Amacron Aogonek Aring Atilde AE AEacute B C Cacute Ccaron Ccedilla Ccircumflex Cdotaccent D Eth Dcaron Dcroat E Eacute Ebreve Ecaron Ecircumflex Edieresis Edotaccent Egrave Emacron Eogonek F G Gbreve Gcaron Gcircumflex Gdotaccent H Hbar Hcircumflex I IJ Iacute Icircumflex Idieresis Idotaccent Igrave Imacron Iogonek Itilde J Jcircumflex K L Lacute Lcaron Ldot Lslash M N Nacute Ncaron Ntilde O Oacute Ocircumflex Odieresis Ograve Ohorn Ohungarumlaut Omacron Oslash Otilde OE P Thorn Q R Racute Rcaron S Sacute Scaron Scircumflex uni1E9E uni018F T Tcaron U Uacute Ubreve Ucircumflex Udieresis Ugrave Uhorn Uhungarumlaut Umacron Uogonek Uring Utilde V W Wacute Wcircumflex Wdieresis Wgrave X Y Yacute Ycircumflex Ydieresis Ygrave Z Zacute Zcaron Zdotaccent uni0122 uni012C uni0136 uni013B uni0145 uni014E uni0156 uni015E uni0162 uni01C4 uni01C5 uni01C7 uni01C8 uni01CA uni01CB uni01CD uni01CF uni01D1 uni01D3 uni01D5 uni01D7 uni01D9 uni01DB uni01EA uni01F1 uni01F2 uni0218 uni021A uni0243 uni1E02 uni1E0A uni1E0C uni1E0E uni1E1E uni1E20 uni1E24 uni1E2A uni1E36 uni1E38 uni1E3A uni1E40 uni1E42 uni1E44 uni1E46 uni1E48 uni1E56 uni1E5A uni1E5C uni1E5E uni1E60 uni1E62 uni1E6A uni1E6C uni1E6E uni1E8E uni1E92 uni1EA0 uni1EA2 uni1EA4 uni1EA6 uni1EA8 uni1EAA uni1EAC uni1EAE uni1EB0 uni1EB2 uni1EB4 uni1EB6 uni1EB8 uni1EBA uni1EBC uni1EBE uni1EC0 uni1EC2 uni1EC4 uni1EC6 uni1EC8 uni1ECA uni1ECC uni1ECE uni1ED0 uni1ED2 uni1ED4 uni1ED6 uni1ED8 uni1EDA uni1EDC uni1EDE uni1EE0 uni1EE2 uni1EE4 uni1EE6 uni1EE8 uni1EEA uni1EEC uni1EEE uni1EF0 uni1EF4 uni1EF6 uni1EF8 I.a Iacute.a uni01CF.a Icircumflex.a Idieresis.a Idotaccent.a uni1ECA.a Igrave.a uni1EC8.a Imacron.a Iogonek.a Itilde.a";
name = Uppercase;
},
{
automatic = 1;

glyphs = (
{
color = (255,153,153,1);
glyphname = A;
lastChange = "2015-01-16 19:45:15 +0000";
layers = (
{
anchors = (
{
name = top;
position = "{557, 1050}";
}
);
hints = (
{
horizontal = 1;
origin = "{0, 0}";
target = "{0, 0}";
type = Tag;
name = hr00;
}
);
layerId = "250EF945-70FC-4F2D-944E-2E0BA5947215";
name = SemiBold;
paths = (
{
closed = 1;
nodes = (
"362 548 LINE",
"422 738 LINE",
"468 884 OFFCURVE",
"510 1034 OFFCURVE",
"550 1186 CURVE",
"558 1186 LINE",
"600 1034 OFFCURVE",
"642 884 OFFCURVE",
"687 738 CURVE SMOOTH",
"745 548 LINE"
);
},
{
closed = 1;
nodes = (
"912 0 LINE",
"1117 0 LINE",
"669 1342 LINE",
"446 1342 LINE",
"-3 0 LINE",
"196 0 LINE",
"316 393 LINE",
"791 393 LINE"
);
}
);
width = 1114;
}
);
unicode = 0041;
userData = {
com.adobe.type.autohint = "ICA8aGludFNldExpc3Q+CiAgICA8aGludHNldCBw";
com.typemytype.robofont.mark = (
1,
0.6,
0.6,
1
);
};
},
{
glyphname = Aogonek;
lastChange = "2015-01-16 19:45:15 +0000";
layers = (
{
hints = (
{
horizontal = 1;
origin = "{0, 0}";
target = "{0, 0}";
type = Tag;
name = hr00;
}
);
layerId = "250EF945-70FC-4F2D-944E-2E0BA5947215";
name = SemiBold;
paths = (
{
closed = 1;
nodes = (
"362 548 LINE",
"422 738 LINE",
"468 884 OFFCURVE",
"510 1034 OFFCURVE",
"550 1186 CURVE",
"558 1186 LINE",
"600 1034 OFFCURVE",
"642 884 OFFCURVE",
"687 738 CURVE SMOOTH",
"745 548 LINE"
);
},
{
closed = 1;
nodes = (
"1126 -275 LINE",
"1102 -293 OFFCURVE",
"1075 -304 OFFCURVE",
"1041 -304 CURVE SMOOTH",
"994 -304 OFFCURVE",
"949 -274 OFFCURVE",
"949 -213 CURVE SMOOTH",
"949 -127 OFFCURVE",
"1020 -34 OFFCURVE",
"1117 0 CURVE",
"669 1342 LINE",
"446 1342 LINE",
"-3 0 LINE",
"196 0 LINE",
"316 393 LINE",
"791 393 LINE",
"912 0 LINE",
"958 0 LINE",
"888 -46 OFFCURVE",
"802 -144 OFFCURVE",
"802 -257 CURVE SMOOTH",
"802 -376 OFFCURVE",
"892 -438 OFFCURVE",
"1004 -438 CURVE SMOOTH",
"1062 -438 OFFCURVE",
"1135 -411 OFFCURVE",
"1177 -378 CURVE"
);
}
);
width = 1114;
}
);
unicode = 0104;
userData = {
com.adobe.type.autohint = "ICA8aGludFNldExpc3Q+CiAgICA8aGludHNldCBw";
};
},
{
color = (255,153,153,1);
glyphname = AE;
lastChange = "2015-01-16 19:45:15 +0000";
layers = (
{
anchors = (
{
name = top;
position = "{904, 1050}";
}
);
hints = (
{
horizontal = 1;
origin = "{0, 0}";
target = "{0, 0}";
type = Tag;
name = hr01;
},
{
horizontal = 1;
origin = "{0, 4}";
target = "{0, 0}";
type = Tag;
name = hr02;
},
{
horizontal = 1;
origin = "{1, 5}";
target = "{0, 0}";
type = Tag;
name = hr03;
}
);
layerId = "250EF945-70FC-4F2D-944E-2E0BA5947215";
name = SemiBold;
paths = (
{
closed = 1;
nodes = (
"476 530 LINE",
"593 762 LINE",
"661 902 OFFCURVE",
"735 1047 OFFCURVE",
"804 1190 CURVE",
"812 1190 LINE",
"812 530 LINE"
);
},
{
closed = 1;
nodes = (
"1006 165 LINE",
"1006 620 LINE",
"1475 620 LINE",
"1475 784 LINE",
"1006 784 LINE",
"1006 1178 LINE",
"1567 1178 LINE",
"1567 1342 LINE",
"696 1342 LINE",
"4 0 LINE",
"206 0 LINE",
"397 375 LINE",
"812 375 LINE",
"812 0 LINE",
"1587 0 LINE",
"1587 165 LINE"
);
}
);
width = 1683;
}
);
unicode = 00C6;
userData = {
com.adobe.type.autohint = "ICA8aGludFNldExpc3Q+CiAgICA8aGludHNldCBw";
com.typemytype.robofont.mark = (
1,
0.6,
0.6,
1
);
};
},
{
color = (255,153,153,1);
glyphname = B;
lastChange = "2015-01-16 19:45:15 +0000";
layers = (
{
anchors = (
{
name = top;
position = "{559, 1050}";
}
);
hints = (
{
horizontal = 1;
origin = "{0, 0}";
target = "{0, 0}";
type = Tag;
name = hr01;
},
{
horizontal = 1;
origin = "{0, 11}";
target = "{0, 0}";
type = Tag;
name = hr02;
},
{
horizontal = 1;
origin = "{2, 5}";
target = "{0, 0}";
type = Tag;
name = hr03;
}
);
layerId = "250EF945-70FC-4F2D-944E-2E0BA5947215";
name = SemiBold;
paths = (
{
closed = 1;
nodes = (
"174 0 LINE",
"623 0 LINE",
"920 0 OFFCURVE",
"1126 126 OFFCURVE",
"1126 397 CURVE SMOOTH",
"1126 583 OFFCURVE",
"1014 698 OFFCURVE",
"819 714 CURVE",
"819 722 LINE",
"989 757 OFFCURVE",
"1052 885 OFFCURVE",
"1052 1018 CURVE SMOOTH",
"1052 1262 OFFCURVE",
"869 1342 OFFCURVE",
"593 1342 CURVE SMOOTH",
"174 1342 LINE"
);
},
{
closed = 1;
nodes = (
"370 775 LINE",
"370 1189 LINE",
"576 1189 LINE",
"770 1189 OFFCURVE",
"861 1137 OFFCURVE",
"861 997 CURVE SMOOTH",
"861 854 OFFCURVE",
"777 775 OFFCURVE",
"565 775 CURVE SMOOTH"
);
},
{
closed = 1;
nodes = (
"370 153 LINE",
"370 632 LINE",
"601 632 LINE",
"823 632 OFFCURVE",
"935 567 OFFCURVE",
"935 408 CURVE SMOOTH",
"935 233 OFFCURVE",
"816 153 OFFCURVE",
"599 153 CURVE SMOOTH"
);
}
);
width = 1202;
}
);
unicode = 0042;
userData = {
com.adobe.type.autohint = "ICA8aGludFNldExpc3Q+CiAgICA8aGludHNldCBw";
com.typemytype.robofont.mark = (
1,
0.6,
0.6,
1
);
};
},
{
color = (255,153,153,1);
glyphname = C;
lastChange = "2015-01-16 19:45:15 +0000";
layers = (
{
anchors = (
{
name = top;
position = "{694, 1050}";
}
);
hints = (
{
horizontal = 1;
origin = "{0, 0}";
target = "{0, 0}";
type = Tag;
name = hr01;
},
{
horizontal = 1;
origin = "{0, 20}";
target = "{0, 0}";
type = Tag;
name = hr02;
},
{
horizontal = 1;
origin = "{0, 23}";
target = "{0, 0}";
type = Tag;
name = hr03;
}
);
layerId = "250EF945-70FC-4F2D-944E-2E0BA5947215";
name = SemiBold;
paths = (
{
closed = 1;
nodes = (
"99 669 CURVE SMOOTH",
"99 217 OFFCURVE",
"350 -25 OFFCURVE",
"690 -25 CURVE SMOOTH",
"859 -25 OFFCURVE",
"996 44 OFFCURVE",
"1102 168 CURVE",
"993 286 LINE",
"910 195 OFFCURVE",
"818 145 OFFCURVE",
"694 145 CURVE SMOOTH",
"449 145 OFFCURVE",
"299 339 OFFCURVE",
"299 676 CURVE SMOOTH",
"299 1008 OFFCURVE",
"459 1197 OFFCURVE",
"702 1197 CURVE SMOOTH",
"810 1197 OFFCURVE",
"898 1152 OFFCURVE",
"969 1080 CURVE",
"1077 1202 LINE",
"996 1291 OFFCURVE",
"860 1367 OFFCURVE",
"699 1367 CURVE SMOOTH",
"355 1367 OFFCURVE",
"99 1118 OFFCURVE"
);
}
);
width = 1164;
}
);
unicode = 0043;
userData = {
com.adobe.type.autohint = "ICA8aGludFNldExpc3Q+CiAgICA8aGludHNldCBw";
com.typemytype.robofont.mark = (
1,
0.6,
0.6,
1
);
};
},
{
glyphname = Ccedilla;
lastChange = "2015-01-16 19:45:15 +0000";
layers = (
{
hints = (
{
horizontal = 1;
origin = "{0, 0}";
target = "{0, 0}";
type = Tag;
name = hr01;
},
{
horizontal = 1;
origin = "{0, 13}";
target = "{0, 0}";
type = Tag;
name = hr02;
},
{
horizontal = 1;
origin = "{0, 16}";
target = "{0, 0}";
type = Tag;
name = hr03;
}
);
layerId = "250EF945-70FC-4F2D-944E-2E0BA5947215";
name = SemiBold;
paths = (
{
closed = 1;
nodes = (
"997 289 LINE",
"915 197 OFFCURVE",
"824 145 OFFCURVE",
"700 145 CURVE SMOOTH",
"455 145 OFFCURVE",
"299 348 OFFCURVE",
"299 675 CURVE SMOOTH",
"299 997 OFFCURVE",
"465 1197 OFFCURVE",
"708 1197 CURVE SMOOTH",
"816 1197 OFFCURVE",
"898 1149 OFFCURVE",
"969 1077 CURVE",
"1077 1199 LINE",
"996 1288 OFFCURVE",
"866 1367 OFFCURVE",
"705 1367 CURVE SMOOTH",
"361 1367 OFFCURVE",
"99 1104 OFFCURVE",
"99 670 CURVE SMOOTH",
"99 254 OFFCURVE",
"329 4 OFFCURVE",
"639 -22 CURVE",
"571 -154 LINE",
"656 -175 OFFCURVE",
"701 -202 OFFCURVE",
"701 -252 CURVE SMOOTH",
"701 -306 OFFCURVE",
"626 -335 OFFCURVE",
"520 -348 CURVE",
"538 -439 LINE",
"700 -426 OFFCURVE",
"847 -370 OFFCURVE",
"847 -247 CURVE SMOOTH",
"847 -163 OFFCURVE",
"792 -122 OFFCURVE",
"725 -99 CURVE",
"764 -20 LINE",
"902 -4 OFFCURVE",
"1016 63 OFFCURVE",
"1107 170 CURVE"
);
}
);
width = 1164;
}
);
unicode = 00C7;
userData = {
com.adobe.type.autohint = "ICA8aGludFNldExpc3Q+CiAgICA8aGludHNldCBw";
};
},
{
color = (255,153,153,1);
glyphname = D;
lastChange = "2015-01-16 19:45:15 +0000";
layers = (
{
anchors = (
{
name = top;
position = "{515, 1050}";
}
);
hints = (
{
horizontal = 1;
origin = "{0, 0}";
target = "{0, 0}";
type = Tag;
name = hr00;
}
);
layerId = "250EF945-70FC-4F2D-944E-2E0BA5947215";
name = SemiBold;
paths = (
{
closed = 1;
nodes = (
"174 0 LINE",
"533 0 LINE",
"936 0 OFFCURVE",
"1158 238 OFFCURVE",
"1158 679 CURVE SMOOTH",
"1158 1121 OFFCURVE",
"946 1342 OFFCURVE",
"531 1342 CURVE SMOOTH",
"174 1342 LINE"
);
},
{
closed = 1;
nodes = (
"370 158 LINE",
"370 1183 LINE",
"519 1183 LINE",
"819 1183 OFFCURVE",
"959 1022 OFFCURVE",
"959 679 CURVE SMOOTH",
"959 336 OFFCURVE",
"809 158 OFFCURVE",
"510 158 CURVE SMOOTH"
);
}
);
width = 1261;
}
);
unicode = 0044;
userData = {
com.adobe.type.autohint = "ICA8aGludFNldExpc3Q+CiAgICA8aGludHNldCBw";
com.typemytype.robofont.mark = (
1,
0.6,
0.6,
1
);
};
},
{
color = (255,153,153,1);
glyphname = Eth;
lastChange = "2015-01-16 19:45:15 +0000";
layers = (
{
anchors = (
{
name = top;
position = "{631, 1050}";
}
);
hints = (
{
horizontal = 1;
origin = "{0, 0}";
target = "{0, 0}";
type = Tag;
name = hr00;
}
);
layerId = "250EF945-70FC-4F2D-944E-2E0BA5947215";
name = SemiBold;
paths = (
{
closed = 1;
nodes = (
"411 158 LINE",
"411 649 LINE",
"712 649 LINE",
"712 755 LINE",
"411 755 LINE",
"411 1183 LINE",
"547 1183 LINE",
"844 1183 OFFCURVE",
"1001 1012 OFFCURVE",
"1001 677 CURVE SMOOTH",
"1001 341 OFFCURVE",
"844 158 OFFCURVE",
"547 158 CURVE SMOOTH"
);
},
{
closed = 1;
nodes = (
"216 1342 LINE",
"216 755 LINE",
"60 746 LINE",
"60 649 LINE",
"216 649 LINE",
"216 0 LINE",
"570 0 LINE",
"973 0 OFFCURVE",
"1202 244 OFFCURVE",
"1202 677 CURVE SMOOTH",
"1202 1109 OFFCURVE",
"973 1342 OFFCURVE",
"560 1342 CURVE SMOOTH"
);
}
);
width = 1302;
}
);
unicode = 00D0;
userData = {
com.adobe.type.autohint = "ICA8aGludFNldExpc3Q+CiAgICA8aGludHNldCBw";
com.typemytype.robofont.mark = (
1,
0.6,
0.6,
1
);
};
},
{
color = (255,153,153,1);
glyphname = E;
lastChange = "2015-01-16 19:45:15 +0000";
layers = (
{
anchors = (
{
name = top;
position = "{603, 1050}";
}
);
hints = (
{
horizontal = 1;
origin = "{0, 0}";
target = "{0, 0}";
type = Tag;
name = hr00;
}
);
layerId = "250EF945-70FC-4F2D-944E-2E0BA5947215";
name = SemiBold;
paths = (
{
closed = 1;
nodes = (
"174 0 LINE",
"981 0 LINE",
"981 165 LINE",
"370 165 LINE",
"370 620 LINE",
"868 620 LINE",
"868 784 LINE",
"370 784 LINE",
"370 1178 LINE",
"960 1178 LINE",
"960 1342 LINE",
"174 1342 LINE"
);
}
);
width = 1078;
}
);
unicode = 0045;
userData = {
com.adobe.type.autohint = "ICA8aGludFNldExpc3Q+CiAgICA8aGludHNldCBw";
com.typemytype.robofont.mark = (
1,
0.6,
0.6,
1
);
};
},
{
glyphname = Eogonek;
lastChange = "2015-01-16 19:45:15 +0000";
layers = (
{
hints = (
{
horizontal = 1;
origin = "{0, 0}";
target = "{0, 0}";
type = Tag;
name = hr00;
}
);
layerId = "250EF945-70FC-4F2D-944E-2E0BA5947215";
name = SemiBold;
paths = (
{
closed = 1;
nodes = (
"174 0 LINE",
"795 0 LINE",
"718 -48 OFFCURVE",
"639 -142 OFFCURVE",
"639 -257 CURVE SMOOTH",
"639 -376 OFFCURVE",
"729 -438 OFFCURVE",
"842 -438 CURVE SMOOTH",
"900 -438 OFFCURVE",
"973 -411 OFFCURVE",
"1015 -378 CURVE",
"963 -275 LINE",
"940 -293 OFFCURVE",
"914 -304 OFFCURVE",
"883 -304 CURVE SMOOTH",
"835 -304 OFFCURVE",
"787 -275 OFFCURVE",
"787 -213 CURVE SMOOTH",
"787 -108 OFFCURVE",
"880 -11 OFFCURVE",
"973 0 CURVE SMOOTH",
"981 0 LINE",
"981 165 LINE",
"370 165 LINE",
"370 620 LINE",
"868 620 LINE",
"868 784 LINE",
"370 784 LINE",
"370 1178 LINE",
"960 1178 LINE",
"960 1342 LINE",
"174 1342 LINE"
);
}
);
width = 1078;
}
);
unicode = 0118;
userData = {
com.adobe.type.autohint = "ICA8aGludFNldExpc3Q+CiAgICA8aGludHNldCBw";
};
},
{
color = (255,153,153,1);
glyphname = F;
lastChange = "2015-01-16 19:45:15 +0000";
layers = (
{
anchors = (
{
name = top;
position = "{568, 1050}";
}
);
hints = (
{
horizontal = 1;
origin = "{0, 0}";
target = "{0, 0}";
type = Tag;
name = hr00;
}
);
layerId = "250EF945-70FC-4F2D-944E-2E0BA5947215";
name = SemiBold;
paths = (
{
closed = 1;
nodes = (
"174 0 LINE",
"370 0 LINE",
"370 587 LINE",
"873 587 LINE",
"873 750 LINE",
"370 750 LINE",
"370 1178 LINE",
"962 1178 LINE",
"962 1342 LINE",
"174 1342 LINE"
);
}
);
width = 1014;
}
);
unicode = 0046;
userData = {
com.adobe.type.autohint = "ICA8aGludFNldExpc3Q+CiAgICA8aGludHNldCBw";
com.typemytype.robofont.mark = (
1,
0.6,
0.6,
1
);
};
},
{
color = (255,153,153,1);
glyphname = G;
lastChange = "2015-01-16 19:45:15 +0000";
layers = (
{
anchors = (
{
name = top;
position = "{722, 1050}";
}
);
hints = (
{
horizontal = 1;
origin = "{0, 0}";
target = "{0, 0}";
type = Tag;
name = hr00;
}
);
layerId = "250EF945-70FC-4F2D-944E-2E0BA5947215";
name = SemiBold;
paths = (
{
closed = 1;
nodes = (
"99 667 CURVE SMOOTH",
"99 210 OFFCURVE",
"356 -25 OFFCURVE",
"711 -25 CURVE SMOOTH",
"892 -25 OFFCURVE",
"1045 46 OFFCURVE",
"1134 132 CURVE",
"1134 706 LINE",
"692 706 LINE",
"692 546 LINE",
"958 546 LINE",
"958 218 LINE",
"908 173 OFFCURVE",
"821 145 OFFCURVE",
"733 145 CURVE SMOOTH",
"451 145 OFFCURVE",
"300 335 OFFCURVE",
"300 672 CURVE SMOOTH",
"300 1017 OFFCURVE",
"468 1197 OFFCURVE",
"728 1197 CURVE SMOOTH",
"858 1197 OFFCURVE",
"939 1154 OFFCURVE",
"1006 1085 CURVE",
"1117 1207 LINE",
"1035 1291 OFFCURVE",
"909 1367 OFFCURVE",
"726 1367 CURVE SMOOTH",
"364 1367 OFFCURVE",
"99 1133 OFFCURVE"
);
}
);
width = 1262;
}
);
unicode = 0047;
userData = {
com.adobe.type.autohint = "ICA8aGludFNldExpc3Q+CiAgICA8aGludHNldCBw";
com.typemytype.robofont.mark = (
1,
0.6,
0.6,
1
);
};
},
{
color = (255,153,153,1);
glyphname = H;
lastChange = "2015-01-16 19:45:15 +0000";
layers = (
{
anchors = (
{
name = top;
position = "{666, 1050}";
}
);
hints = (
{
horizontal = 1;
origin = "{0, 0}";
target = "{0, 0}";
type = Tag;
name = hr00;
}
);
layerId = "250EF945-70FC-4F2D-944E-2E0BA5947215";
name = SemiBold;
paths = (
{
closed = 1;
nodes = (
"174 0 LINE",
"370 0 LINE",
"370 619 LINE",
"965 619 LINE",
"965 0 LINE",
"1159 0 LINE",
"1159 1342 LINE",
"965 1342 LINE",
"965 788 LINE",
"370 788 LINE",
"370 1342 LINE",
"174 1342 LINE"
);
}
);
width = 1334;
}
);
unicode = 0048;
userData = {
com.adobe.type.autohint = "ICA8aGludFNldExpc3Q+CiAgICA8aGludHNldCBw";
com.typemytype.robofont.mark = (
1,
0.6,
0.6,
1
);
};
},
{
glyphname = Hbar;
lastChange = "2015-01-16 19:45:15 +0000";
layers = (
{
hints = (
{
horizontal = 1;
origin = "{0, 0}";
target = "{0, 0}";
type = Tag;
name = hr00;
}
);
layerId = "250EF945-70FC-4F2D-944E-2E0BA5947215";
name = SemiBold;
paths = (
{
closed = 1;
nodes = (
"1000 788 LINE",
"406 788 LINE",
"406 1006 LINE",
"1000 1006 LINE"
);
},
{
closed = 1;
nodes = (
"1348 1111 LINE",
"1196 1111 LINE",
"1196 1342 LINE",
"1000 1342 LINE",
"1000 1111 LINE",
"406 1111 LINE",
"406 1342 LINE",
"212 1342 LINE",
"212 1111 LINE",
"59 1100 LINE",
"59 1006 LINE",
"212 1006 LINE",
"212 0 LINE",
"406 0 LINE",
"406 619 LINE",
"1000 619 LINE",
"1000 0 LINE",
"1196 0 LINE",
"1196 1006 LINE",
"1348 1006 LINE"
);
}
);
width = 1408;
}
);
unicode = 0126;
userData = {
com.adobe.type.autohint = "ICA8aGludFNldExpc3Q+CiAgICA8aGludHNldCBw";
};
},
{
color = (255,153,153,1);
glyphname = I;
lastChange = "2015-01-16 19:45:15 +0000";
layers = (
{
anchors = (
{
name = top;
position = "{272, 1050}";
}
);
hints = (
{
horizontal = 1;
origin = "{0, 0}";
target = "{0, 0}";
type = Tag;
name = hr00;
}
);
layerId = "250EF945-70FC-4F2D-944E-2E0BA5947215";
name = SemiBold;
paths = (
{
closed = 1;
nodes = (
"174 0 LINE",
"370 0 LINE",
"370 1342 LINE",
"174 1342 LINE"
);
}
);
width = 544;
}
);
unicode = 0049;
userData = {
com.adobe.type.autohint = "ICA8aGludFNldExpc3Q+CiAgICA8aGludHNldCBw";
com.typemytype.robofont.mark = (
1,
0.6,
0.6,
1
);
};
},
{
glyphname = Iogonek;
lastChange = "2015-01-16 19:45:15 +0000";
layers = (
{
hints = (
{
horizontal = 1;
origin = "{0, 0}";
target = "{0, 0}";
type = Tag;
name = hr01;
},
{
horizontal = 1;
origin = "{0, 4}";
target = "{0, 0}";
type = Tag;
name = hr02;
},
{
horizontal = 1;
origin = "{0, 20}";
target = "{0, 0}";
type = Tag;
name = hr03;
}
);
layerId = "250EF945-70FC-4F2D-944E-2E0BA5947215";
name = SemiBold;
paths = (
{
closed = 1;
nodes = (
"174 0 LINE",
"222 0 LINE",
"158 -56 OFFCURVE",
"84 -138 OFFCURVE",
"84 -257 CURVE SMOOTH",
"84 -376 OFFCURVE",
"173 -438 OFFCURVE",
"286 -438 CURVE SMOOTH",
"344 -438 OFFCURVE",
"417 -411 OFFCURVE",
"459 -378 CURVE",
"408 -275 LINE",
"385 -293 OFFCURVE",
"359 -304 OFFCURVE",
"327 -304 CURVE SMOOTH",
"279 -304 OFFCURVE",
"231 -275 OFFCURVE",
"231 -213 CURVE SMOOTH",
"231 -131 OFFCURVE",
"279 -62 OFFCURVE",
"370 0 CURVE",
"370 1342 LINE",
"174 1342 LINE"
);
}
);
width = 544;
}
);
unicode = 012E;
userData = {
com.adobe.type.autohint = "ICA8aGludFNldExpc3Q+CiAgICA8aGludHNldCBw";
};
},
{
color = (255,153,153,1);
glyphname = J;
lastChange = "2015-01-16 19:45:15 +0000";
layers = (
{
anchors = (
{
name = top;
position = "{714, 1050}";
}
);
hints = (
{
horizontal = 1;
origin = "{0, 0}";
target = "{0, 0}";
type = Tag;
name = hr00;
}
);
layerId = "250EF945-70FC-4F2D-944E-2E0BA5947215";
name = SemiBold;
paths = (
{
closed = 1;
nodes = (
"54 195 LINE",
"134 50 OFFCURVE",
"260 -25 OFFCURVE",
"437 -25 CURVE SMOOTH",
"707 -25 OFFCURVE",
"816 159 OFFCURVE",
"816 395 CURVE SMOOTH",
"816 1342 LINE",
"621 1342 LINE",
"621 414 LINE",
"621 213 OFFCURVE",
"555 145 OFFCURVE",
"418 145 CURVE SMOOTH",
"326 145 OFFCURVE",
"250 190 OFFCURVE",
"190 293 CURVE"
);
}
);
width = 983;
}
);
unicode = 004A;
userData = {
com.adobe.type.autohint = "ICA8aGludFNldExpc3Q+CiAgICA8aGludHNldCBw";
com.typemytype.robofont.mark = (
1,
0.6,
0.6,
1
);
};
},
{
color = (255,153,153,1);
glyphname = K;
lastChange = "2015-01-16 19:45:15 +0000";
layers = (
{
anchors = (
{
name = top;
position = "{547, 1050}";
}
);
hints = (
{
horizontal = 1;
origin = "{0, 0}";
target = "{0, 0}";
type = Tag;
name = hr00;
}
);
layerId = "250EF945-70FC-4F2D-944E-2E0BA5947215";
name = SemiBold;
paths = (
{
closed = 1;
nodes = (
"174 0 LINE",
"370 0 LINE",
"370 414 LINE",
"586 673 LINE",
"973 0 LINE",
"1189 0 LINE",
"705 826 LINE",
"1124 1342 LINE",
"904 1342 LINE",
"374 690 LINE",
"370 690 LINE",
"370 1342 LINE",
"174 1342 LINE"
);
}
);
width = 1190;
}
);
unicode = 004B;
userData = {
com.adobe.type.autohint = "ICA8aGludFNldExpc3Q+CiAgICA8aGludHNldCBw";
com.typemytype.robofont.mark = (
1,
0.6,
0.6,
1
);
};
},
{
color = (255,153,153,1);
glyphname = L;
lastChange = "2015-01-16 19:45:15 +0000";
layers = (
{
anchors = (
{
name = top;
position = "{559, 1050}";
}
);
hints = (
{
horizontal = 1;
origin = "{0, 0}";
target = "{0, 0}";
type = Tag;
name = hr00;
}
);
layerId = "250EF945-70FC-4F2D-944E-2E0BA5947215";
name = SemiBold;
paths = (
{
closed = 1;
nodes = (
"174 0 LINE",
"945 0 LINE",
"945 165 LINE",
"370 165 LINE",
"370 1342 LINE",
"174 1342 LINE"
);
}
);
width = 998;
}
);
unicode = 004C;
userData = {
com.adobe.type.autohint = "ICA8aGludFNldExpc3Q+CiAgICA8aGludHNldCBw";
com.typemytype.robofont.mark = (
1,
0.6,
0.6,
1
);
};
},
{
glyphname = Lslash;
lastChange = "2015-01-16 19:45:15 +0000";
layers = (
{
hints = (
{
horizontal = 1;
origin = "{0, 0}";
target = "{0, 0}";
type = Tag;
name = hr00;
}
);
layerId = "250EF945-70FC-4F2D-944E-2E0BA5947215";
name = SemiBold;
paths = (
{
closed = 1;
nodes = (
"377 165 LINE",
"377 567 LINE",
"757 771 LINE",
"757 927 LINE",
"377 723 LINE",
"377 1342 LINE",
"181 1342 LINE",
"181 627 LINE",
"20 542 LINE",
"20 387 LINE",
"181 472 LINE",
"181 0 LINE",
"952 0 LINE",
"952 165 LINE"
);
}
);
width = 1006;
}
);
unicode = 0141;
userData = {
com.adobe.type.autohint = "ICA8aGludFNldExpc3Q+CiAgICA8aGludHNldCBw";
};
},
{
color = (255,153,153,1);
glyphname = M;
lastChange = "2015-01-16 19:45:15 +0000";
layers = (
{
anchors = (
{
name = top;
position = "{746, 1050}";
}
);
hints = (
{
horizontal = 1;
origin = "{0, 0}";
target = "{0, 0}";
type = Tag;
name = hr01;
},
{
horizontal = 1;
origin = "{0, 5}";
target = "{0, 0}";
type = Tag;
name = hr02;
}
);
layerId = "250EF945-70FC-4F2D-944E-2E0BA5947215";
name = SemiBold;
paths = (
{
closed = 1;
nodes = (
"164 0 LINE",
"344 0 LINE",
"344 693 LINE",
"344 815 OFFCURVE",
"340 981 OFFCURVE",
"330 1102 CURVE",
"338 1102 LINE",
"445 801 LINE",
"693 132 LINE",
"795 132 LINE",
"1042 801 LINE",
"1149 1102 LINE",
"1157 1102 LINE",
"1148 981 OFFCURVE",
"1142 815 OFFCURVE",
"1142 693 CURVE SMOOTH",
"1145 0 LINE",
"1328 0 LINE",
"1306 1342 LINE",
"1094 1342 LINE",
"845 644 LINE",
"753 376 LINE",
"745 376 LINE",
"651 644 LINE",
"398 1342 LINE",
"184 1342 LINE"
);
}
);
width = 1494;
}
);
unicode = 004D;
userData = {
com.adobe.type.autohint = "ICA8aGludFNldExpc3Q+CiAgICA8aGludHNldCBw";
com.typemytype.robofont.mark = (
1,
0.6,
0.6,
1
);
};
},
{
color = (255,153,153,1);
glyphname = N;
lastChange = "2015-01-16 19:45:15 +0000";
layers = (
{
anchors = (
{
name = top;
position = "{660, 1050}";
}
);
hints = (
{
horizontal = 1;
origin = "{0, 0}";
target = "{0, 0}";
type = Tag;
name = hr00;
}
);
layerId = "250EF945-70FC-4F2D-944E-2E0BA5947215";
name = SemiBold;
paths = (
{
closed = 1;
nodes = (
"174 0 LINE",
"359 0 LINE",
"359 660 LINE",
"359 805 OFFCURVE",
"345 954 OFFCURVE",
"335 1092 CURVE",
"344 1092 LINE",
"486 813 LINE",
"946 0 LINE",
"1147 0 LINE",
"1147 1342 LINE",
"962 1342 LINE",
"962 688 LINE",
"962 544 OFFCURVE",
"978 386 OFFCURVE",
"987 250 CURVE",
"979 250 LINE",
"837 532 LINE",
"374 1342 LINE",
"174 1342 LINE"
);
}
);
width = 1323;
}
);
unicode = 004E;
userData = {
com.adobe.type.autohint = "ICA8aGludFNldExpc3Q+CiAgICA8aGludHNldCBw";
com.typemytype.robofont.mark = (
1,
0.6,
0.6,
1
);
};
},
{
color = (255,153,153,1);
glyphname = O;
lastChange = "2015-01-16 19:45:15 +0000";
layers = (
{
anchors = (
{
name = top;
position = "{678, 1050}";
}
);
hints = (
{
horizontal = 1;
origin = "{0, 0}";
target = "{0, 0}";
type = Tag;
name = hr00;
}
);
layerId = "250EF945-70FC-4F2D-944E-2E0BA5947215";
name = SemiBold;
paths = (
{
closed = 1;
nodes = (
"678 -25 CURVE SMOOTH",
"1030 -25 OFFCURVE",
"1258 228 OFFCURVE",
"1258 674 CURVE SMOOTH",
"1258 1117 OFFCURVE",
"1030 1367 OFFCURVE",
"678 1367 CURVE SMOOTH",
"324 1367 OFFCURVE",
"99 1119 OFFCURVE",
"99 674 CURVE SMOOTH",
"99 228 OFFCURVE",
"324 -25 OFFCURVE"
);
},
{
closed = 1;
nodes = (
"678 145 CURVE SMOOTH",
"438 145 OFFCURVE",
"299 341 OFFCURVE",
"299 674 CURVE SMOOTH",
"299 1006 OFFCURVE",
"438 1197 OFFCURVE",
"678 1197 CURVE SMOOTH",
"915 1197 OFFCURVE",
"1058 1006 OFFCURVE",
"1058 674 CURVE SMOOTH",
"1058 341 OFFCURVE",
"915 145 OFFCURVE"
);
}
);
width = 1359;
}
);
unicode = 004F;
userData = {
com.adobe.type.autohint = "ICA8aGludFNldExpc3Q+CiAgICA8aGludHNldCBw";
com.typemytype.robofont.mark = (
1,
0.6,
0.6,
1
);
};
},
{
glyphname = Ohorn;
lastChange = "2015-01-16 19:45:15 +0000";
layers = (
{
hints = (
{
horizontal = 1;
origin = "{0, 0}";
target = "{0, 0}";
type = Tag;
name = hr01;
},
{
horizontal = 1;
origin = "{1, 0}";
target = "{0, 0}";
type = Tag;
name = hr02;
},
{
horizontal = 1;
origin = "{1, 18}";
target = "{0, 0}";
type = Tag;
name = hr03;
},
{
horizontal = 1;
origin = "{1, 24}";
target = "{0, 0}";
type = Tag;
name = hr04;
}
);
layerId = "250EF945-70FC-4F2D-944E-2E0BA5947215";
name = SemiBold;
paths = (
{
closed = 1;
nodes = (
"680 145 CURVE SMOOTH",
"449 145 OFFCURVE",
"299 354 OFFCURVE",
"299 677 CURVE SMOOTH",
"299 999 OFFCURVE",
"449 1197 OFFCURVE",
"680 1197 CURVE SMOOTH",
"909 1197 OFFCURVE",
"1059 999 OFFCURVE",
"1059 677 CURVE SMOOTH",
"1059 354 OFFCURVE",
"909 145 OFFCURVE"
);
},
{
closed = 1;
nodes = (
"1078 1523 LINE",
"1095 1496 OFFCURVE",
"1108 1468 OFFCURVE",
"1108 1437 CURVE SMOOTH",
"1108 1361 OFFCURVE",
"1056 1322 OFFCURVE",
"950 1302 CURVE",
"871 1344 OFFCURVE",
"780 1367 OFFCURVE",
"680 1367 CURVE SMOOTH",
"338 1367 OFFCURVE",
"99 1108 OFFCURVE",
"99 677 CURVE SMOOTH",
"99 245 OFFCURVE",
"338 -25 OFFCURVE",
"680 -25 CURVE SMOOTH",
"1021 -25 OFFCURVE",
"1259 245 OFFCURVE",
"1259 677 CURVE SMOOTH",
"1259 921 OFFCURVE",
"1181 1109 OFFCURVE",
"1053 1228 CURVE",
"1181 1260 OFFCURVE",
"1264 1329 OFFCURVE",
"1264 1449 CURVE SMOOTH",
"1264 1502 OFFCURVE",
"1242 1550 OFFCURVE",
"1215 1587 CURVE"
);
}
);
width = 1359;
}
);
unicode = 01A0;
userData = {
com.adobe.type.autohint = "ICA8aGludFNldExpc3Q+CiAgICA8aGludHNldCBw";
};
},
{
glyphname = Oslash;
lastChange = "2015-01-16 19:45:15 +0000";
layers = (
{
hints = (
{
horizontal = 1;
origin = "{0, 0}";
target = "{0, 0}";
type = Tag;
name = hr01;
},
{
horizontal = 1;
origin = "{2, 0}";
target = "{0, 0}";
type = Tag;
name = hr02;
},
{
horizontal = 1;
origin = "{2, 5}";
target = "{0, 0}";
type = Tag;
name = hr03;
}
);
layerId = "250EF945-70FC-4F2D-944E-2E0BA5947215";
name = SemiBold;
paths = (
{
closed = 1;
nodes = (
"1003 971 LINE",
"1040 892 OFFCURVE",
"1059 792 OFFCURVE",
"1059 677 CURVE SMOOTH",
"1059 354 OFFCURVE",
"909 145 OFFCURVE",
"680 145 CURVE SMOOTH",
"585 145 OFFCURVE",
"503 181 OFFCURVE",
"442 244 CURVE"
);
},
{
closed = 1;
nodes = (
"363 362 LINE",
"321 446 OFFCURVE",
"299 554 OFFCURVE",
"299 677 CURVE SMOOTH",
"299 999 OFFCURVE",
"449 1197 OFFCURVE",
"680 1197 CURVE SMOOTH",
"778 1197 OFFCURVE",
"863 1161 OFFCURVE",
"927 1092 CURVE"
);
},
{
closed = 1;
nodes = (
"1280 1327 LINE",
"1172 1408 LINE",
"1042 1238 LINE",
"945 1321 OFFCURVE",
"821 1367 OFFCURVE",
"680 1367 CURVE SMOOTH",
"338 1367 OFFCURVE",
"99 1108 OFFCURVE",
"99 677 CURVE SMOOTH",
"99 480 OFFCURVE",
"148 317 OFFCURVE",
"235 200 CURVE",
"93 16 LINE",
"201 -65 LINE",
"327 98 LINE",
"424 18 OFFCURVE",
"543 -25 OFFCURVE",
"680 -25 CURVE SMOOTH",
"1021 -25 OFFCURVE",
"1259 245 OFFCURVE",
"1259 677 CURVE SMOOTH",
"1259 866 OFFCURVE",
"1214 1022 OFFCURVE",
"1132 1137 CURVE"
);
}
);
width = 1359;
}
);
unicode = 00D8;
userData = {
com.adobe.type.autohint = "ICA8aGludFNldExpc3Q+CiAgICA8aGludHNldCBw";
};
},
{
color = (255,153,153,1);
glyphname = OE;
lastChange = "2015-01-16 19:45:15 +0000";
layers = (
{
anchors = (
{
name = top;
position = "{868, 1050}";
}
);
hints = (
{
horizontal = 1;
origin = "{0, 0}";
target = "{0, 0}";
type = Tag;
name = hr01;
},
{
horizontal = 1;
origin = "{1, 0}";
target = "{0, 0}";
type = Tag;
name = hr02;
}
);
layerId = "250EF945-70FC-4F2D-944E-2E0BA5947215";
name = SemiBold;
paths = (
{
closed = 1;
nodes = (
"99 677 CURVE SMOOTH",
"99 244 OFFCURVE",
"350 0 OFFCURVE",
"752 0 CURVE SMOOTH",
"1638 0 LINE",
"1638 165 LINE",
"1060 165 LINE",
"1060 620 LINE",
"1527 620 LINE",
"1527 784 LINE",
"1060 784 LINE",
"1060 1178 LINE",
"1618 1178 LINE",
"1618 1342 LINE",
"762 1342 LINE",
"350 1342 OFFCURVE",
"99 1109 OFFCURVE"
);
},
{
closed = 1;
nodes = (
"299 677 CURVE SMOOTH",
"299 1014 OFFCURVE",
"467 1183 OFFCURVE",
"775 1183 CURVE SMOOTH",
"864 1183 LINE",
"864 158 LINE",
"775 158 LINE",
"467 158 OFFCURVE",
"299 339 OFFCURVE"
);
}
);
width = 1734;
}
);
unicode = 0152;
userData = {
com.adobe.type.autohint = "ICA8aGludFNldExpc3Q+CiAgICA8aGludHNldCBw";
com.typemytype.robofont.mark = (
1,
0.6,
0.6,
1
);
};
},
{
color = (255,153,153,1);
glyphname = P;
lastChange = "2015-01-16 19:45:15 +0000";
layers = (
{
anchors = (
{
name = top;
position = "{595, 1050}";
}
);
hints = (
{
horizontal = 1;
origin = "{0, 0}";
target = "{0, 0}";
type = Tag;
name = hr00;
}
);
layerId = "250EF945-70FC-4F2D-944E-2E0BA5947215";
name = SemiBold;
paths = (
{
closed = 1;
nodes = (
"174 0 LINE",
"370 0 LINE",
"370 499 LINE",
"614 499 LINE",
"914 499 OFFCURVE",
"1101 645 OFFCURVE",
"1101 933 CURVE SMOOTH",
"1101 1233 OFFCURVE",
"918 1342 OFFCURVE",
"611 1342 CURVE SMOOTH",
"174 1342 LINE"
);
},
{
closed = 1;
nodes = (
"370 657 LINE",
"370 1186 LINE",
"591 1186 LINE",
"818 1186 OFFCURVE",
"909 1118 OFFCURVE",
"909 933 CURVE SMOOTH",
"909 752 OFFCURVE",
"823 657 OFFCURVE",
"592 657 CURVE SMOOTH"
);
}
);
width = 1182;
}
);
unicode = 0050;
userData = {
com.adobe.type.autohint = "ICA8aGludFNldExpc3Q+CiAgICA8aGludHNldCBw";
com.typemytype.robofont.mark = (
1,
0.6,
0.6,
1
);
};
},
{
color = (255,153,153,1);
glyphname = Thorn;
lastChange = "2015-01-16 19:45:15 +0000";
layers = (
{
anchors = (
{
name = top;
position = "{642, 1050}";
}
);
hints = (
{
horizontal = 1;
origin = "{0, 0}";
target = "{0, 0}";
type = Tag;
name = hr00;
}
);
layerId = "250EF945-70FC-4F2D-944E-2E0BA5947215";
name = SemiBold;
paths = (
{
closed = 1;
nodes = (
"179 0 LINE",
"373 0 LINE",
"373 297 LINE",
"604 297 LINE",
"897 297 OFFCURVE",
"1105 429 OFFCURVE",
"1105 720 CURVE SMOOTH",
"1105 1018 OFFCURVE",
"900 1121 OFFCURVE",
"604 1121 CURVE SMOOTH",
"373 1121 LINE",
"373 1342 LINE",
"179 1342 LINE"
);
},
{
closed = 1;
nodes = (
"373 454 LINE",
"373 963 LINE",
"584 963 LINE",
"802 963 OFFCURVE",
"912 902 OFFCURVE",
"912 720 CURVE SMOOTH",
"912 536 OFFCURVE",
"806 454 OFFCURVE",
"584 454 CURVE SMOOTH"
);
}
);
width = 1208;
}
);
unicode = 00DE;
userData = {
com.adobe.type.autohint = "ICA8aGludFNldExpc3Q+CiAgICA8aGludHNldCBw";
com.typemytype.robofont.mark = (
1,
0.6,
0.6,
1
);
};
},
{
color = (255,153,153,1);
glyphname = Q;
lastChange = "2015-01-16 19:45:15 +0000";
layers = (
{
anchors = (
{
name = top;
position = "{694, 1050}";
}
);
hints = (
{
horizontal = 1;
origin = "{0, 0}";
target = "{0, 0}";
type = Tag;
name = hr00;
}
);
layerId = "250EF945-70FC-4F2D-944E-2E0BA5947215";
name = SemiBold;
paths = (
{
closed = 1;
nodes = (
"296 677 CURVE SMOOTH",
"296 1007 OFFCURVE",
"438 1197 OFFCURVE",
"675 1197 CURVE SMOOTH",
"911 1197 OFFCURVE",
"1054 1007 OFFCURVE",
"1054 677 CURVE SMOOTH",
"1054 346 OFFCURVE",
"911 145 OFFCURVE",
"675 145 CURVE SMOOTH",
"438 145 OFFCURVE",
"296 346 OFFCURVE"
);
},
{
closed = 1;
nodes = (
"1256 -159 LINE",
"1219 -170 OFFCURVE",
"1163 -181 OFFCURVE",
"1104 -181 CURVE SMOOTH",
"965 -181 OFFCURVE",
"832 -127 OFFCURVE",
"791 -13 CURVE",
"1071 41 OFFCURVE",
"1256 285 OFFCURVE",
"1256 677 CURVE SMOOTH",
"1256 1117 OFFCURVE",
"1028 1367 OFFCURVE",
"675 1367 CURVE SMOOTH",
"321 1367 OFFCURVE",
"96 1119 OFFCURVE",
"96 677 CURVE SMOOTH",
"96 275 OFFCURVE",
"290 28 OFFCURVE",
"582 -17 CURVE",
"650 -208 OFFCURVE",
"829 -341 OFFCURVE",
"1083 -341 CURVE SMOOTH",
"1167 -341 OFFCURVE",
"1250 -324 OFFCURVE",
"1293 -308 CURVE"
);
}
);
width = 1359;
}
);
unicode = 0051;
userData = {
com.adobe.type.autohint = "ICA8aGludFNldExpc3Q+CiAgICA8aGludHNldCBw";
com.typemytype.robofont.mark = (
1,
0.6,
0.6,
1
);
};
},
{
color = (255,153,153,1);
glyphname = R;
lastChange = "2015-01-16 19:45:15 +0000";
layers = (
{
anchors = (
{
name = top;
position = "{595, 1050}";
}
);
hints = (
{
horizontal = 1;
origin = "{0, 0}";
target = "{0, 0}";
type = Tag;
name = hr00;
}
);
layerId = "250EF945-70FC-4F2D-944E-2E0BA5947215";
name = SemiBold;
paths = (
{
closed = 1;
nodes = (
"370 1186 LINE",
"597 1186 LINE",
"797 1186 OFFCURVE",
"891 1137 OFFCURVE",
"891 962 CURVE SMOOTH",
"891 779 OFFCURVE",
"795 710 OFFCURVE",
"595 710 CURVE SMOOTH",
"370 710 LINE"
);
},
{
closed = 1;
nodes = (
"1130 0 LINE",
"805 577 LINE",
"979 627 OFFCURVE",
"1084 738 OFFCURVE",
"1084 962 CURVE SMOOTH",
"1084 1255 OFFCURVE",
"896 1342 OFFCURVE",
"622 1342 CURVE SMOOTH",
"174 1342 LINE",
"174 0 LINE",
"370 0 LINE",
"370 551 LINE",
"607 551 LINE",
"908 0 LINE"
);
}
);
width = 1195;
}
);
unicode = 0052;
userData = {
com.adobe.type.autohint = "ICA8aGludFNldExpc3Q+CiAgICA8aGludHNldCBw";
com.typemytype.robofont.mark = (
1,
0.6,
0.6,
1
);
};
},
{
color = (255,153,153,1);
glyphname = S;
lastChange = "2015-01-16 19:45:15 +0000";
layers = (
{
anchors = (
{
name = top;
position = "{575, 1050}";
}
);
hints = (
{
horizontal = 1;
origin = "{0, 0}";
target = "{0, 0}";
type = Tag;
name = hr00;
}
);
layerId = "250EF945-70FC-4F2D-944E-2E0BA5947215";
name = SemiBold;
paths = (
{
closed = 1;
nodes = (
"83 164 LINE",
"204 42 OFFCURVE",
"366 -25 OFFCURVE",
"553 -25 CURVE SMOOTH",
"844 -25 OFFCURVE",
"1020 147 OFFCURVE",
"1020 361 CURVE SMOOTH",
"1020 558 OFFCURVE",
"896 656 OFFCURVE",
"739 723 CURVE SMOOTH",
"551 803 LINE",
"444 848 OFFCURVE",
"334 903 OFFCURVE",
"334 1024 CURVE SMOOTH",
"334 1137 OFFCURVE",
"431 1197 OFFCURVE",
"573 1197 CURVE SMOOTH",
"694 1197 OFFCURVE",
"789 1158 OFFCURVE",
"871 1083 CURVE",
"973 1207 LINE",
"875 1308 OFFCURVE",
"734 1367 OFFCURVE",
"574 1367 CURVE SMOOTH",
"324 1367 OFFCURVE",
"138 1220 OFFCURVE",
"138 1012 CURVE SMOOTH",
"138 815 OFFCURVE",
"279 707 OFFCURVE",
"407 654 CURVE SMOOTH",
"595 571 LINE",
"720 515 OFFCURVE",
"822 473 OFFCURVE",
"822 345 CURVE SMOOTH",
"822 224 OFFCURVE",
"726 145 OFFCURVE",
"557 145 CURVE SMOOTH",
"421 145 OFFCURVE",
"295 202 OFFCURVE",
"198 299 CURVE"
);
}
);
width = 1093;
}
);
unicode = 0053;
userData = {
com.adobe.type.autohint = "ICA8aGludFNldExpc3Q+CiAgICA8aGludHNldCBw";
com.typemytype.robofont.mark = (
1,
0.6,
0.6,
1
);
};
},
{
color = (255,153,153,1);
glyphname = uni1E9E;
lastChange = "2015-01-16 19:45:15 +0000";
layers = (
{
anchors = (
{
name = top;
position = "{733, 1050}";
}
);
hints = (
{
horizontal = 1;
origin = "{0, 0}";
target = "{0, 0}";
type = Tag;
name = hr01;
},
{
horizontal = 1;
origin = "{0, 16}";
target = "{0, 0}";
type = Tag;
name = hr02;
}
);
layerId = "250EF945-70FC-4F2D-944E-2E0BA5947215";
name = SemiBold;
paths = (
{
closed = 1;
nodes = (
"179 0 LINE",
"373 0 LINE",
"373 818 LINE",
"373 1084 OFFCURVE",
"496 1207 OFFCURVE",
"705 1207 CURVE SMOOTH",
"838 1207 OFFCURVE",
"924 1134 OFFCURVE",
"967 1047 CURVE",
"696 744 LINE",
"710 622 LINE",
"1007 571 OFFCURVE",
"1088 472 OFFCURVE",
"1088 353 CURVE SMOOTH",
"1088 227 OFFCURVE",
"1009 137 OFFCURVE",
"876 137 CURVE SMOOTH",
"785 137 OFFCURVE",
"706 172 OFFCURVE",
"631 254 CURVE",
"523 130 LINE",
"604 40 OFFCURVE",
"735 -25 OFFCURVE",
"895 -25 CURVE SMOOTH",
"1136 -25 OFFCURVE",
"1288 138 OFFCURVE",
"1288 353 CURVE SMOOTH",
"1288 549 OFFCURVE",
"1166 682 OFFCURVE",
"897 740 CURVE",
"1168 1041 LINE",
"1097 1237 OFFCURVE",
"947 1367 OFFCURVE",
"712 1367 CURVE SMOOTH",
"347 1367 OFFCURVE",
"179 1142 OFFCURVE",
"179 851 CURVE SMOOTH"
);
}
);
width = 1372;
}
);
unicode = 1E9E;
userData = {
com.adobe.type.autohint = "ICA8aGludFNldExpc3Q+CiAgICA8aGludHNldCBw";
com.typemytype.robofont.mark = (
1,
0.6,
0.6,
1
);
};
},
{
glyphname = uni018F;
lastChange = "2015-01-16 19:45:15 +0000";
layers = (
{
hints = (
{
horizontal = 1;
origin = "{0, 0}";
target = "{0, 0}";
type = Tag;
name = hr00;
}
);
layerId = "250EF945-70FC-4F2D-944E-2E0BA5947215";
name = SemiBold;
paths = (
{
closed = 1;
nodes = (
"1072 578 LINE",
"1045 306 OFFCURVE",
"897 141 OFFCURVE",
"693 141 CURVE SMOOTH",
"493 141 OFFCURVE",
"351 305 OFFCURVE",
"332 578 CURVE"
);
},
{
closed = 1;
nodes = (
"363 1074 LINE",
"441 1147 OFFCURVE",
"553 1201 OFFCURVE",
"684 1201 CURVE SMOOTH",
"923 1201 OFFCURVE",
"1062 1024 OFFCURVE",
"1076 725 CURVE",
"138 725 LINE",
"136 703 OFFCURVE",
"133 682 OFFCURVE",
"133 665 CURVE SMOOTH",
"133 248 OFFCURVE",
"356 -25 OFFCURVE",
"693 -25 CURVE SMOOTH",
"1031 -25 OFFCURVE",
"1269 244 OFFCURVE",
"1269 675 CURVE SMOOTH",
"1269 1106 OFFCURVE",
"1045 1367 OFFCURVE",
"701 1367 CURVE SMOOTH",
"514 1367 OFFCURVE",
"370 1301 OFFCURVE",
"274 1207 CURVE"
);
}
);
width = 1373;
}
);
unicode = 018F;
userData = {
com.adobe.type.autohint = "ICA8aGludFNldExpc3Q+CiAgICA8aGludHNldCBw";
};
},
{
color = (255,153,153,1);
glyphname = T;
lastChange = "2015-01-16 19:45:15 +0000";
layers = (
{
anchors = (
{
name = top;
position = "{548, 1050}";
}
);
hints = (
{
horizontal = 1;
origin = "{0, 0}";
target = "{0, 0}";
type = Tag;
name = hr00;
}
);
layerId = "250EF945-70FC-4F2D-944E-2E0BA5947215";
name = SemiBold;
paths = (
{
closed = 1;
nodes = (
"451 0 LINE",
"645 0 LINE",
"645 1178 LINE",
"1045 1178 LINE",
"1045 1342 LINE",
"51 1342 LINE",
"51 1178 LINE",
"451 1178 LINE"
);
}
);
width = 1096;
}
);
unicode = 0054;
userData = {
com.adobe.type.autohint = "ICA8aGludFNldExpc3Q+CiAgICA8aGludHNldCBw";
com.typemytype.robofont.mark = (
1,
0.6,
0.6,
1
);
};
},
{
color = (255,153,153,1);
glyphname = U;
lastChange = "2015-01-16 19:45:15 +0000";
layers = (
{
anchors = (
{
name = top;
position = "{660, 1050}";
}
);
hints = (
{
horizontal = 1;
origin = "{0, 0}";
target = "{0, 0}";
type = Tag;
name = hr00;
}
);
layerId = "250EF945-70FC-4F2D-944E-2E0BA5947215";
name = SemiBold;
paths = (
{
closed = 1;
nodes = (
"168 557 LINE",
"168 127 OFFCURVE",
"373 -25 OFFCURVE",
"660 -25 CURVE SMOOTH",
"948 -25 OFFCURVE",
"1152 125 OFFCURVE",
"1152 557 CURVE SMOOTH",
"1152 1342 LINE",
"965 1342 LINE",
"965 549 LINE",
"965 238 OFFCURVE",
"833 145 OFFCURVE",
"660 145 CURVE SMOOTH",
"490 145 OFFCURVE",
"364 239 OFFCURVE",
"364 549 CURVE SMOOTH",
"364 1342 LINE",
"168 1342 LINE"
);
}
);
width = 1320;
}
);
unicode = 0055;
userData = {
com.adobe.type.autohint = "ICA8aGludFNldExpc3Q+CiAgICA8aGludHNldCBw";
com.typemytype.robofont.mark = (
1,
0.6,
0.6,
1
);
};
},
{
glyphname = Uhorn;
lastChange = "2015-01-16 19:45:15 +0000";
layers = (
{
hints = (
{
horizontal = 1;
origin = "{0, 0}";
target = "{0, 0}";
type = Tag;
name = hr00;
}
);
layerId = "250EF945-70FC-4F2D-944E-2E0BA5947215";
name = SemiBold;
paths = (
{
closed = 1;
nodes = (
"1195 1563 LINE",
"1212 1537 OFFCURVE",
"1226 1509 OFFCURVE",
"1226 1478 CURVE SMOOTH",
"1226 1381 OFFCURVE",
"1153 1355 OFFCURVE",
"1050 1342 CURVE",
"965 1342 LINE",
"965 558 LINE",
"965 245 OFFCURVE",
"833 145 OFFCURVE",
"660 145 CURVE SMOOTH",
"490 145 OFFCURVE",
"364 245 OFFCURVE",
"364 558 CURVE SMOOTH",
"364 1342 LINE",
"168 1342 LINE",
"168 567 LINE",
"168 132 OFFCURVE",
"373 -25 OFFCURVE",
"660 -25 CURVE SMOOTH",
"948 -25 OFFCURVE",
"1152 132 OFFCURVE",
"1152 567 CURVE SMOOTH",
"1152 1262 LINE",
"1277 1288 OFFCURVE",
"1382 1351 OFFCURVE",
"1382 1490 CURVE SMOOTH",
"1382 1543 OFFCURVE",
"1360 1591 OFFCURVE",
"1333 1628 CURVE"
);
}
);
width = 1349;
}
);
unicode = 01AF;
userData = {
com.adobe.type.autohint = "ICA8aGludFNldExpc3Q+CiAgICA8aGludHNldCBw";
};
},
{
glyphname = Uogonek;
lastChange = "2015-01-16 19:45:15 +0000";
layers = (
{
hints = (
{
horizontal = 1;
origin = "{0, 0}";
target = "{0, 0}";
type = Tag;
name = hr00;
}
);
layerId = "250EF945-70FC-4F2D-944E-2E0BA5947215";
name = SemiBold;
paths = (
{
closed = 1;
nodes = (
"168 567 LINE",
"168 152 OFFCURVE",
"356 -13 OFFCURVE",
"643 -22 CURVE",
"595 -70 OFFCURVE",
"512 -142 OFFCURVE",
"512 -257 CURVE SMOOTH",
"512 -376 OFFCURVE",
"603 -438 OFFCURVE",
"714 -438 CURVE SMOOTH",
"772 -438 OFFCURVE",
"846 -411 OFFCURVE",
"887 -378 CURVE",
"836 -275 LINE",
"812 -293 OFFCURVE",
"787 -304 OFFCURVE",
"755 -304 CURVE SMOOTH",
"707 -304 OFFCURVE",
"659 -275 OFFCURVE",
"659 -213 CURVE SMOOTH",
"659 -148 OFFCURVE",
"715 -64 OFFCURVE",
"820 -13 CURVE SMOOTH",
"1024 82 OFFCURVE",
"1152 202 OFFCURVE",
"1152 567 CURVE SMOOTH",
"1152 1342 LINE",
"965 1342 LINE",
"965 558 LINE",
"965 245 OFFCURVE",
"833 145 OFFCURVE",
"660 145 CURVE SMOOTH",
"490 145 OFFCURVE",
"364 245 OFFCURVE",
"364 558 CURVE SMOOTH",
"364 1342 LINE",
"168 1342 LINE"
);
}
);
width = 1320;
}
);
unicode = 0172;
userData = {
com.adobe.type.autohint = "ICA8aGludFNldExpc3Q+CiAgICA8aGludHNldCBw";
};
},
{
color = (255,153,153,1);
glyphname = V;
lastChange = "2015-01-16 19:45:15 +0000";
layers = (
{
anchors = (
{
name = top;
position = "{531, 1050}";
}
);
hints = (
{
horizontal = 1;
origin = "{0, 0}";
target = "{0, 0}";
type = Tag;
name = hr01;
},
{
horizontal = 1;
origin = "{0, 7}";
target = "{0, 0}";
type = Tag;
name = hr02;
}
);
layerId = "250EF945-70FC-4F2D-944E-2E0BA5947215";
name = SemiBold;
paths = (
{
closed = 1;
nodes = (
"417 0 LINE",
"646 0 LINE",
"1068 1342 LINE",
"869 1342 LINE",
"664 635 LINE",
"620 479 OFFCURVE",
"588 350 OFFCURVE",
"539 194 CURVE",
"531 194 LINE",
"483 350 OFFCURVE",
"452 479 OFFCURVE",
"406 635 CURVE SMOOTH",
"199 1342 LINE",
"-6 1342 LINE"
);
}
);
width = 1061;
}
);
unicode = 0056;
userData = {
com.adobe.type.autohint = "ICA8aGludFNldExpc3Q+CiAgICA8aGludHNldCBw";
com.typemytype.robofont.mark = (
1,
0.6,
0.6,
1
);
};
},
{
color = (255,153,153,1);
glyphname = W;
lastChange = "2015-01-16 19:45:15 +0000";
layers = (
{
anchors = (
{
name = top;
position = "{804, 1050}";
}
);
hints = (
{
horizontal = 1;
origin = "{0, 0}";
target = "{0, 0}";
type = Tag;
name = hr00;
}
);
layerId = "250EF945-70FC-4F2D-944E-2E0BA5947215";
name = SemiBold;
paths = (
{
closed = 1;
nodes = (
"316 0 LINE",
"550 0 LINE",
"737 772 LINE",
"760 876 OFFCURVE",
"781 975 OFFCURVE",
"802 1078 CURVE",
"811 1078 LINE",
"828 975 OFFCURVE",
"850 876 OFFCURVE",
"872 772 CURVE",
"1062 0 LINE",
"1300 0 LINE",
"1571 1342 LINE",
"1383 1342 LINE",
"1250 630 LINE",
"1227 488 OFFCURVE",
"1203 344 OFFCURVE",
"1179 198 CURVE",
"1170 198 LINE",
"1139 344 OFFCURVE",
"1108 490 OFFCURVE",
"1077 630 CURVE",
"899 1342 LINE",
"724 1342 LINE",
"546 630 LINE",
"514 488 OFFCURVE",
"483 343 OFFCURVE",
"454 198 CURVE",
"446 198 LINE",
"422 343 OFFCURVE",
"396 486 OFFCURVE",
"371 630 CURVE",
"239 1342 LINE",
"38 1342 LINE"
);
}
);
width = 1611;
}
);
unicode = 0057;
userData = {
com.adobe.type.autohint = "ICA8aGludFNldExpc3Q+CiAgICA8aGludHNldCBw";
com.typemytype.robofont.mark = (
1,
0.6,
0.6,
1
);
};
},
{
color = (255,153,153,1);
glyphname = X;
lastChange = "2015-01-16 19:45:15 +0000";
layers = (
{
anchors = (
{
name = top;
position = "{532, 1050}";
}
);
hints = (
{
horizontal = 1;
origin = "{0, 0}";
target = "{0, 0}";
type = Tag;
name = hr00;
}
);
layerId = "250EF945-70FC-4F2D-944E-2E0BA5947215";
name = SemiBold;
paths = (
{
closed = 1;
nodes = (
"26 0 LINE",
"230 0 LINE",
"412 346 LINE",
"446 412 OFFCURVE",
"478 480 OFFCURVE",
"516 562 CURVE",
"524 562 LINE",
"566 480 OFFCURVE",
"602 412 OFFCURVE",
"637 346 CURVE SMOOTH",
"822 0 LINE",
"1038 0 LINE",
"651 683 LINE",
"1012 1342 LINE",
"806 1342 LINE",
"641 1014 LINE",
"609 953 OFFCURVE",
"584 896 OFFCURVE",
"549 817 CURVE",
"540 817 LINE",
"498 896 OFFCURVE",
"470 953 OFFCURVE",
"437 1014 CURVE SMOOTH",
"266 1342 LINE",
"50 1342 LINE",
"413 693 LINE"
);
}
);
width = 1062;
}
);
unicode = 0058;
userData = {
com.adobe.type.autohint = "ICA8aGludFNldExpc3Q+CiAgICA8aGludHNldCBw";
com.typemytype.robofont.mark = (
1,
0.6,
0.6,
1
);
};
},
{
color = (255,153,153,1);
glyphname = Y;
lastChange = "2015-01-16 19:45:15 +0000";
layers = (
{
anchors = (
{
name = top;
position = "{492, 1050}";
}
);
hints = (
{
horizontal = 1;
origin = "{0, 0}";
target = "{0, 0}";
type = Tag;
name = hr00;
}
);
layerId = "250EF945-70FC-4F2D-944E-2E0BA5947215";
name = SemiBold;
paths = (
{
closed = 1;
nodes = (
"395 0 LINE",
"589 0 LINE",
"589 512 LINE",
"993 1342 LINE",
"791 1342 LINE",
"627 977 LINE",
"587 877 OFFCURVE",
"541 784 OFFCURVE",
"497 683 CURVE",
"489 683 LINE",
"444 784 OFFCURVE",
"404 877 OFFCURVE",
"362 977 CURVE SMOOTH",
"200 1342 LINE",
"-9 1342 LINE",
"395 512 LINE"
);
}
);
width = 985;
}
);
unicode = 0059;
userData = {
com.adobe.type.autohint = "ICA8aGludFNldExpc3Q+CiAgICA8aGludHNldCBw";
com.typemytype.robofont.mark = (
1,
0.6,
0.6,
1
);
};
},
{
color = (255,153,153,1);
glyphname = Z;
lastChange = "2015-01-16 19:45:15 +0000";
layers = (
{
anchors = (
{
name = top;
position = "{531, 1050}";
}
);
hints = (
{
horizontal = 1;
origin = "{0, 0}";
target = "{0, 0}";
type = Tag;
name = hr00;
}
);
layerId = "250EF945-70FC-4F2D-944E-2E0BA5947215";
name = SemiBold;
paths = (
{
closed = 1;
nodes = (
"83 0 LINE",
"1017 0 LINE",
"1017 165 LINE",
"324 165 LINE",
"1011 1227 LINE",
"1011 1342 LINE",
"146 1342 LINE",
"146 1178 LINE",
"771 1178 LINE",
"83 117 LINE"
);
}
);
width = 1096;
}
);
unicode = 005A;
userData = {
com.adobe.type.autohint = "ICA8aGludFNldExpc3Q+CiAgICA8aGludHNldCBw";
com.typemytype.robofont.mark = (
1,
0.6,
0.6,
1
);
};
},
{
glyphname = uni015E;
lastChange = "2015-01-16 19:45:15 +0000";
layers = (
{
hints = (
{
horizontal = 1;
origin = "{0, 0}";
target = "{0, 0}";
type = Tag;
name = hr01;
},
{
horizontal = 1;
origin = "{0, 10}";
target = "{0, 0}";
type = Tag;
name = hr02;
},
{
horizontal = 1;
origin = "{0, 13}";
target = "{0, 0}";
type = Tag;
name = hr03;
}
);
layerId = "250EF945-70FC-4F2D-944E-2E0BA5947215";
name = SemiBold;
paths = (
{
closed = 1;
nodes = (
"558 803 LINE",
"451 848 OFFCURVE",
"337 894 OFFCURVE",
"337 1014 CURVE SMOOTH",
"337 1127 OFFCURVE",
"432 1197 OFFCURVE",
"574 1197 CURVE SMOOTH",
"694 1197 OFFCURVE",
"792 1149 OFFCURVE",
"875 1074 CURVE",
"977 1199 LINE",
"878 1300 OFFCURVE",
"733 1367 OFFCURVE",
"574 1367 CURVE SMOOTH",
"325 1367 OFFCURVE",
"141 1211 OFFCURVE",
"141 1003 CURVE SMOOTH",
"141 806 OFFCURVE",
"286 707 OFFCURVE",
"413 654 CURVE SMOOTH",
"602 571 LINE",
"727 515 OFFCURVE",
"822 475 OFFCURVE",
"822 348 CURVE SMOOTH",
"822 226 OFFCURVE",
"725 145 OFFCURVE",
"558 145 CURVE SMOOTH",
"423 145 OFFCURVE",
"291 211 OFFCURVE",
"195 308 CURVE",
"80 173 LINE",
"187 63 OFFCURVE",
"332 -9 OFFCURVE",
"496 -22 CURVE",
"428 -154 LINE",
"512 -175 OFFCURVE",
"555 -202 OFFCURVE",
"555 -252 CURVE SMOOTH",
"555 -306 OFFCURVE",
"482 -335 OFFCURVE",
"376 -348 CURVE",
"393 -439 LINE",
"555 -426 OFFCURVE",
"702 -370 OFFCURVE",
"702 -247 CURVE SMOOTH",
"702 -163 OFFCURVE",
"647 -122 OFFCURVE",
"581 -99 CURVE",
"618 -22 LINE",
"869 3 OFFCURVE",
"1020 165 OFFCURVE",
"1020 364 CURVE SMOOTH",
"1020 561 OFFCURVE",
"903 656 OFFCURVE",
"746 723 CURVE SMOOTH"
);
}
);
width = 1093;
}
);
unicode = 015E;
userData = {
com.adobe.type.autohint = "ICA8aGludFNldExpc3Q+CiAgICA8aGludHNldCBw";
};
},
{
glyphname = uni0162;
lastChange = "2015-01-16 19:45:15 +0000";
layers = (
{
hints = (
{
horizontal = 1;
origin = "{0, 0}";
target = "{0, 0}";
type = Tag;
name = hr01;
},
{
horizontal = 1;
origin = "{0, 12}";
target = "{0, 0}";
type = Tag;
name = hr02;
},
{
horizontal = 1;
origin = "{0, 23}";
target = "{0, 0}";
type = Tag;
name = hr03;
}
);
layerId = "250EF945-70FC-4F2D-944E-2E0BA5947215";
name = SemiBold;
paths = (
{
closed = 1;
nodes = (
"645 0 LINE",
"645 1178 LINE",
"1045 1178 LINE",
"1045 1342 LINE",
"51 1342 LINE",
"51 1178 LINE",
"451 1178 LINE",
"451 0 LINE",
"493 0 LINE",
"415 -154 LINE",
"499 -175 OFFCURVE",
"542 -202 OFFCURVE",
"542 -252 CURVE SMOOTH",
"542 -306 OFFCURVE",
"469 -335 OFFCURVE",
"362 -348 CURVE",
"380 -439 LINE",
"543 -426 OFFCURVE",
"689 -370 OFFCURVE",
"689 -247 CURVE SMOOTH",
"689 -163 OFFCURVE",
"635 -122 OFFCURVE",
"568 -99 CURVE",
"615 0 LINE"
);
}
);
width = 1096;
}
);
unicode = 0162;
userData = {
com.adobe.type.autohint = "ICA8aGludFNldExpc3Q+CiAgICA8aGludHNldCBw";
};
},
{
glyphname = uni01EA;
lastChange = "2015-01-16 19:45:15 +0000";
layers = (
{
hints = (
{
horizontal = 1;
origin = "{0, 0}";
target = "{0, 0}";
type = Tag;
name = hr00;
}
);
layerId = "250EF945-70FC-4F2D-944E-2E0BA5947215";
name = SemiBold;
paths = (
{
closed = 1;
nodes = (
"535 -257 CURVE SMOOTH",
"535 -376 OFFCURVE",
"626 -438 OFFCURVE",
"738 -438 CURVE SMOOTH",
"794 -438 OFFCURVE",
"868 -411 OFFCURVE",
"909 -378 CURVE",
"860 -275 LINE",
"836 -293 OFFCURVE",
"810 -304 OFFCURVE",
"778 -304 CURVE SMOOTH",
"732 -304 OFFCURVE",
"684 -275 OFFCURVE",
"684 -213 CURVE SMOOTH",
"684 -146 OFFCURVE",
"732 -62 OFFCURVE",
"840 -13 CURVE SMOOTH",
"1107 109 OFFCURVE",
"1259 308 OFFCURVE",
"1259 677 CURVE SMOOTH",
"1259 1106 OFFCURVE",
"1021 1367 OFFCURVE",
"680 1367 CURVE SMOOTH",
"338 1367 OFFCURVE",
"99 1108 OFFCURVE",
"99 677 CURVE SMOOTH",
"99 259 OFFCURVE",
"317 -11 OFFCURVE",
"663 -22 CURVE",
"591 -81 OFFCURVE",
"535 -165 OFFCURVE"
);
},
{
closed = 1;
nodes = (
"680 145 CURVE SMOOTH",
"449 145 OFFCURVE",
"299 354 OFFCURVE",
"299 677 CURVE SMOOTH",
"299 999 OFFCURVE",
"449 1197 OFFCURVE",
"680 1197 CURVE SMOOTH",
"909 1197 OFFCURVE",
"1059 999 OFFCURVE",
"1059 677 CURVE SMOOTH",
"1059 354 OFFCURVE",
"909 145 OFFCURVE"
);
}
);
width = 1359;
}
);
unicode = 01EA;
userData = {
com.adobe.type.autohint = "ICA8aGludFNldExpc3Q+CiAgICA8aGludHNldCBw";
};
},
{
glyphname = uni0243;
lastChange = "2015-01-16 19:45:15 +0000";
layers = (
{
hints = (
{
horizontal = 1;
origin = "{0, 0}";
target = "{0, 0}";
type = Tag;
name = hr01;
},
{
horizontal = 1;
origin = "{1, 4}";
target = "{0, 0}";
type = Tag;
name = hr02;
},
{
horizontal = 1;
origin = "{2, 16}";
target = "{0, 0}";
type = Tag;
name = hr03;
}
);
layerId = "250EF945-70FC-4F2D-944E-2E0BA5947215";
name = SemiBold;
paths = (
{
closed = 1;
nodes = (
"411 145 LINE",
"411 361 LINE",
"712 361 LINE",
"712 467 LINE",
"411 467 LINE",
"411 660 LINE",
"634 660 LINE",
"855 660 OFFCURVE",
"980 584 OFFCURVE",
"980 414 CURVE SMOOTH",
"980 232 OFFCURVE",
"851 145 OFFCURVE",
"634 145 CURVE SMOOTH"
);
},
{
closed = 1;
nodes = (
"411 1199 LINE",
"606 1199 LINE",
"802 1199 OFFCURVE",
"906 1141 OFFCURVE",
"906 1003 CURVE SMOOTH",
"906 861 OFFCURVE",
"813 784 OFFCURVE",
"601 784 CURVE SMOOTH",
"411 784 LINE"
);
},
{
closed = 1;
nodes = (
"861 739 LINE",
"1019 780 OFFCURVE",
"1093 891 OFFCURVE",
"1093 1019 CURVE SMOOTH",
"1093 1250 OFFCURVE",
"900 1342 OFFCURVE",
"626 1342 CURVE SMOOTH",
"216 1342 LINE",
"216 467 LINE",
"60 459 LINE",
"60 361 LINE",
"216 361 LINE",
"216 0 LINE",
"658 0 LINE",
"956 0 OFFCURVE",
"1169 130 OFFCURVE",
"1169 403 CURVE SMOOTH",
"1169 591 OFFCURVE",
"1056 699 OFFCURVE",
"861 731 CURVE"
);
}
);
width = 1244;
}
);
unicode = 0243;
userData = {
com.adobe.type.autohint = "ICA8aGludFNldExpc3Q+CiAgICA8aGludHNldCBw";
};
},
{
color = (167,255,153,1);
glyphname = uni1EAC;
lastChange = "2015-01-16 19:45:15 +0000";
layers = (
{
components = (
{
name = A;
transform = "{1, 0, 0, 1, 0, 0}";
},
{
name = dotaccent;
transform = "{1, 0, 0, 1, -3, -1625}";
}
);
hints = (
{
horizontal = 1;
origin = "{0, 0}";
target = "{0, 0}";
type = Tag;
name = hr00;
}
);
layerId = "250EF945-70FC-4F2D-944E-2E0BA5947215";
name = SemiBold;
paths = (
{
closed = 1;
nodes = (
"550 1581 LINE",
"558 1581 LINE",
"690 1445 LINE",
"844 1445 LINE",
"648 1676 LINE",
"461 1676 LINE",
"264 1445 LINE",
"418 1445 LINE"
);
}
);
width = 1114;
}
);
unicode = 1EAC;
userData = {
com.adobe.type.autohint = "ICA8aGludFNldExpc3Q+CiAgICA8aGludHNldCBw";
com.typemytype.robofont.mark = (
0.656,
1,
0.6,
1
);
};
},
{
glyphname = I.a;
lastChange = "2015-01-13 16:00:22 +0000";
layers = (
{
anchors = (
{
name = mark0;
position = "{314, 0}";
}
);
layerId = "250EF945-70FC-4F2D-944E-2E0BA5947215";
name = SemiBold;
paths = (
{
closed = 1;
nodes = (
"96 0 LINE",
"624 0 LINE",
"624 165 LINE",
"458 165 LINE",
"458 1178 LINE",
"624 1178 LINE",
"624 1342 LINE",
"96 1342 LINE",
"96 1178 LINE",
"264 1178 LINE",
"264 165 LINE",
"96 165 LINE"
);
}
);
width = 724;
}
);
},
{
glyphname = Iacute.a;
lastChange = "2015-01-13 16:00:22 +0000";
layers = (
{
layerId = "250EF945-70FC-4F2D-944E-2E0BA5947215";
name = SemiBold;
paths = (
{
closed = 1;
nodes = (
"96 0 LINE",
"624 0 LINE",
"624 165 LINE",
"458 165 LINE",
"458 1178 LINE",
"624 1178 LINE",
"624 1342 LINE",
"96 1342 LINE",
"96 1178 LINE",
"264 1178 LINE",
"264 165 LINE",
"96 165 LINE"
);
},
{
closed = 1;
nodes = (
"642 1676 LINE",
"426 1676 LINE",
"249 1445 LINE",
"408 1445 LINE"
);
}
);
width = 724;
}
);
},
{
glyphname = uni01CF.a;
lastChange = "2015-01-13 16:00:22 +0000";
layers = (
{
layerId = "250EF945-70FC-4F2D-944E-2E0BA5947215";
name = SemiBold;
paths = (
{
closed = 1;
nodes = (
"96 0 LINE",
"624 0 LINE",
"624 165 LINE",
"458 165 LINE",
"458 1178 LINE",
"624 1178 LINE",
"624 1342 LINE",
"96 1342 LINE",
"96 1178 LINE",
"264 1178 LINE",
"264 165 LINE",
"96 165 LINE"
);
},
{
closed = 1;
nodes = (
"498 1676 LINE",
"366 1540 LINE",
"358 1540 LINE",
"226 1676 LINE",
"72 1676 LINE",
"268 1445 LINE",
"456 1445 LINE",
"653 1676 LINE"
);
}
);
width = 724;
}
);
},
{
glyphname = Icircumflex.a;
lastChange = "2015-01-13 16:00:22 +0000";
layers = (
{
layerId = "250EF945-70FC-4F2D-944E-2E0BA5947215";
name = SemiBold;
paths = (
{
closed = 1;
nodes = (
"96 0 LINE",
"624 0 LINE",
"624 165 LINE",
"458 165 LINE",
"458 1178 LINE",
"624 1178 LINE",
"624 1342 LINE",
"96 1342 LINE",
"96 1178 LINE",
"264 1178 LINE",
"264 165 LINE",
"96 165 LINE"
);
},
{
closed = 1;
nodes = (
"226 1445 LINE",
"358 1581 LINE",
"366 1581 LINE",
"498 1445 LINE",
"653 1445 LINE",
"456 1676 LINE",
"268 1676 LINE",
"72 1445 LINE"
);
}
);
width = 724;
}
);
},
{
glyphname = Idieresis.a;
lastChange = "2015-01-13 16:00:22 +0000";
layers = (
{
layerId = "250EF945-70FC-4F2D-944E-2E0BA5947215";
name = SemiBold;
paths = (
{
closed = 1;
nodes = (
"96 0 LINE",
"624 0 LINE",
"624 165 LINE",
"458 165 LINE",
"458 1178 LINE",
"624 1178 LINE",
"624 1342 LINE",
"96 1342 LINE",
"96 1178 LINE",
"264 1178 LINE",
"264 165 LINE",
"96 165 LINE"
);
},
{
closed = 1;
nodes = (
"181 1459 CURVE SMOOTH",
"243 1459 OFFCURVE",
"289 1505 OFFCURVE",
"289 1567 CURVE SMOOTH",
"289 1630 OFFCURVE",
"243 1675 OFFCURVE",
"181 1675 CURVE SMOOTH",
"117 1675 OFFCURVE",
"73 1630 OFFCURVE",
"73 1567 CURVE SMOOTH",
"73 1505 OFFCURVE",
"117 1459 OFFCURVE"
);
},
{
closed = 1;
nodes = (
"543 1459 CURVE SMOOTH",
"607 1459 OFFCURVE",
"652 1505 OFFCURVE",
"652 1567 CURVE SMOOTH",
"652 1630 OFFCURVE",
"607 1675 OFFCURVE",
"543 1675 CURVE SMOOTH",
"481 1675 OFFCURVE",
"435 1630 OFFCURVE",
"435 1567 CURVE SMOOTH",
"435 1505 OFFCURVE",
"481 1459 OFFCURVE"
);
}
);
width = 724;
}
);
},
{
glyphname = Idotaccent.a;
lastChange = "2015-01-13 16:00:22 +0000";
layers = (
{
layerId = "250EF945-70FC-4F2D-944E-2E0BA5947215";
name = SemiBold;
paths = (
{
closed = 1;
nodes = (
"96 0 LINE",
"624 0 LINE",
"624 165 LINE",
"458 165 LINE",
"458 1178 LINE",
"624 1178 LINE",
"624 1342 LINE",
"96 1342 LINE",
"96 1178 LINE",
"264 1178 LINE",
"264 165 LINE",
"96 165 LINE"
);
},
{
closed = 1;
nodes = (
"362 1457 CURVE SMOOTH",
"434 1457 OFFCURVE",
"489 1506 OFFCURVE",
"489 1577 CURVE SMOOTH",
"489 1645 OFFCURVE",
"434 1694 OFFCURVE",
"362 1694 CURVE SMOOTH",
"290 1694 OFFCURVE",
"235 1645 OFFCURVE",
"235 1577 CURVE SMOOTH",
"235 1506 OFFCURVE",
"290 1457 OFFCURVE"
);
}
);
width = 724;
}
);
},
{
glyphname = uni1ECA.a;
lastChange = "2015-01-13 16:00:22 +0000";
layers = (
{
layerId = "250EF945-70FC-4F2D-944E-2E0BA5947215";
name = SemiBold;
paths = (
{
closed = 1;
nodes = (
"96 0 LINE",
"624 0 LINE",
"624 165 LINE",
"458 165 LINE",
"458 1178 LINE",
"624 1178 LINE",
"624 1342 LINE",
"96 1342 LINE",
"96 1178 LINE",
"264 1178 LINE",
"264 165 LINE",
"96 165 LINE"
);
},
{
closed = 1;
nodes = (
"364 -430 CURVE SMOOTH",
"434 -430 OFFCURVE",
"485 -381 OFFCURVE",
"485 -310 CURVE SMOOTH",
"485 -242 OFFCURVE",
"434 -193 OFFCURVE",
"364 -193 CURVE SMOOTH",
"294 -193 OFFCURVE",
"243 -242 OFFCURVE",
"243 -310 CURVE SMOOTH",
"243 -381 OFFCURVE",
"294 -430 OFFCURVE"
);
}
);
width = 724;
}
);
},
{
glyphname = Igrave.a;
lastChange = "2015-01-13 16:00:22 +0000";
layers = (
{
layerId = "250EF945-70FC-4F2D-944E-2E0BA5947215";
name = SemiBold;
paths = (
{
closed = 1;
nodes = (
"96 0 LINE",
"624 0 LINE",
"624 165 LINE",
"458 165 LINE",
"458 1178 LINE",
"624 1178 LINE",
"624 1342 LINE",
"96 1342 LINE",
"96 1178 LINE",
"264 1178 LINE",
"264 165 LINE",
"96 165 LINE"
);
},
{
closed = 1;
nodes = (
"315 1445 LINE",
"476 1445 LINE",
"297 1676 LINE",
"82 1676 LINE"
);
}
);
width = 724;
}
);
},
{
glyphname = uni1EC8.a;
lastChange = "2015-01-13 16:00:22 +0000";
layers = (
{
layerId = "250EF945-70FC-4F2D-944E-2E0BA5947215";
name = SemiBold;
paths = (
{
closed = 1;
nodes = (
"96 0 LINE",
"624 0 LINE",
"624 165 LINE",
"458 165 LINE",
"458 1178 LINE",
"624 1178 LINE",
"624 1342 LINE",
"96 1342 LINE",
"96 1178 LINE",
"264 1178 LINE",
"264 165 LINE",
"96 165 LINE"
);
},
{
closed = 1;
nodes = (
"302 1427 LINE",
"427 1446 OFFCURVE",
"540 1498 OFFCURVE",
"540 1621 CURVE SMOOTH",
"540 1726 OFFCURVE",
"438 1785 OFFCURVE",
"246 1791 CURVE",
"224 1684 LINE",
"338 1678 OFFCURVE",
"393 1651 OFFCURVE",
"393 1601 CURVE SMOOTH",
"393 1552 OFFCURVE",
"345 1529 OFFCURVE",
"282 1512 CURVE"
);
}
);
width = 724;
}
);
},
{
glyphname = Imacron.a;
lastChange = "2015-01-13 16:00:22 +0000";
layers = (
{
layerId = "250EF945-70FC-4F2D-944E-2E0BA5947215";
name = SemiBold;
paths = (
{
closed = 1;
nodes = (
"96 0 LINE",
"624 0 LINE",
"624 165 LINE",
"458 165 LINE",
"458 1178 LINE",
"624 1178 LINE",
"624 1342 LINE",
"96 1342 LINE",
"96 1178 LINE",
"264 1178 LINE",
"264 165 LINE",
"96 165 LINE"
);
},
{
closed = 1;
nodes = (
"101 1490 LINE",
"622 1490 LINE",
"622 1620 LINE",
"101 1620 LINE"
);
}
);
width = 724;
}
);
},
{
glyphname = Iogonek.a;
lastChange = "2015-01-13 16:00:22 +0000";
layers = (
{
anchors = (
{
name = mark0;
position = "{360, 1387}";
}
);
layerId = "250EF945-70FC-4F2D-944E-2E0BA5947215";
name = SemiBold;
paths = (
{
closed = 1;
nodes = (
"96 0 LINE",
"311 0 LINE",
"248 -51 OFFCURVE",
"171 -144 OFFCURVE",
"171 -257 CURVE SMOOTH",
"171 -376 OFFCURVE",
"262 -438 OFFCURVE",
"372 -438 CURVE SMOOTH",
"431 -438 OFFCURVE",
"504 -411 OFFCURVE",
"545 -378 CURVE",
"494 -275 LINE",
"471 -293 OFFCURVE",
"446 -304 OFFCURVE",
"414 -304 CURVE SMOOTH",
"366 -304 OFFCURVE",
"318 -275 OFFCURVE",
"318 -213 CURVE SMOOTH",
"318 -138 OFFCURVE",
"366 -62 OFFCURVE",
"444 0 CURVE",
"624 0 LINE",
"624 165 LINE",
"458 165 LINE",
"458 1178 LINE",
"624 1178 LINE",
"624 1342 LINE",
"96 1342 LINE",
"96 1178 LINE",
"264 1178 LINE",
"264 165 LINE",
"96 165 LINE"
);
}
);
width = 724;
}
);
},
{
glyphname = Itilde.a;
lastChange = "2015-01-13 16:00:22 +0000";
layers = (
{
layerId = "250EF945-70FC-4F2D-944E-2E0BA5947215";
name = SemiBold;
paths = (
{
closed = 1;
nodes = (
"96 0 LINE",
"624 0 LINE",
"624 165 LINE",
"458 165 LINE",
"458 1178 LINE",
"624 1178 LINE",
"624 1342 LINE",
"96 1342 LINE",
"96 1178 LINE",
"264 1178 LINE",
"264 165 LINE",
"96 165 LINE"
);
},
{
closed = 1;
nodes = (
"486 1453 CURVE SMOOTH",
"585 1453 OFFCURVE",
"655 1548 OFFCURVE",
"668 1685 CURVE",
"563 1685 LINE",
"553 1618 OFFCURVE",
"520 1581 OFFCURVE",
"482 1581 CURVE SMOOTH",
"408 1581 OFFCURVE",
"347 1685 OFFCURVE",
"238 1685 CURVE SMOOTH",
"138 1685 OFFCURVE",
"70 1591 OFFCURVE",
"55 1453 CURVE",
"161 1453 LINE",
"172 1523 OFFCURVE",
"204 1557 OFFCURVE",
"242 1557 CURVE SMOOTH",
"315 1557 OFFCURVE",
"377 1453 OFFCURVE"
);
}
);
width = 724;
}
);
},
{
color = (255,153,153,1);
glyphname = a;
lastChange = "2015-01-16 19:45:15 +0000";
layers = (
{
anchors = (
{
name = top;
position = "{547, 1050}";
}
);
hints = (
{
horizontal = 1;
origin = "{0, 0}";
target = "{0, 0}";
type = Tag;
name = hr01;
},
{
horizontal = 1;
origin = "{0, 8}";
target = "{0, 0}";
type = Tag;
name = hr02;
}
);
layerId = "250EF945-70FC-4F2D-944E-2E0BA5947215";
name = SemiBold;
paths = (
{
closed = 1;
nodes = (
"115 265 CURVE SMOOTH",
"115 88 OFFCURVE",
"238 -25 OFFCURVE",
"419 -25 CURVE SMOOTH",
"557 -25 OFFCURVE",
"638 39 OFFCURVE",
"732 116 CURVE",
"737 116 LINE",
"753 0 LINE",
"912 0 LINE",
"912 605 LINE",
"912 876 OFFCURVE",
"802 1024 OFFCURVE",
"553 1024 CURVE SMOOTH",
"393 1024 OFFCURVE",
"247 972 OFFCURVE",
"148 909 CURVE",
"222 778 LINE",
"304 832 OFFCURVE",
"409 866 OFFCURVE",
"520 866 CURVE SMOOTH",
"674 866 OFFCURVE",
"719 780 OFFCURVE",
"719 633 CURVE",
"295 614 OFFCURVE",
"115 481 OFFCURVE"
);
},
{
closed = 1;
nodes = (
"303 277 CURVE SMOOTH",
"303 395 OFFCURVE",
"400 500 OFFCURVE",
"719 511 CURVE",
"719 253 LINE",
"633 173 OFFCURVE",
"566 129 OFFCURVE",
"475 129 CURVE SMOOTH",
"372 129 OFFCURVE",
"303 174 OFFCURVE"
);
}
);
width = 1057;
}
);
unicode = 0061;
userData = {
com.adobe.type.autohint = "ICA8aGludFNldExpc3Q+CiAgICA8aGludHNldCBw";
com.typemytype.robofont.mark = (
1,
0.6,
0.6,
1
);
};
},
{
glyphname = aogonek;
lastChange = "2015-01-16 19:45:15 +0000";
layers = (
{
hints = (
{
horizontal = 1;
origin = "{0, 0}";
target = "{0, 0}";
type = Tag;
name = hr01;
},
{
horizontal = 1;
origin = "{1, 11}";
target = "{0, 0}";
type = Tag;
name = hr02;
},
{
horizontal = 1;
origin = "{1, 27}";
target = "{0, 0}";
type = Tag;
name = hr03;
}
);
layerId = "250EF945-70FC-4F2D-944E-2E0BA5947215";
name = SemiBold;
paths = (
{
closed = 1;
nodes = (
"303 276 CURVE SMOOTH",
"303 394 OFFCURVE",
"407 473 OFFCURVE",
"719 511 CURVE",
"719 253 LINE",
"631 173 OFFCURVE",
"558 129 OFFCURVE",
"467 129 CURVE SMOOTH",
"372 129 OFFCURVE",
"303 173 OFFCURVE"
);
},
{
closed = 1;
nodes = (
"115 262 CURVE SMOOTH",
"115 86 OFFCURVE",
"238 -25 OFFCURVE",
"409 -25 CURVE SMOOTH",
"531 -25 OFFCURVE",
"638 39 OFFCURVE",
"732 116 CURVE",
"737 116 LINE",
"756 6 LINE",
"681 -42 OFFCURVE",
"596 -134 OFFCURVE",
"596 -247 CURVE SMOOTH",
"596 -363 OFFCURVE",
"679 -423 OFFCURVE",
"786 -423 CURVE SMOOTH",
"840 -423 OFFCURVE",
"913 -398 OFFCURVE",
"954 -366 CURVE",
"908 -273 LINE",
"884 -288 OFFCURVE",
"859 -299 OFFCURVE",
"827 -299 CURVE SMOOTH",
"780 -299 OFFCURVE",
"733 -270 OFFCURVE",
"733 -207 CURVE SMOOTH",
"733 -131 OFFCURVE",
"795 -44 OFFCURVE",
"912 0 CURVE",
"912 605 LINE",
"912 864 OFFCURVE",
"802 1024 OFFCURVE",
"555 1024 CURVE SMOOTH",
"395 1024 OFFCURVE",
"255 956 OFFCURVE",
"156 894 CURVE",
"231 762 LINE",
"312 816 OFFCURVE",
"412 866 OFFCURVE",
"523 866 CURVE SMOOTH",
"675 866 OFFCURVE",
"718 755 OFFCURVE",
"719 635 CURVE",
"299 589 OFFCURVE",
"115 479 OFFCURVE"
);
}
);
width = 1057;
}
);
unicode = 0105;
userData = {
com.adobe.type.autohint = "ICA8aGludFNldExpc3Q+CiAgICA8aGludHNldCBw";
};
},
{
color = (255,153,153,1);
glyphname = ae;
lastChange = "2015-01-16 19:45:15 +0000";
layers = (
{
anchors = (
{
name = top;
position = "{823, 1050}";
}
);
hints = (
{
horizontal = 1;
origin = "{0, 0}";
target = "{0, 0}";
type = Tag;
name = hr01;
},
{
horizontal = 1;
origin = "{1, 0}";
target = "{0, 0}";
type = Tag;
name = hr02;
},
{
horizontal = 1;
origin = "{1, 35}";
target = "{0, 0}";
type = Tag;
name = hr03;
}
);
layerId = "250EF945-70FC-4F2D-944E-2E0BA5947215";
name = SemiBold;
paths = (
{
closed = 1;
nodes = (
"303 276 CURVE SMOOTH",
"303 395 OFFCURVE",
"416 475 OFFCURVE",
"710 506 CURVE",
"710 462 LINE",
"711 392 OFFCURVE",
"726 319 OFFCURVE",
"747 270 CURVE",
"664 180 OFFCURVE",
"554 129 OFFCURVE",
"467 129 CURVE SMOOTH",
"372 129 OFFCURVE",
"303 173 OFFCURVE"
);
},
{
closed = 1;
nodes = (
"231 776 LINE",
"312 830 OFFCURVE",
"412 866 OFFCURVE",
"515 866 CURVE SMOOTH",
"670 866 OFFCURVE",
"709 750 OFFCURVE",
"710 630 CURVE",
"299 600 OFFCURVE",
"115 479 OFFCURVE",
"115 262 CURVE SMOOTH",
"115 86 OFFCURVE",
"238 -25 OFFCURVE",
"409 -25 CURVE SMOOTH",
"538 -25 OFFCURVE",
"675 37 OFFCURVE",
"812 157 CURVE",
"890 59 OFFCURVE",
"998 -25 OFFCURVE",
"1162 -25 CURVE SMOOTH",
"1295 -25 OFFCURVE",
"1403 22 OFFCURVE",
"1492 80 CURVE",
"1424 211 LINE",
"1350 164 OFFCURVE",
"1279 131 OFFCURVE",
"1187 131 CURVE SMOOTH",
"1025 131 OFFCURVE",
"900 255 OFFCURVE",
"889 450 CURVE",
"1524 450 LINE",
"1528 474 OFFCURVE",
"1531 510 OFFCURVE",
"1531 550 CURVE SMOOTH",
"1531 834 OFFCURVE",
"1412 1024 OFFCURVE",
"1163 1024 CURVE SMOOTH",
"1015 1024 OFFCURVE",
"904 947 OFFCURVE",
"824 823 CURVE",
"780 946 OFFCURVE",
"699 1024 OFFCURVE",
"540 1024 CURVE SMOOTH",
"392 1024 OFFCURVE",
"255 970 OFFCURVE",
"156 908 CURVE"
);
},
{
closed = 1;
nodes = (
"889 575 LINE",
"907 761 OFFCURVE",
"1013 873 OFFCURVE",
"1158 873 CURVE SMOOTH",
"1302 873 OFFCURVE",
"1363 765 OFFCURVE",
"1363 575 CURVE"
);
}
);
width = 1608;
}
);
unicode = 00E6;
userData = {
com.adobe.type.autohint = "ICA8aGludFNldExpc3Q+CiAgICA8aGludHNldCBw";
com.typemytype.robofont.mark = (
1,
0.6,
0.6,
1
);
};
},
{
color = (255,153,153,1);
glyphname = b;
lastChange = "2015-01-16 19:45:15 +0000";
layers = (
{
anchors = (
{
name = top;
position = "{722, 1050}";
}
);
hints = (
{
horizontal = 1;
origin = "{0, 0}";
target = "{0, 0}";
type = Tag;
name = hr01;
},
{
horizontal = 1;
origin = "{0, 6}";
target = "{0, 0}";
type = Tag;
name = hr02;
}
);
layerId = "250EF945-70FC-4F2D-944E-2E0BA5947215";
name = SemiBold;
paths = (
{
closed = 1;
nodes = (
"162 0 LINE",
"315 0 LINE",
"331 99 LINE",
"338 99 LINE",
"425 20 OFFCURVE",
"526 -25 OFFCURVE",
"621 -25 CURVE SMOOTH",
"855 -25 OFFCURVE",
"1048 161 OFFCURVE",
"1048 514 CURVE SMOOTH",
"1048 832 OFFCURVE",
"921 1024 OFFCURVE",
"656 1024 CURVE SMOOTH",
"544 1024 OFFCURVE",
"437 968 OFFCURVE",
"349 890 CURVE",
"354 1065 LINE",
"354 1454 LINE",
"162 1454 LINE"
);
},
{
closed = 1;
nodes = (
"354 233 CURVE",
"354 735 LINE",
"441 819 OFFCURVE",
"522 864 OFFCURVE",
"605 864 CURVE SMOOTH",
"788 864 OFFCURVE",
"849 730 OFFCURVE",
"849 511 CURVE SMOOTH",
"849 266 OFFCURVE",
"742 136 OFFCURVE",
"584 136 CURVE SMOOTH",
"518 136 OFFCURVE",
"436 162 OFFCURVE"
);
}
);
width = 1144;
}
);
unicode = 0062;
userData = {
com.adobe.type.autohint = "ICA8aGludFNldExpc3Q+CiAgICA8aGludHNldCBw";
com.typemytype.robofont.mark = (
1,
0.6,
0.6,
1
);
};
},
{
color = (255,153,153,1);
glyphname = c;
lastChange = "2015-01-16 19:45:15 +0000";
layers = (
{
anchors = (
{
name = top;
position = "{570, 1050}";
}
);
hints = (
{
horizontal = 1;
origin = "{0, 0}";
target = "{0, 0}";
type = Tag;
name = hr00;
}
);
layerId = "250EF945-70FC-4F2D-944E-2E0BA5947215";
name = SemiBold;
paths = (
{
closed = 1;
nodes = (
"90 502 CURVE SMOOTH",
"90 157 OFFCURVE",
"293 -25 OFFCURVE",
"560 -25 CURVE SMOOTH",
"678 -25 OFFCURVE",
"790 14 OFFCURVE",
"881 94 CURVE",
"797 220 LINE",
"740 170 OFFCURVE",
"669 134 OFFCURVE",
"578 134 CURVE SMOOTH",
"406 134 OFFCURVE",
"288 274 OFFCURVE",
"288 502 CURVE SMOOTH",
"288 730 OFFCURVE",
"410 866 OFFCURVE",
"584 866 CURVE SMOOTH",
"657 866 OFFCURVE",
"720 835 OFFCURVE",
"777 786 CURVE",
"870 908 LINE",
"803 973 OFFCURVE",
"706 1024 OFFCURVE",
"575 1024 CURVE SMOOTH",
"315 1024 OFFCURVE",
"90 849 OFFCURVE"
);
}
);
width = 938;
}
);
unicode = 0063;
userData = {
com.adobe.type.autohint = "ICA8aGludFNldExpc3Q+CiAgICA8aGludHNldCBw";
com.typemytype.robofont.mark = (
1,
0.6,
0.6,
1
);
};
},
{
glyphname = ccedilla;
lastChange = "2015-01-16 19:45:15 +0000";
layers = (
{
hints = (
{
horizontal = 1;
origin = "{0, 0}";
target = "{0, 0}";
type = Tag;
name = hr00;
}
);
layerId = "250EF945-70FC-4F2D-944E-2E0BA5947215";
name = SemiBold;
paths = (
{
closed = 1;
nodes = (
"624 -19 LINE",
"720 -8 OFFCURVE",
"815 37 OFFCURVE",
"890 104 CURVE",
"806 229 LINE",
"749 179 OFFCURVE",
"673 134 OFFCURVE",
"581 134 CURVE SMOOTH",
"409 134 OFFCURVE",
"289 280 OFFCURVE",
"289 498 CURVE SMOOTH",
"289 717 OFFCURVE",
"413 866 OFFCURVE",
"588 866 CURVE SMOOTH",
"661 866 OFFCURVE",
"720 832 OFFCURVE",
"777 783 CURVE",
"870 905 LINE",
"803 970 OFFCURVE",
"709 1024 OFFCURVE",
"578 1024 CURVE SMOOTH",
"318 1024 OFFCURVE",
"90 832 OFFCURVE",
"90 498 CURVE SMOOTH",
"90 193 OFFCURVE",
"264 8 OFFCURVE",
"499 -20 CURVE",
"431 -154 LINE",
"517 -175 OFFCURVE",
"560 -202 OFFCURVE",
"560 -252 CURVE SMOOTH",
"560 -306 OFFCURVE",
"485 -335 OFFCURVE",
"380 -348 CURVE",
"398 -439 LINE",
"560 -426 OFFCURVE",
"707 -370 OFFCURVE",
"707 -247 CURVE SMOOTH",
"707 -163 OFFCURVE",
"652 -122 OFFCURVE",
"586 -99 CURVE"
);
}
);
width = 938;
}
);
unicode = 00E7;
userData = {
com.adobe.type.autohint = "ICA8aGludFNldExpc3Q+CiAgICA8aGludHNldCBw";
};
},
{
color = (255,153,153,1);
glyphname = d;
lastChange = "2015-01-16 19:45:15 +0000";
layers = (
{
anchors = (
{
name = top;
position = "{389, 1050}";
}
);
hints = (
{
horizontal = 1;
origin = "{0, 0}";
target = "{0, 0}";
type = Tag;
name = hr01;
},
{
horizontal = 1;
origin = "{0, 8}";
target = "{0, 0}";
type = Tag;
name = hr02;
}
);
layerId = "250EF945-70FC-4F2D-944E-2E0BA5947215";
name = SemiBold;
paths = (
{
closed = 1;
nodes = (
"93 500 CURVE SMOOTH",
"93 156 OFFCURVE",
"258 -25 OFFCURVE",
"506 -25 CURVE SMOOTH",
"619 -25 OFFCURVE",
"724 39 OFFCURVE",
"801 114 CURVE",
"807 114 LINE",
"823 0 LINE",
"982 0 LINE",
"982 1454 LINE",
"788 1454 LINE",
"788 1078 LINE",
"797 910 LINE",
"712 981 OFFCURVE",
"638 1024 OFFCURVE",
"523 1024 CURVE SMOOTH",
"290 1024 OFFCURVE",
"93 836 OFFCURVE"
);
},
{
closed = 1;
nodes = (
"289 502 CURVE SMOOTH",
"289 731 OFFCURVE",
"403 864 OFFCURVE",
"560 864 CURVE SMOOTH",
"637 864 OFFCURVE",
"710 837 OFFCURVE",
"788 766 CURVE",
"788 265 LINE",
"712 177 OFFCURVE",
"637 136 OFFCURVE",
"550 136 CURVE SMOOTH",
"379 136 OFFCURVE",
"289 264 OFFCURVE"
);
}
);
width = 1144;
}
);
unicode = 0064;
userData = {
com.adobe.type.autohint = "ICA8aGludFNldExpc3Q+CiAgICA8aGludHNldCBw";
com.typemytype.robofont.mark = (
1,
0.6,
0.6,
1
);
};
},
{
color = (255,153,153,1);
glyphname = eth;
lastChange = "2015-01-16 19:45:15 +0000";
layers = (
{
anchors = (
{
name = top;
position = "{553, 1050}";
}
);
hints = (
{
horizontal = 1;
origin = "{0, 0}";
target = "{0, 0}";
type = Tag;
name = hr00;
}
);
layerId = "250EF945-70FC-4F2D-944E-2E0BA5947215";
name = SemiBold;
paths = (
{
closed = 1;
nodes = (
"558 134 CURVE SMOOTH",
"410 134 OFFCURVE",
"285 260 OFFCURVE",
"285 457 CURVE SMOOTH",
"285 641 OFFCURVE",
"386 770 OFFCURVE",
"556 770 CURVE SMOOTH",
"644 770 OFFCURVE",
"730 742 OFFCURVE",
"815 631 CURVE",
"817 597 OFFCURVE",
"819 559 OFFCURVE",
"819 521 CURVE SMOOTH",
"819 288 OFFCURVE",
"729 134 OFFCURVE"
);
},
{
closed = 1;
nodes = (
"985 1371 LINE",
"931 1464 LINE",
"640 1315 LINE",
"551 1387 OFFCURVE",
"455 1446 OFFCURVE",
"357 1499 CURVE",
"270 1379 LINE",
"350 1335 OFFCURVE",
"423 1289 OFFCURVE",
"491 1238 CURVE",
"235 1108 LINE",
"289 1015 LINE",
"578 1164 LINE",
"678 1066 OFFCURVE",
"752 949 OFFCURVE",
"789 792 CURVE",
"722 878 OFFCURVE",
"625 918 OFFCURVE",
"525 918 CURVE SMOOTH",
"292 918 OFFCURVE",
"105 738 OFFCURVE",
"105 457 CURVE SMOOTH",
"105 159 OFFCURVE",
"316 -25 OFFCURVE",
"552 -25 CURVE SMOOTH",
"825 -25 OFFCURVE",
"1002 202 OFFCURVE",
"1002 529 CURVE SMOOTH",
"1002 850 OFFCURVE",
"888 1072 OFFCURVE",
"725 1238 CURVE"
);
}
);
width = 1122;
}
);
unicode = 00F0;
userData = {
com.adobe.type.autohint = "ICA8aGludFNldExpc3Q+CiAgICA8aGludHNldCBw";
com.typemytype.robofont.mark = (
1,
0.6,
0.6,
1
);
};
},
{
glyphname = dcroat;
lastChange = "2015-01-16 19:45:15 +0000";
layers = (
{
hints = (
{
horizontal = 1;
origin = "{0, 0}";
target = "{0, 0}";
type = Tag;
name = hr01;
},
{
horizontal = 1;
origin = "{1, 23}";
target = "{0, 0}";
type = Tag;
name = hr02;
}
);
layerId = "250EF945-70FC-4F2D-944E-2E0BA5947215";
name = SemiBold;
paths = (
{
closed = 1;
nodes = (
"788 265 LINE",
"712 177 OFFCURVE",
"637 136 OFFCURVE",
"550 136 CURVE SMOOTH",
"387 136 OFFCURVE",
"292 259 OFFCURVE",
"292 480 CURVE SMOOTH",
"292 688 OFFCURVE",
"411 823 OFFCURVE",
"560 823 CURVE SMOOTH",
"637 823 OFFCURVE",
"710 796 OFFCURVE",
"788 725 CURVE"
);
},
{
closed = 1;
nodes = (
"1128 1271 LINE",
"982 1271 LINE",
"982 1454 LINE",
"788 1454 LINE",
"788 1271 LINE",
"463 1271 LINE",
"463 1164 LINE",
"788 1164 LINE",
"788 1037 LINE",
"797 869 LINE",
"712 940 OFFCURVE",
"638 983 OFFCURVE",
"523 983 CURVE SMOOTH",
"298 983 OFFCURVE",
"93 787 OFFCURVE",
"93 477 CURVE SMOOTH",
"93 157 OFFCURVE",
"255 -25 OFFCURVE",
"506 -25 CURVE SMOOTH",
"622 -25 OFFCURVE",
"724 34 OFFCURVE",
"799 109 CURVE",
"805 109 LINE",
"818 0 LINE",
"982 0 LINE",
"982 1164 LINE",
"1128 1175 LINE"
);
}
);
width = 1144;
}
);
unicode = 0111;
userData = {
com.adobe.type.autohint = "ICA8aGludFNldExpc3Q+CiAgICA8aGludHNldCBw";
};
},
{
color = (255,153,153,1);
glyphname = e;
lastChange = "2015-01-16 19:45:15 +0000";
layers = (
{
anchors = (
{
name = top;
position = "{543, 1050}";
}
);
hints = (
{
horizontal = 1;
origin = "{0, 0}";
target = "{0, 0}";
type = Tag;
name = hr00;
}
);
layerId = "250EF945-70FC-4F2D-944E-2E0BA5947215";
name = SemiBold;
paths = (
{
closed = 1;
nodes = (
"90 499 CURVE SMOOTH",
"90 162 OFFCURVE",
"304 -25 OFFCURVE",
"574 -25 CURVE SMOOTH",
"707 -25 OFFCURVE",
"817 15 OFFCURVE",
"906 73 CURVE",
"840 196 LINE",
"766 149 OFFCURVE",
"689 128 OFFCURVE",
"599 128 CURVE SMOOTH",
"418 128 OFFCURVE",
"292 244 OFFCURVE",
"279 455 CURVE",
"940 455 LINE",
"944 479 OFFCURVE",
"947 515 OFFCURVE",
"947 553 CURVE SMOOTH",
"947 845 OFFCURVE",
"816 1024 OFFCURVE",
"542 1024 CURVE SMOOTH",
"298 1024 OFFCURVE",
"90 835 OFFCURVE"
);
},
{
closed = 1;
nodes = (
"277 579 LINE",
"296 772 OFFCURVE",
"407 873 OFFCURVE",
"546 873 CURVE SMOOTH",
"703 873 OFFCURVE",
"780 774 OFFCURVE",
"780 579 CURVE"
);
}
);
width = 1024;
}
);
unicode = 0065;
userData = {
com.adobe.type.autohint = "ICA8aGludFNldExpc3Q+CiAgICA8aGludHNldCBw";
com.typemytype.robofont.mark = (
1,
0.6,
0.6,
1
);
};
},
{
glyphname = eogonek;
lastChange = "2015-01-16 19:45:15 +0000";
layers = (
{
hints = (
{
horizontal = 1;
origin = "{0, 0}";
target = "{0, 0}";
type = Tag;
name = hr00;
}
);
layerId = "250EF945-70FC-4F2D-944E-2E0BA5947215";
name = SemiBold;
paths = (
{
closed = 1;
nodes = (
"90 498 CURVE SMOOTH",
"90 170 OFFCURVE",
"304 -25 OFFCURVE",
"574 -25 CURVE SMOOTH",
"604 -25 OFFCURVE",
"634 -23 OFFCURVE",
"667 -11 CURVE",
"613 -58 OFFCURVE",
"545 -145 OFFCURVE",
"545 -247 CURVE SMOOTH",
"545 -363 OFFCURVE",
"628 -423 OFFCURVE",
"734 -423 CURVE SMOOTH",
"788 -423 OFFCURVE",
"862 -398 OFFCURVE",
"903 -366 CURVE",
"857 -273 LINE",
"833 -288 OFFCURVE",
"809 -299 OFFCURVE",
"777 -299 CURVE SMOOTH",
"726 -299 OFFCURVE",
"682 -269 OFFCURVE",
"682 -207 CURVE SMOOTH",
"682 -123 OFFCURVE",
"730 -46 OFFCURVE",
"908 80 CURVE",
"841 203 LINE",
"767 157 OFFCURVE",
"689 128 OFFCURVE",
"599 128 CURVE SMOOTH",
"418 128 OFFCURVE",
"294 251 OFFCURVE",
"279 455 CURVE",
"940 455 LINE",
"944 479 OFFCURVE",
"947 511 OFFCURVE",
"947 553 CURVE SMOOTH",
"947 836 OFFCURVE",
"804 1024 OFFCURVE",
"543 1024 CURVE SMOOTH",
"312 1024 OFFCURVE",
"90 824 OFFCURVE"
);
},
{
closed = 1;
nodes = (
"277 579 LINE",
"298 768 OFFCURVE",
"417 873 OFFCURVE",
"548 873 CURVE SMOOTH",
"698 873 OFFCURVE",
"780 766 OFFCURVE",
"780 579 CURVE"
);
}
);
width = 1024;
}
);
unicode = 0119;
userData = {
com.adobe.type.autohint = "ICA8aGludFNldExpc3Q+CiAgICA8aGludHNldCBw";
};
},
{
color = (255,153,153,1);
glyphname = f;
lastChange = "2015-01-16 19:45:15 +0000";
layers = (
{
anchors = (
{
name = top;
position = "{289, 1515}";
}
);
hints = (
{
horizontal = 1;
origin = "{0, 0}";
target = "{0, 0}";
type = Tag;
name = hr01;
},
{
horizontal = 1;
origin = "{0, 7}";
target = "{0, 0}";
type = Tag;
name = hr02;
},
{
horizontal = 1;
origin = "{0, 9}";
target = "{0, 0}";
type = Tag;
name = hr03;
}
);
layerId = "250EF945-70FC-4F2D-944E-2E0BA5947215";
name = SemiBold;
paths = (
{
closed = 1;
nodes = (
"673 1445 LINE",
"628 1463 OFFCURVE",
"566 1479 OFFCURVE",
"500 1479 CURVE SMOOTH",
"288 1479 OFFCURVE",
"195 1346 OFFCURVE",
"195 1141 CURVE SMOOTH",
"195 998 LINE",
"59 988 LINE",
"59 844 LINE",
"195 844 LINE",
"195 0 LINE",
"387 0 LINE",
"387 844 LINE",
"592 844 LINE",
"592 999 LINE",
"387 999 LINE",
"387 1142 LINE",
"387 1265 OFFCURVE",
"432 1323 OFFCURVE",
"522 1323 CURVE SMOOTH",
"558 1323 OFFCURVE",
"597 1314 OFFCURVE",
"633 1299 CURVE"
);
}
);
width = 616;
}
);
unicode = 0066;
userData = {
com.adobe.type.autohint = "ICA8aGludFNldExpc3Q+CiAgICA8aGludHNldCBw";
com.typemytype.robofont.mark = (
1,
0.6,
0.6,
1
);
};
},
{
color = (255,153,153,1);
glyphname = g;
lastChange = "2015-01-16 19:45:15 +0000";
layers = (
{
anchors = (
{
name = top;
position = "{508, 1050}";
}
);
hints = (
{
horizontal = 1;
origin = "{0, 0}";
target = "{0, 0}";
type = Tag;
name = hr01;
},
{
horizontal = 1;
origin = "{1, 13}";
target = "{0, 0}";
type = Tag;
name = hr02;
},
{
horizontal = 1;
origin = "{1, 31}";
target = "{0, 0}";
type = Tag;
name = hr03;
},
{
horizontal = 1;
origin = "{1, 41}";
target = "{0, 0}";
type = Tag;
name = hr04;
},
{
horizontal = 1;
origin = "{2, 0}";
target = "{0, 0}";
type = Tag;
name = hr06;
}
);
layerId = "250EF945-70FC-4F2D-944E-2E0BA5947215";
name = SemiBold;
paths = (
{
closed = 1;
nodes = (
"256 -160 CURVE SMOOTH",
"256 -97 OFFCURVE",
"282 -32 OFFCURVE",
"348 15 CURVE",
"389 4 OFFCURVE",
"435 0 OFFCURVE",
"479 0 CURVE SMOOTH",
"639 0 LINE",
"763 0 OFFCURVE",
"832 -48 OFFCURVE",
"832 -135 CURVE SMOOTH",
"832 -234 OFFCURVE",
"719 -322 OFFCURVE",
"531 -322 CURVE SMOOTH",
"351 -322 OFFCURVE",
"256 -261 OFFCURVE"
);
},
{
closed = 1;
nodes = (
"88 -187 CURVE SMOOTH",
"88 -361 OFFCURVE",
"233 -454 OFFCURVE",
"501 -454 CURVE SMOOTH",
"830 -454 OFFCURVE",
"1018 -295 OFFCURVE",
"1018 -106 CURVE SMOOTH",
"1018 63 OFFCURVE",
"915 148 OFFCURVE",
"680 148 CURVE SMOOTH",
"475 148 LINE",
"344 148 OFFCURVE",
"303 189 OFFCURVE",
"303 250 CURVE SMOOTH",
"303 302 OFFCURVE",
"328 321 OFFCURVE",
"362 351 CURVE",
"407 330 OFFCURVE",
"456 318 OFFCURVE",
"507 318 CURVE SMOOTH",
"721 318 OFFCURVE",
"879 436 OFFCURVE",
"879 664 CURVE SMOOTH",
"879 746 OFFCURVE",
"846 815 OFFCURVE",
"804 856 CURVE",
"1001 856 LINE",
"1001 999 LINE",
"651 999 LINE",
"612 1014 OFFCURVE",
"570 1024 OFFCURVE",
"507 1024 CURVE SMOOTH",
"292 1024 OFFCURVE",
"123 902 OFFCURVE",
"123 669 CURVE SMOOTH",
"123 543 OFFCURVE",
"188 454 OFFCURVE",
"254 401 CURVE",
"254 393 LINE",
"200 356 OFFCURVE",
"145 301 OFFCURVE",
"145 219 CURVE SMOOTH",
"145 140 OFFCURVE",
"183 90 OFFCURVE",
"234 59 CURVE",
"234 51 LINE",
"142 -7 OFFCURVE",
"88 -99 OFFCURVE"
);
},
{
closed = 1;
nodes = (
"507 444 CURVE SMOOTH",
"398 444 OFFCURVE",
"308 521 OFFCURVE",
"308 669 CURVE SMOOTH",
"308 815 OFFCURVE",
"388 886 OFFCURVE",
"507 886 CURVE SMOOTH",
"625 886 OFFCURVE",
"704 815 OFFCURVE",
"704 669 CURVE SMOOTH",
"704 518 OFFCURVE",
"614 444 OFFCURVE"
);
}
);
width = 1043;
}
);
unicode = 0067;
userData = {
com.adobe.type.autohint = "ICA8aGludFNldExpc3Q+CiAgICA8aGludHNldCBw";
com.typemytype.robofont.mark = (
1,
0.6,
0.6,
1
);
};
},
{
color = (255,153,153,1);
glyphname = h;
lastChange = "2015-01-16 19:45:15 +0000";
layers = (
{
anchors = (
{
name = top;
position = "{676, 1050}";
}
);
hints = (
{
horizontal = 1;
origin = "{0, 0}";
target = "{0, 0}";
type = Tag;
name = hr00;
}
);
layerId = "250EF945-70FC-4F2D-944E-2E0BA5947215";
name = SemiBold;
paths = (
{
closed = 1;
nodes = (
"162 0 LINE",
"354 0 LINE",
"354 715 LINE",
"448 808 OFFCURVE",
"514 858 OFFCURVE",
"612 858 CURVE SMOOTH",
"738 858 OFFCURVE",
"788 788 OFFCURVE",
"788 608 CURVE SMOOTH",
"788 0 LINE",
"980 0 LINE",
"980 634 LINE",
"980 888 OFFCURVE",
"891 1024 OFFCURVE",
"675 1024 CURVE SMOOTH",
"537 1024 OFFCURVE",
"437 950 OFFCURVE",
"346 864 CURVE",
"354 1065 LINE",
"354 1454 LINE",
"162 1454 LINE"
);
}
);
width = 1124;
}
);
unicode = 0068;
userData = {
com.adobe.type.autohint = "ICA8aGludFNldExpc3Q+CiAgICA8aGludHNldCBw";
com.typemytype.robofont.mark = (
1,
0.6,
0.6,
1
);
};
},
{
glyphname = hbar;
lastChange = "2015-01-16 19:45:15 +0000";
layers = (
{
hints = (
{
horizontal = 1;
origin = "{0, 0}";
target = "{0, 0}";
type = Tag;
name = hr00;
}
);
layerId = "250EF945-70FC-4F2D-944E-2E0BA5947215";
name = SemiBold;
paths = (
{
closed = 1;
nodes = (
"354 1024 LINE",
"354 1164 LINE",
"722 1164 LINE",
"722 1271 LINE",
"354 1271 LINE",
"354 1454 LINE",
"162 1454 LINE",
"162 1271 LINE",
"12 1260 LINE",
"12 1164 LINE",
"162 1164 LINE",
"162 0 LINE",
"354 0 LINE",
"354 674 LINE",
"448 767 OFFCURVE",
"514 817 OFFCURVE",
"611 817 CURVE SMOOTH",
"734 817 OFFCURVE",
"788 744 OFFCURVE",
"788 564 CURVE SMOOTH",
"788 0 LINE",
"980 0 LINE",
"980 590 LINE",
"980 844 OFFCURVE",
"885 983 OFFCURVE",
"675 983 CURVE SMOOTH",
"537 983 OFFCURVE",
"437 909 OFFCURVE",
"346 823 CURVE"
);
}
);
width = 1124;
}
);
unicode = 0127;
userData = {
com.adobe.type.autohint = "ICA8aGludFNldExpc3Q+CiAgICA8aGludHNldCBw";
};
},
{
color = (255,153,153,1);
glyphname = i;
lastChange = "2015-01-16 19:45:15 +0000";
layers = (
{
anchors = (
{
name = top;
position = "{259, 1050}";
}
);
hints = (
{
horizontal = 1;
origin = "{0, 0}";
target = "{0, 0}";
type = Tag;
name = hr01;
},
{
horizontal = 1;
origin = "{1, 0}";
target = "{0, 0}";
type = Tag;
name = hr02;
}
);
layerId = "250EF945-70FC-4F2D-944E-2E0BA5947215";
name = SemiBold;
paths = (
{
closed = 1;
nodes = (
"259 1194 CURVE SMOOTH",
"331 1194 OFFCURVE",
"387 1242 OFFCURVE",
"387 1312 CURVE SMOOTH",
"387 1382 OFFCURVE",
"331 1428 OFFCURVE",
"259 1428 CURVE SMOOTH",
"187 1428 OFFCURVE",
"132 1382 OFFCURVE",
"132 1312 CURVE SMOOTH",
"132 1242 OFFCURVE",
"187 1194 OFFCURVE"
);
},
{
closed = 1;
nodes = (
"162 0 LINE",
"354 0 LINE",
"354 999 LINE",
"162 999 LINE"
);
}
);
width = 515;
}
);
unicode = 0069;
userData = {
com.adobe.type.autohint = "ICA8aGludFNldExpc3Q+CiAgICA8aGludHNldCBw";
com.typemytype.robofont.mark = (
1,
0.6,
0.6,
1
);
};
},
{
color = (255,153,153,1);
glyphname = dotlessi;
lastChange = "2015-01-16 19:45:15 +0000";
layers = (
{
anchors = (
{
name = top;
position = "{258, 1050}";
}
);
hints = (
{
horizontal = 1;
origin = "{0, 0}";
target = "{0, 0}";
type = Tag;
name = hr00;
}
);
layerId = "250EF945-70FC-4F2D-944E-2E0BA5947215";
name = SemiBold;
paths = (
{
closed = 1;
nodes = (
"162 0 LINE",
"354 0 LINE",
"354 999 LINE",
"162 999 LINE"
);
}
);
width = 515;
}
);
unicode = 0131;
userData = {
com.adobe.type.autohint = "ICA8aGludFNldExpc3Q+CiAgICA8aGludHNldCBw";
com.typemytype.robofont.mark = (
1,
0.6,
0.6,
1
);
};
},
{
glyphname = iogonek;
lastChange = "2015-01-16 19:45:15 +0000";
layers = (
{
hints = (
{
horizontal = 1;
origin = "{0, 0}";
target = "{0, 0}";
type = Tag;
name = hr01;
},
{
horizontal = 1;
origin = "{0, 4}";
target = "{0, 0}";
type = Tag;
name = hr02;
},
{
horizontal = 1;
origin = "{0, 10}";
target = "{0, 0}";
type = Tag;
name = hr03;
},
{
horizontal = 1;
origin = "{0, 14}";
target = "{0, 0}";
type = Tag;
name = hr04;
},
{
horizontal = 1;
origin = "{0, 20}";
target = "{0, 0}";
type = Tag;
name = hr05;
},
{
horizontal = 1;
origin = "{1, 0}";
target = "{0, 0}";
type = Tag;
name = hr06;
}
);
layerId = "250EF945-70FC-4F2D-944E-2E0BA5947215";
name = SemiBold;
paths = (
{
closed = 1;
nodes = (
"162 0 LINE",
"210 0 LINE",
"155 -54 OFFCURVE",
"79 -135 OFFCURVE",
"79 -247 CURVE SMOOTH",
"79 -363 OFFCURVE",
"164 -423 OFFCURVE",
"271 -423 CURVE SMOOTH",
"324 -423 OFFCURVE",
"398 -398 OFFCURVE",
"439 -366 CURVE",
"393 -273 LINE",
"366 -288 OFFCURVE",
"343 -299 OFFCURVE",
"313 -299 CURVE SMOOTH",
"263 -299 OFFCURVE",
"218 -269 OFFCURVE",
"218 -207 CURVE SMOOTH",
"218 -131 OFFCURVE",
"267 -56 OFFCURVE",
"354 0 CURVE",
"354 999 LINE",
"162 999 LINE"
);
},
{
closed = 1;
nodes = (
"258 1194 CURVE SMOOTH",
"327 1194 OFFCURVE",
"383 1242 OFFCURVE",
"383 1312 CURVE SMOOTH",
"383 1382 OFFCURVE",
"327 1428 OFFCURVE",
"258 1428 CURVE SMOOTH",
"185 1428 OFFCURVE",
"130 1382 OFFCURVE",
"130 1312 CURVE SMOOTH",
"130 1242 OFFCURVE",
"185 1194 OFFCURVE"
);
}
);
width = 515;
}
);
unicode = 012F;
userData = {
com.adobe.type.autohint = "ICA8aGludFNldExpc3Q+CiAgICA8aGludHNldCBw";
};
},
{
color = (255,153,153,1);
glyphname = j;
lastChange = "2015-01-16 19:45:15 +0000";
layers = (
{
anchors = (
{
name = top;
position = "{150, 1050}";
}
);
hints = (
{
horizontal = 1;
origin = "{0, 0}";
target = "{0, 0}";
type = Tag;
name = hr01;
},
{
horizontal = 1;
origin = "{1, 0}";
target = "{0, 0}";
type = Tag;
name = hr02;
}
);
layerId = "250EF945-70FC-4F2D-944E-2E0BA5947215";
name = SemiBold;
paths = (
{
closed = 1;
nodes = (
"164 -98 LINE",
"164 -216 OFFCURVE",
"138 -281 OFFCURVE",
"44 -281 CURVE SMOOTH",
"10 -281 OFFCURVE",
"-23 -274 OFFCURVE",
"-48 -266 CURVE",
"-86 -410 LINE",
"-50 -424 OFFCURVE",
"1 -436 OFFCURVE",
"67 -436 CURVE SMOOTH",
"280 -436 OFFCURVE",
"356 -302 OFFCURVE",
"356 -96 CURVE SMOOTH",
"356 999 LINE",
"164 999 LINE"
);
},
{
closed = 1;
nodes = (
"262 1194 CURVE SMOOTH",
"331 1194 OFFCURVE",
"387 1242 OFFCURVE",
"387 1312 CURVE SMOOTH",
"387 1382 OFFCURVE",
"331 1428 OFFCURVE",
"262 1428 CURVE SMOOTH",
"189 1428 OFFCURVE",
"134 1382 OFFCURVE",
"134 1312 CURVE SMOOTH",
"134 1242 OFFCURVE",
"189 1194 OFFCURVE"
);
}
);
width = 518;
}
);
unicode = 006A;
userData = {
com.adobe.type.autohint = "ICA8aGludFNldExpc3Q+CiAgICA8aGludHNldCBw";
com.typemytype.robofont.mark = (
1,
0.6,
0.6,
1
);
};
},
{
color = (255,153,153,1);
glyphname = dotlessj;
lastChange = "2015-01-16 19:45:15 +0000";
layers = (
{
anchors = (
{
name = top;
position = "{262, 1050}";
}
);
hints = (
{
horizontal = 1;
origin = "{0, 0}";
target = "{0, 0}";
type = Tag;
name = hr00;
}
);
layerId = "250EF945-70FC-4F2D-944E-2E0BA5947215";
name = SemiBold;
paths = (
{
closed = 1;
nodes = (
"164 999 LINE",
"164 -93 LINE SMOOTH",
"164 -211 OFFCURVE",
"138 -281 OFFCURVE",
"44 -281 CURVE SMOOTH",
"10 -281 OFFCURVE",
"-23 -274 OFFCURVE",
"-48 -266 CURVE",
"-86 -410 LINE",
"-50 -424 OFFCURVE",
"1 -436 OFFCURVE",
"67 -436 CURVE SMOOTH",
"280 -436 OFFCURVE",
"356 -297 OFFCURVE",
"356 -91 CURVE SMOOTH",
"356 999 LINE"
);
}
);
width = 518;
}
);
unicode = 0237;
userData = {
com.adobe.type.autohint = "ICA8aGludFNldExpc3Q+CiAgICA8aGludHNldCBw";
com.typemytype.robofont.mark = (
1,
0.6,
0.6,
1
);
};
},
{
color = (255,153,153,1);
glyphname = k;
lastChange = "2015-01-16 19:45:15 +0000";
layers = (
{
anchors = (
{
name = top;
position = "{589, 1050}";
}
);
hints = (
{
horizontal = 1;
origin = "{0, 0}";
target = "{0, 0}";
type = Tag;
name = hr00;
}
);
layerId = "250EF945-70FC-4F2D-944E-2E0BA5947215";
name = SemiBold;
paths = (
{
closed = 1;
nodes = (
"162 0 LINE",
"351 0 LINE",
"351 260 LINE",
"526 464 LINE",
"806 0 LINE",
"1016 0 LINE",
"636 596 LINE",
"974 999 LINE",
"763 999 LINE",
"357 497 LINE",
"351 497 LINE",
"351 1454 LINE",
"162 1454 LINE"
);
}
);
width = 1034;
}
);
unicode = 006B;
userData = {
com.adobe.type.autohint = "ICA8aGludFNldExpc3Q+CiAgICA8aGludHNldCBw";
com.typemytype.robofont.mark = (
1,
0.6,
0.6,
1
);
};
},
{
glyphname = kgreenlandic;
lastChange = "2015-01-16 19:45:15 +0000";
layers = (
{
hints = (
{
horizontal = 1;
origin = "{0, 0}";
target = "{0, 0}";
type = Tag;
name = hr00;
}
);
layerId = "250EF945-70FC-4F2D-944E-2E0BA5947215";
name = SemiBold;
paths = (
{
closed = 1;
nodes = (
"162 0 LINE",
"354 0 LINE",
"354 253 LINE",
"526 457 LINE",
"806 0 LINE",
"1016 0 LINE",
"642 596 LINE",
"974 999 LINE",
"763 999 LINE",
"360 492 LINE",
"354 492 LINE",
"354 999 LINE",
"162 999 LINE"
);
}
);
width = 1034;
}
);
unicode = 0138;
userData = {
com.adobe.type.autohint = "ICA8aGludFNldExpc3Q+CiAgICA8aGludHNldCBw";
};
},
{
color = (255,153,153,1);
glyphname = l;
lastChange = "2015-01-16 19:45:15 +0000";
layers = (
{
anchors = (
{
name = top;
position = "{262, 1050}";
}
);
hints = (
{
horizontal = 1;
origin = "{0, 0}";
target = "{0, 0}";
type = Tag;
name = hr01;
},
{
horizontal = 1;
origin = "{0, 3}";
target = "{0, 0}";
type = Tag;
name = hr02;
},
{
horizontal = 1;
origin = "{0, 7}";
target = "{0, 0}";
type = Tag;
name = hr03;
}
);
layerId = "250EF945-70FC-4F2D-944E-2E0BA5947215";
name = SemiBold;
paths = (
{
closed = 1;
nodes = (
"162 222 LINE",
"162 65 OFFCURVE",
"216 -25 OFFCURVE",
"358 -25 CURVE SMOOTH",
"407 -25 OFFCURVE",
"440 -17 OFFCURVE",
"464 -7 CURVE",
"439 138 LINE",
"421 134 OFFCURVE",
"413 134 OFFCURVE",
"402 134 CURVE SMOOTH",
"377 134 OFFCURVE",
"354 154 OFFCURVE",
"354 209 CURVE SMOOTH",
"354 1454 LINE",
"162 1454 LINE"
);
}
);
width = 534;
}
);
unicode = 006C;
userData = {
com.adobe.type.autohint = "ICA8aGludFNldExpc3Q+CiAgICA8aGludHNldCBw";
com.typemytype.robofont.mark = (
1,
0.6,
0.6,
1
);
};
},
{
glyphname = lslash;
lastChange = "2015-01-16 19:45:15 +0000";
layers = (
{
hints = (
{
horizontal = 1;
origin = "{0, 0}";
target = "{0, 0}";
type = Tag;
name = hr01;
},
{
horizontal = 1;
origin = "{0, 12}";
target = "{0, 0}";
type = Tag;
name = hr02;
},
{
horizontal = 1;
origin = "{0, 16}";
target = "{0, 0}";
type = Tag;
name = hr03;
}
);
layerId = "250EF945-70FC-4F2D-944E-2E0BA5947215";
name = SemiBold;
paths = (
{
closed = 1;
nodes = (
"507 846 LINE",
"507 1007 LINE",
"366 918 LINE",
"366 1454 LINE",
"172 1454 LINE",
"172 818 LINE",
"44 738 LINE",
"44 577 LINE",
"172 657 LINE",
"172 222 LINE",
"172 65 OFFCURVE",
"228 -25 OFFCURVE",
"368 -25 CURVE SMOOTH",
"417 -25 OFFCURVE",
"450 -17 OFFCURVE",
"477 -7 CURVE",
"451 138 LINE",
"432 134 OFFCURVE",
"423 134 OFFCURVE",
"414 134 CURVE SMOOTH",
"390 134 OFFCURVE",
"366 154 OFFCURVE",
"366 209 CURVE SMOOTH",
"366 757 LINE"
);
}
);
width = 552;
}
);
unicode = 0142;
userData = {
com.adobe.type.autohint = "ICA8aGludFNldExpc3Q+CiAgICA8aGludHNldCBw";
};
},
{
color = (255,153,153,1);
glyphname = m;
lastChange = "2015-01-16 19:45:15 +0000";
layers = (
{
anchors = (
{
name = top;
position = "{860, 1050}";
}
);
hints = (
{
horizontal = 1;
origin = "{0, 0}";
target = "{0, 0}";
type = Tag;
name = hr01;
},
{
horizontal = 1;
origin = "{0, 34}";
target = "{0, 0}";
type = Tag;
name = hr02;
}
);
layerId = "250EF945-70FC-4F2D-944E-2E0BA5947215";
name = SemiBold;
paths = (
{
closed = 1;
nodes = (
"162 0 LINE",
"354 0 LINE",
"354 715 LINE",
"441 810 OFFCURVE",
"520 858 OFFCURVE",
"590 858 CURVE SMOOTH",
"717 858 OFFCURVE",
"764 791 OFFCURVE",
"764 611 CURVE SMOOTH",
"764 0 LINE",
"957 0 LINE",
"957 719 LINE",
"1044 814 OFFCURVE",
"1120 858 OFFCURVE",
"1193 858 CURVE SMOOTH",
"1319 858 OFFCURVE",
"1366 789 OFFCURVE",
"1366 609 CURVE SMOOTH",
"1366 0 LINE",
"1558 0 LINE",
"1558 635 LINE",
"1558 889 OFFCURVE",
"1469 1024 OFFCURVE",
"1253 1024 CURVE SMOOTH",
"1129 1024 OFFCURVE",
"1029 950 OFFCURVE",
"926 841 CURVE",
"885 961 OFFCURVE",
"810 1024 OFFCURVE",
"653 1024 CURVE SMOOTH",
"531 1024 OFFCURVE",
"428 950 OFFCURVE",
"343 858 CURVE",
"336 858 LINE",
"320 999 LINE",
"162 999 LINE"
);
}
);
width = 1708;
}
);
unicode = 006D;
userData = {
com.adobe.type.autohint = "ICA8aGludFNldExpc3Q+CiAgICA8aGludHNldCBw";
com.typemytype.robofont.mark = (
1,
0.6,
0.6,
1
);
};
},
{
color = (255,153,153,1);
glyphname = n;
lastChange = "2015-01-16 19:45:15 +0000";
layers = (
{
anchors = (
{
name = top;
position = "{575, 1050}";
}
);
hints = (
{
horizontal = 1;
origin = "{0, 0}";
target = "{0, 0}";
type = Tag;
name = hr01;
},
{
horizontal = 1;
origin = "{0, 19}";
target = "{0, 0}";
type = Tag;
name = hr02;
}
);
layerId = "250EF945-70FC-4F2D-944E-2E0BA5947215";
name = SemiBold;
paths = (
{
closed = 1;
nodes = (
"162 0 LINE",
"354 0 LINE",
"354 715 LINE",
"448 808 OFFCURVE",
"514 858 OFFCURVE",
"611 858 CURVE SMOOTH",
"742 858 OFFCURVE",
"788 789 OFFCURVE",
"788 609 CURVE SMOOTH",
"788 0 LINE",
"980 0 LINE",
"980 635 LINE",
"980 889 OFFCURVE",
"894 1024 OFFCURVE",
"675 1024 CURVE SMOOTH",
"537 1024 OFFCURVE",
"435 950 OFFCURVE",
"343 858 CURVE",
"336 858 LINE",
"320 999 LINE",
"162 999 LINE"
);
}
);
width = 1129;
}
);
unicode = 006E;
userData = {
com.adobe.type.autohint = "ICA8aGludFNldExpc3Q+CiAgICA8aGludHNldCBw";
com.typemytype.robofont.mark = (
1,
0.6,
0.6,
1
);
};
},
{
color = (255,153,153,1);
glyphname = o;
lastChange = "2015-01-16 19:45:15 +0000";
layers = (
{
anchors = (
{
name = top;
position = "{558, 1050}";
}
);
hints = (
{
horizontal = 1;
origin = "{0, 0}";
target = "{0, 0}";
type = Tag;
name = hr00;
}
);
layerId = "250EF945-70FC-4F2D-944E-2E0BA5947215";
name = SemiBold;
paths = (
{
closed = 1;
nodes = (
"91 500 CURVE SMOOTH",
"91 163 OFFCURVE",
"304 -25 OFFCURVE",
"557 -25 CURVE SMOOTH",
"809 -25 OFFCURVE",
"1025 163 OFFCURVE",
"1025 500 CURVE SMOOTH",
"1025 840 OFFCURVE",
"809 1024 OFFCURVE",
"557 1024 CURVE SMOOTH",
"304 1024 OFFCURVE",
"91 840 OFFCURVE"
);
},
{
closed = 1;
nodes = (
"290 500 CURVE SMOOTH",
"290 723 OFFCURVE",
"391 866 OFFCURVE",
"557 866 CURVE SMOOTH",
"725 866 OFFCURVE",
"826 723 OFFCURVE",
"826 500 CURVE SMOOTH",
"826 277 OFFCURVE",
"725 134 OFFCURVE",
"557 134 CURVE SMOOTH",
"391 134 OFFCURVE",
"290 277 OFFCURVE"
);
}
);
width = 1115;
}
);
unicode = 006F;
userData = {
com.adobe.type.autohint = "ICA8aGludFNldExpc3Q+CiAgICA8aGludHNldCBw";
com.typemytype.robofont.mark = (
1,
0.6,
0.6,
1
);
};
},
{
glyphname = ohorn;
lastChange = "2015-01-16 19:45:15 +0000";
layers = (
{
hints = (
{
horizontal = 1;
origin = "{0, 0}";
target = "{0, 0}";
type = Tag;
name = hr01;
},
{
horizontal = 1;
origin = "{1, 0}";
target = "{0, 0}";
type = Tag;
name = hr02;
},
{
horizontal = 1;
origin = "{1, 18}";
target = "{0, 0}";
type = Tag;
name = hr03;
},
{
horizontal = 1;
origin = "{1, 24}";
target = "{0, 0}";
type = Tag;
name = hr04;
}
);
layerId = "250EF945-70FC-4F2D-944E-2E0BA5947215";
name = SemiBold;
paths = (
{
closed = 1;
nodes = (
"558 134 CURVE SMOOTH",
"396 134 OFFCURVE",
"289 280 OFFCURVE",
"289 498 CURVE SMOOTH",
"289 717 OFFCURVE",
"396 866 OFFCURVE",
"558 866 CURVE SMOOTH",
"721 866 OFFCURVE",
"826 717 OFFCURVE",
"826 498 CURVE SMOOTH",
"826 280 OFFCURVE",
"721 134 OFFCURVE"
);
},
{
closed = 1;
nodes = (
"864 1200 LINE",
"882 1174 OFFCURVE",
"895 1144 OFFCURVE",
"895 1112 CURVE SMOOTH",
"895 1036 OFFCURVE",
"841 997 OFFCURVE",
"751 981 CURVE",
"691 1010 OFFCURVE",
"626 1024 OFFCURVE",
"558 1024 CURVE SMOOTH",
"311 1024 OFFCURVE",
"90 832 OFFCURVE",
"90 498 CURVE SMOOTH",
"90 167 OFFCURVE",
"311 -25 OFFCURVE",
"558 -25 CURVE SMOOTH",
"804 -25 OFFCURVE",
"1025 167 OFFCURVE",
"1025 498 CURVE SMOOTH",
"1025 680 OFFCURVE",
"958 819 OFFCURVE",
"860 909 CURVE",
"962 939 OFFCURVE",
"1051 1001 OFFCURVE",
"1051 1126 CURVE SMOOTH",
"1051 1181 OFFCURVE",
"1030 1228 OFFCURVE",
"1002 1265 CURVE"
);
}
);
width = 1115;
}
);
unicode = 01A1;
userData = {
com.adobe.type.autohint = "ICA8aGludFNldExpc3Q+CiAgICA8aGludHNldCBw";
};
},
{
glyphname = oslash;
lastChange = "2015-01-16 19:45:15 +0000";
layers = (
{
hints = (
{
horizontal = 1;
origin = "{0, 0}";
target = "{0, 0}";
type = Tag;
name = hr00;
}
);
layerId = "250EF945-70FC-4F2D-944E-2E0BA5947215";
name = SemiBold;
paths = (
{
closed = 1;
nodes = (
"793 706 LINE",
"822 647 OFFCURVE",
"836 575 OFFCURVE",
"836 490 CURVE SMOOTH",
"836 275 OFFCURVE",
"721 129 OFFCURVE",
"558 129 CURVE SMOOTH",
"489 129 OFFCURVE",
"428 154 OFFCURVE",
"381 201 CURVE"
);
},
{
closed = 1;
nodes = (
"320 293 LINE",
"293 351 OFFCURVE",
"279 423 OFFCURVE",
"279 508 CURVE SMOOTH",
"279 723 OFFCURVE",
"396 871 OFFCURVE",
"558 871 CURVE SMOOTH",
"628 871 OFFCURVE",
"688 845 OFFCURVE",
"734 797 CURVE"
);
},
{
closed = 1;
nodes = (
"1021 983 LINE",
"940 1047 LINE",
"840 926 LINE",
"760 990 OFFCURVE",
"660 1024 OFFCURVE",
"558 1024 CURVE SMOOTH",
"311 1024 OFFCURVE",
"90 832 OFFCURVE",
"90 498 CURVE SMOOTH",
"90 352 OFFCURVE",
"134 235 OFFCURVE",
"202 147 CURVE",
"94 16 LINE",
"177 -48 LINE",
"275 73 LINE",
"355 9 OFFCURVE",
"455 -25 OFFCURVE",
"558 -25 CURVE SMOOTH",
"804 -25 OFFCURVE",
"1025 167 OFFCURVE",
"1025 498 CURVE SMOOTH",
"1025 645 OFFCURVE",
"981 764 OFFCURVE",
"913 853 CURVE"
);
}
);
width = 1115;
}
);
unicode = 00F8;
userData = {
com.adobe.type.autohint = "ICA8aGludFNldExpc3Q+CiAgICA8aGludHNldCBw";
};
},
{
color = (255,153,153,1);
glyphname = oe;
lastChange = "2015-01-16 19:45:15 +0000";
layers = (
{
anchors = (
{
name = top;
position = "{862, 1050}";
}
);
hints = (
{
horizontal = 1;
origin = "{0, 0}";
target = "{0, 0}";
type = Tag;
name = hr01;
},
{
horizontal = 1;
origin = "{1, 13}";
target = "{0, 0}";
type = Tag;
name = hr02;
},
{
horizontal = 1;
origin = "{2, 3}";
target = "{0, 0}";
type = Tag;
name = hr04;
}
);
layerId = "250EF945-70FC-4F2D-944E-2E0BA5947215";
name = SemiBold;
paths = (
{
closed = 1;
nodes = (
"287 498 CURVE SMOOTH",
"287 717 OFFCURVE",
"392 866 OFFCURVE",
"546 866 CURVE SMOOTH",
"701 866 OFFCURVE",
"806 717 OFFCURVE",
"806 498 CURVE SMOOTH",
"806 280 OFFCURVE",
"701 134 OFFCURVE",
"546 134 CURVE SMOOTH",
"392 134 OFFCURVE",
"287 280 OFFCURVE"
);
},
{
closed = 1;
nodes = (
"90 498 CURVE SMOOTH",
"90 167 OFFCURVE",
"298 -25 OFFCURVE",
"542 -25 CURVE SMOOTH",
"703 -25 OFFCURVE",
"824 55 OFFCURVE",
"903 210 CURVE",
"980 65 OFFCURVE",
"1113 -25 OFFCURVE",
"1263 -25 CURVE SMOOTH",
"1395 -25 OFFCURVE",
"1507 22 OFFCURVE",
"1597 80 CURVE",
"1527 211 LINE",
"1453 164 OFFCURVE",
"1378 131 OFFCURVE",
"1286 131 CURVE SMOOTH",
"1125 131 OFFCURVE",
"997 255 OFFCURVE",
"986 450 CURVE",
"1627 450 LINE",
"1632 474 OFFCURVE",
"1635 510 OFFCURVE",
"1635 550 CURVE SMOOTH",
"1635 834 OFFCURVE",
"1496 1024 OFFCURVE",
"1246 1024 CURVE SMOOTH",
"1105 1024 OFFCURVE",
"978 935 OFFCURVE",
"901 787 CURVE",
"829 940 OFFCURVE",
"696 1024 OFFCURVE",
"546 1024 CURVE SMOOTH",
"302 1024 OFFCURVE",
"90 832 OFFCURVE"
);
},
{
closed = 1;
nodes = (
"986 575 LINE",
"1004 761 OFFCURVE",
"1111 873 OFFCURVE",
"1241 873 CURVE SMOOTH",
"1385 873 OFFCURVE",
"1467 765 OFFCURVE",
"1467 575 CURVE"
);
}
);
width = 1712;
}
);
unicode = 0153;
userData = {
com.adobe.type.autohint = "ICA8aGludFNldExpc3Q+CiAgICA8aGludHNldCBw";
com.typemytype.robofont.mark = (
1,
0.6,
0.6,
1
);
};
},
{
color = (255,153,153,1);
glyphname = p;
lastChange = "2015-01-16 19:45:15 +0000";
layers = (
{
anchors = (
{
name = top;
position = "{646, 1050}";
}
);
hints = (
{
horizontal = 1;
origin = "{0, 0}";
target = "{0, 0}";
type = Tag;
name = hr01;
},
{
horizontal = 1;
origin = "{0, 14}";
target = "{0, 0}";
type = Tag;
name = hr02;
},
{
horizontal = 1;
origin = "{1, 4}";
target = "{0, 0}";
type = Tag;
name = hr03;
}
);
layerId = "250EF945-70FC-4F2D-944E-2E0BA5947215";
name = SemiBold;
paths = (
{
closed = 1;
nodes = (
"349 89 LINE",
"437 17 OFFCURVE",
"523 -25 OFFCURVE",
"618 -25 CURVE SMOOTH",
"849 -25 OFFCURVE",
"1048 166 OFFCURVE",
"1048 513 CURVE SMOOTH",
"1048 829 OFFCURVE",
"914 1024 OFFCURVE",
"654 1024 CURVE SMOOTH",
"536 1024 OFFCURVE",
"431 962 OFFCURVE",
"343 887 CURVE",
"336 887 LINE",
"320 999 LINE",
"162 999 LINE",
"162 -412 LINE",
"354 -412 LINE",
"354 -83 LINE"
);
},
{
closed = 1;
nodes = (
"354 233 CURVE",
"354 735 LINE",
"445 819 OFFCURVE",
"520 864 OFFCURVE",
"601 864 CURVE SMOOTH",
"783 864 OFFCURVE",
"849 730 OFFCURVE",
"849 512 CURVE SMOOTH",
"849 269 OFFCURVE",
"737 136 OFFCURVE",
"580 136 CURVE SMOOTH",
"516 136 OFFCURVE",
"437 162 OFFCURVE"
);
}
);
width = 1144;
}
);
unicode = 0070;
userData = {
com.adobe.type.autohint = "ICA8aGludFNldExpc3Q+CiAgICA8aGludHNldCBw";
com.typemytype.robofont.mark = (
1,
0.6,
0.6,
1
);
};
},
{
color = (255,153,153,1);
glyphname = thorn;
lastChange = "2015-01-16 19:45:15 +0000";
layers = (
{
anchors = (
{
name = top;
position = "{605, 1050}";
}
);
hints = (
{
horizontal = 1;
origin = "{0, 0}";
target = "{0, 0}";
type = Tag;
name = hr00;
}
);
layerId = "250EF945-70FC-4F2D-944E-2E0BA5947215";
name = SemiBold;
paths = (
{
closed = 1;
nodes = (
"354 -83 LINE",
"351 83 LINE",
"437 15 OFFCURVE",
"522 -25 OFFCURVE",
"619 -25 CURVE SMOOTH",
"845 -25 OFFCURVE",
"1048 174 OFFCURVE",
"1048 514 CURVE SMOOTH",
"1048 824 OFFCURVE",
"906 1024 OFFCURVE",
"645 1024 CURVE SMOOTH",
"539 1024 OFFCURVE",
"436 968 OFFCURVE",
"351 900 CURVE",
"354 1065 LINE",
"354 1454 LINE",
"162 1454 LINE",
"162 -412 LINE",
"354 -412 LINE"
);
},
{
closed = 1;
nodes = (
"354 233 CURVE",
"354 735 LINE",
"445 819 OFFCURVE",
"523 864 OFFCURVE",
"603 864 CURVE SMOOTH",
"780 864 OFFCURVE",
"849 726 OFFCURVE",
"849 513 CURVE SMOOTH",
"849 274 OFFCURVE",
"735 136 OFFCURVE",
"583 136 CURVE SMOOTH",
"520 136 OFFCURVE",
"437 162 OFFCURVE"
);
}
);
width = 1144;
}
);
unicode = 00FE;
userData = {
com.adobe.type.autohint = "ICA8aGludFNldExpc3Q+CiAgICA8aGludHNldCBw";
com.typemytype.robofont.mark = (
1,
0.6,
0.6,
1
);
};
},
{
color = (255,153,153,1);
glyphname = q;
lastChange = "2015-01-16 19:45:15 +0000";
layers = (
{
anchors = (
{
name = top;
position = "{537, 1050}";
}
);
hints = (
{
horizontal = 1;
origin = "{0, 0}";
target = "{0, 0}";
type = Tag;
name = hr01;
},
{
horizontal = 1;
origin = "{0, 10}";
target = "{0, 0}";
type = Tag;
name = hr02;
},
{
horizontal = 1;
origin = "{0, 16}";
target = "{0, 0}";
type = Tag;
name = hr03;
}
);
layerId = "250EF945-70FC-4F2D-944E-2E0BA5947215";
name = SemiBold;
paths = (
{
closed = 1;
nodes = (
"93 497 CURVE SMOOTH",
"93 156 OFFCURVE",
"249 -25 OFFCURVE",
"507 -25 CURVE SMOOTH",
"621 -25 OFFCURVE",
"719 34 OFFCURVE",
"797 107 CURVE",
"788 -66 LINE",
"788 -412 LINE",
"982 -412 LINE",
"982 999 LINE",
"829 999 LINE",
"810 904 LINE",
"805 904 LINE",
"717 983 OFFCURVE",
"642 1024 OFFCURVE",
"525 1024 CURVE SMOOTH",
"294 1024 OFFCURVE",
"93 829 OFFCURVE"
);
},
{
closed = 1;
nodes = (
"292 499 CURVE SMOOTH",
"292 725 OFFCURVE",
"409 864 OFFCURVE",
"562 864 CURVE SMOOTH",
"642 864 OFFCURVE",
"710 837 OFFCURVE",
"788 766 CURVE",
"788 265 LINE",
"712 177 OFFCURVE",
"642 136 OFFCURVE",
"553 136 CURVE SMOOTH",
"383 136 OFFCURVE",
"292 261 OFFCURVE"
);
}
);
width = 1134;
}
);
unicode = 0071;
userData = {
com.adobe.type.autohint = "ICA8aGludFNldExpc3Q+CiAgICA8aGludHNldCBw";
com.typemytype.robofont.mark = (
1,
0.6,
0.6,
1
);
};
},
{
color = (255,153,153,1);
glyphname = r;
lastChange = "2015-01-16 19:45:15 +0000";
layers = (
{
anchors = (
{
name = top;
position = "{428, 1050}";
}
);
hints = (
{
horizontal = 1;
origin = "{0, 0}";
target = "{0, 0}";
type = Tag;
name = hr01;
},
{
horizontal = 1;
origin = "{0, 9}";
target = "{0, 0}";
type = Tag;
name = hr02;
},
{
horizontal = 1;
origin = "{0, 12}";
target = "{0, 0}";
type = Tag;
name = hr03;
},
{
horizontal = 1;
origin = "{0, 17}";
target = "{0, 0}";
type = Tag;
name = hr04;
}
);
layerId = "250EF945-70FC-4F2D-944E-2E0BA5947215";
name = SemiBold;
paths = (
{
closed = 1;
nodes = (
"162 0 LINE",
"354 0 LINE",
"354 630 LINE",
"418 792 OFFCURVE",
"518 851 OFFCURVE",
"601 851 CURVE SMOOTH",
"642 851 OFFCURVE",
"666 845 OFFCURVE",
"699 835 CURVE",
"735 1003 LINE",
"703 1017 OFFCURVE",
"672 1024 OFFCURVE",
"626 1024 CURVE SMOOTH",
"515 1024 OFFCURVE",
"411 946 OFFCURVE",
"343 819 CURVE",
"336 819 LINE",
"320 999 LINE",
"162 999 LINE"
);
}
);
width = 730;
}
);
unicode = 0072;
userData = {
com.adobe.type.autohint = "ICA8aGludFNldExpc3Q+CiAgICA8aGludHNldCBw";
com.typemytype.robofont.mark = (
1,
0.6,
0.6,
1
);
};
},
{
color = (255,153,153,1);
glyphname = s;
lastChange = "2015-01-16 19:45:15 +0000";
layers = (
{
anchors = (
{
name = top;
position = "{452, 1050}";
}
);
hints = (
{
horizontal = 1;
origin = "{0, 0}";
target = "{0, 0}";
type = Tag;
name = hr00;
}
);
layerId = "250EF945-70FC-4F2D-944E-2E0BA5947215";
name = SemiBold;
paths = (
{
closed = 1;
nodes = (
"59 114 LINE",
"155 35 OFFCURVE",
"289 -25 OFFCURVE",
"429 -25 CURVE SMOOTH",
"672 -25 OFFCURVE",
"803 109 OFFCURVE",
"803 274 CURVE SMOOTH",
"803 463 OFFCURVE",
"646 528 OFFCURVE",
"505 579 CURVE SMOOTH",
"394 622 OFFCURVE",
"288 664 OFFCURVE",
"288 752 CURVE SMOOTH",
"288 824 OFFCURVE",
"341 876 OFFCURVE",
"458 876 CURVE SMOOTH",
"547 876 OFFCURVE",
"614 843 OFFCURVE",
"683 791 CURVE",
"773 911 LINE",
"695 974 OFFCURVE",
"585 1024 OFFCURVE",
"455 1024 CURVE SMOOTH",
"236 1024 OFFCURVE",
"104 902 OFFCURVE",
"104 737 CURVE SMOOTH",
"104 569 OFFCURVE",
"258 494 OFFCURVE",
"395 444 CURVE SMOOTH",
"504 403 OFFCURVE",
"620 359 OFFCURVE",
"620 263 CURVE SMOOTH",
"620 183 OFFCURVE",
"560 123 OFFCURVE",
"435 123 CURVE SMOOTH",
"322 123 OFFCURVE",
"239 171 OFFCURVE",
"152 240 CURVE"
);
}
);
width = 867;
}
);
unicode = 0073;
userData = {
com.adobe.type.autohint = "ICA8aGludFNldExpc3Q+CiAgICA8aGludHNldCBw";
com.typemytype.robofont.mark = (
1,
0.6,
0.6,
1
);
};
},
{
color = (255,153,153,1);
glyphname = germandbls;
lastChange = "2015-01-16 19:45:15 +0000";
layers = (
{
anchors = (
{
name = top;
position = "{652, 1050}";
}
);
hints = (
{
horizontal = 1;
origin = "{0, 0}";
target = "{0, 0}";
type = Tag;
name = hr01;
},
{
horizontal = 1;
origin = "{0, 14}";
target = "{0, 0}";
type = Tag;
name = hr02;
},
{
horizontal = 1;
origin = "{0, 36}";
target = "{0, 0}";
type = Tag;
name = hr03;
}
);
layerId = "250EF945-70FC-4F2D-944E-2E0BA5947215";
name = SemiBold;
paths = (
{
closed = 1;
nodes = (
"162 0 LINE",
"353 0 LINE",
"353 1013 LINE",
"353 1214 OFFCURVE",
"435 1319 OFFCURVE",
"576 1319 CURVE SMOOTH",
"684 1319 OFFCURVE",
"739 1246 OFFCURVE",
"739 1148 CURVE SMOOTH",
"739 980 OFFCURVE",
"566 920 OFFCURVE",
"566 740 CURVE SMOOTH",
"566 458 OFFCURVE",
"962 498 OFFCURVE",
"962 275 CURVE SMOOTH",
"962 194 OFFCURVE",
"905 123 OFFCURVE",
"800 123 CURVE SMOOTH",
"725 123 OFFCURVE",
"658 151 OFFCURVE",
"587 209 CURVE",
"513 75 LINE",
"600 13 OFFCURVE",
"691 -25 OFFCURVE",
"806 -25 CURVE SMOOTH",
"1016 -25 OFFCURVE",
"1142 112 OFFCURVE",
"1142 286 CURVE SMOOTH",
"1142 615 OFFCURVE",
"747 576 OFFCURVE",
"747 764 CURVE SMOOTH",
"747 898 OFFCURVE",
"928 965 OFFCURVE",
"928 1168 CURVE SMOOTH",
"928 1332 OFFCURVE",
"805 1475 OFFCURVE",
"578 1475 CURVE SMOOTH",
"309 1475 OFFCURVE",
"162 1302 OFFCURVE",
"162 1044 CURVE SMOOTH"
);
}
);
width = 1201;
}
);
unicode = 00DF;
userData = {
com.adobe.type.autohint = "ICA8aGludFNldExpc3Q+CiAgICA8aGludHNldCBw";
com.typemytype.robofont.mark = (
1,
0.6,
0.6,
1
);
};
},
{
glyphname = uni0259;
lastChange = "2015-01-16 19:45:15 +0000";
layers = (
{
hints = (
{
horizontal = 1;
origin = "{0, 0}";
target = "{0, 0}";
type = Tag;
name = hr00;
}
);
layerId = "250EF945-70FC-4F2D-944E-2E0BA5947215";
name = SemiBold;
paths = (
{
closed = 1;
nodes = (
"76 457 CURVE SMOOTH",
"76 163 OFFCURVE",
"233 -25 OFFCURVE",
"491 -25 CURVE SMOOTH",
"735 -25 OFFCURVE",
"934 175 OFFCURVE",
"934 501 CURVE SMOOTH",
"934 829 OFFCURVE",
"742 1024 OFFCURVE",
"488 1024 CURVE SMOOTH",
"352 1024 OFFCURVE",
"234 979 OFFCURVE",
"139 914 CURVE",
"207 790 LINE",
"282 840 OFFCURVE",
"361 873 OFFCURVE",
"458 873 CURVE SMOOTH",
"628 873 OFFCURVE",
"730 750 OFFCURVE",
"743 557 CURVE",
"84 557 LINE",
"80 532 OFFCURVE",
"76 497 OFFCURVE"
);
},
{
closed = 1;
nodes = (
"245 431 CURVE",
"745 431 LINE",
"726 234 OFFCURVE",
"631 128 OFFCURVE",
"487 128 CURVE SMOOTH",
"336 128 OFFCURVE",
"245 229 OFFCURVE"
);
}
);
width = 1024;
}
);
unicode = 0259;
userData = {
com.adobe.type.autohint = "ICA8aGludFNldExpc3Q+CiAgICA8aGludHNldCBw";
};
},
{
color = (255,153,153,1);
glyphname = t;
lastChange = "2015-01-16 19:45:15 +0000";
layers = (
{
anchors = (
{
name = top;
position = "{292, 1276}";
}
);
hints = (
{
horizontal = 1;
origin = "{0, 0}";
target = "{0, 0}";
type = Tag;
name = hr00;
}
);
layerId = "250EF945-70FC-4F2D-944E-2E0BA5947215";
name = SemiBold;
paths = (
{
closed = 1;
nodes = (
"193 318 LINE",
"193 115 OFFCURVE",
"269 -25 OFFCURVE",
"489 -25 CURVE SMOOTH",
"558 -25 OFFCURVE",
"626 -6 OFFCURVE",
"681 12 CURVE",
"646 156 LINE",
"614 144 OFFCURVE",
"570 131 OFFCURVE",
"536 131 CURVE SMOOTH",
"428 131 OFFCURVE",
"387 196 OFFCURVE",
"387 317 CURVE SMOOTH",
"387 844 LINE",
"650 844 LINE",
"650 999 LINE",
"387 999 LINE",
"387 1276 LINE",
"225 1276 LINE",
"202 999 LINE",
"46 988 LINE",
"46 844 LINE",
"193 844 LINE"
);
}
);
width = 709;
}
);
unicode = 0074;
userData = {
com.adobe.type.autohint = "ICA8aGludFNldExpc3Q+CiAgICA8aGludHNldCBw";
com.typemytype.robofont.mark = (
1,
0.6,
0.6,
1
);
};
},
{
color = (255,153,153,1);
glyphname = u;
lastChange = "2015-01-16 19:45:15 +0000";
layers = (
{
anchors = (
{
name = top;
position = "{539, 1050}";
}
);
hints = (
{
horizontal = 1;
origin = "{0, 0}";
target = "{0, 0}";
type = Tag;
name = hr01;
},
{
horizontal = 1;
origin = "{0, 8}";
target = "{0, 0}";
type = Tag;
name = hr02;
},
{
horizontal = 1;
origin = "{0, 15}";
target = "{0, 0}";
type = Tag;
name = hr03;
}
);
layerId = "250EF945-70FC-4F2D-944E-2E0BA5947215";
name = SemiBold;
paths = (
{
closed = 1;
nodes = (
"148 365 LINE",
"148 111 OFFCURVE",
"234 -25 OFFCURVE",
"455 -25 CURVE SMOOTH",
"601 -25 OFFCURVE",
"690 46 OFFCURVE",
"781 153 CURVE",
"788 153 LINE",
"803 0 LINE",
"962 0 LINE",
"962 999 LINE",
"769 999 LINE",
"769 299 LINE",
"682 189 OFFCURVE",
"623 141 OFFCURVE",
"518 141 CURVE SMOOTH",
"386 141 OFFCURVE",
"342 212 OFFCURVE",
"342 391 CURVE SMOOTH",
"342 999 LINE",
"148 999 LINE"
);
}
);
width = 1123;
}
);
unicode = 0075;
userData = {
com.adobe.type.autohint = "ICA8aGludFNldExpc3Q+CiAgICA8aGludHNldCBw";
com.typemytype.robofont.mark = (
1,
0.6,
0.6,
1
);
};
},
{
glyphname = uhorn;
lastChange = "2015-01-16 19:45:15 +0000";
layers = (
{
hints = (
{
horizontal = 1;
origin = "{0, 0}";
target = "{0, 0}";
type = Tag;
name = hr01;
},
{
horizontal = 1;
origin = "{0, 25}";
target = "{0, 0}";
type = Tag;
name = hr02;
}
);
layerId = "250EF945-70FC-4F2D-944E-2E0BA5947215";
name = SemiBold;
paths = (
{
closed = 1;
nodes = (
"964 1221 LINE",
"980 1194 OFFCURVE",
"993 1164 OFFCURVE",
"993 1132 CURVE SMOOTH",
"993 1038 OFFCURVE",
"915 1009 OFFCURVE",
"822 999 CURVE",
"769 999 LINE",
"769 299 LINE",
"682 189 OFFCURVE",
"615 141 OFFCURVE",
"518 141 CURVE SMOOTH",
"394 141 OFFCURVE",
"342 215 OFFCURVE",
"342 394 CURVE SMOOTH",
"342 999 LINE",
"148 999 LINE",
"148 369 LINE",
"148 115 OFFCURVE",
"242 -25 OFFCURVE",
"455 -25 CURVE SMOOTH",
"593 -25 OFFCURVE",
"690 46 OFFCURVE",
"781 153 CURVE",
"788 153 LINE",
"803 0 LINE",
"962 0 LINE",
"962 931 LINE",
"1057 958 OFFCURVE",
"1150 1021 OFFCURVE",
"1150 1147 CURVE SMOOTH",
"1150 1201 OFFCURVE",
"1127 1248 OFFCURVE",
"1100 1285 CURVE"
);
}
);
width = 1123;
}
);
unicode = 01B0;
userData = {
com.adobe.type.autohint = "ICA8aGludFNldExpc3Q+CiAgICA8aGludHNldCBw";
};
},
{
glyphname = uni015F;
lastChange = "2015-01-16 19:45:15 +0000";
layers = (
{
hints = (
{
horizontal = 1;
origin = "{0, 0}";
target = "{0, 0}";
type = Tag;
name = hr01;
},
{
horizontal = 1;
origin = "{0, 15}";
target = "{0, 0}";
type = Tag;
name = hr02;
},
{
horizontal = 1;
origin = "{0, 26}";
target = "{0, 0}";
type = Tag;
name = hr03;
},
{
horizontal = 1;
origin = "{0, 40}";
target = "{0, 0}";
type = Tag;
name = hr04;
}
);
layerId = "250EF945-70FC-4F2D-944E-2E0BA5947215";
name = SemiBold;
paths = (
{
closed = 1;
nodes = (
"773 908 LINE",
"695 970 OFFCURVE",
"585 1024 OFFCURVE",
"455 1024 CURVE SMOOTH",
"236 1024 OFFCURVE",
"104 900 OFFCURVE",
"104 734 CURVE SMOOTH",
"104 566 OFFCURVE",
"258 496 OFFCURVE",
"395 446 CURVE SMOOTH",
"504 405 OFFCURVE",
"620 363 OFFCURVE",
"620 266 CURVE SMOOTH",
"620 186 OFFCURVE",
"559 123 OFFCURVE",
"435 123 CURVE SMOOTH",
"322 123 OFFCURVE",
"235 171 OFFCURVE",
"148 240 CURVE",
"54 114 LINE",
"143 39 OFFCURVE",
"268 -15 OFFCURVE",
"397 -25 CURVE",
"332 -154 LINE",
"418 -175 OFFCURVE",
"461 -202 OFFCURVE",
"461 -252 CURVE SMOOTH",
"461 -306 OFFCURVE",
"386 -335 OFFCURVE",
"281 -348 CURVE",
"299 -439 LINE",
"460 -426 OFFCURVE",
"606 -370 OFFCURVE",
"606 -247 CURVE SMOOTH",
"606 -163 OFFCURVE",
"553 -122 OFFCURVE",
"485 -99 CURVE",
"525 -17 LINE",
"705 14 OFFCURVE",
"803 135 OFFCURVE",
"803 278 CURVE SMOOTH",
"803 466 OFFCURVE",
"646 528 OFFCURVE",
"505 579 CURVE SMOOTH",
"394 622 OFFCURVE",
"288 656 OFFCURVE",
"288 744 CURVE SMOOTH",
"288 815 OFFCURVE",
"342 876 OFFCURVE",
"459 876 CURVE SMOOTH",
"543 876 OFFCURVE",
"614 840 OFFCURVE",
"683 788 CURVE"
);
}
);
width = 867;
}
);
unicode = 015F;
userData = {
com.adobe.type.autohint = "ICA8aGludFNldExpc3Q+CiAgICA8aGludHNldCBw";
};
},
{
glyphname = uni0163;
lastChange = "2015-01-16 19:45:15 +0000";
layers = (
{
hints = (
{
horizontal = 1;
origin = "{0, 0}";
target = "{0, 0}";
type = Tag;
name = hr01;
},
{
horizontal = 1;
origin = "{0, 7}";
target = "{0, 0}";
type = Tag;
name = hr02;
},
{
horizontal = 1;
origin = "{0, 27}";
target = "{0, 0}";
type = Tag;
name = hr03;
},
{
horizontal = 1;
origin = "{0, 41}";
target = "{0, 0}";
type = Tag;
name = hr04;
}
);
layerId = "250EF945-70FC-4F2D-944E-2E0BA5947215";
name = SemiBold;
paths = (
{
closed = 1;
nodes = (
"514 -25 LINE",
"528 -23 OFFCURVE",
"541 -22 OFFCURVE",
"554 -19 CURVE SMOOTH",
"599 -12 OFFCURVE",
"644 0 OFFCURVE",
"681 12 CURVE",
"646 156 LINE",
"614 144 OFFCURVE",
"570 131 OFFCURVE",
"536 131 CURVE SMOOTH",
"428 131 OFFCURVE",
"387 196 OFFCURVE",
"387 317 CURVE SMOOTH",
"387 844 LINE",
"650 844 LINE",
"650 999 LINE",
"387 999 LINE",
"387 1276 LINE",
"225 1276 LINE",
"202 999 LINE",
"46 988 LINE",
"46 844 LINE",
"193 844 LINE",
"193 318 LINE",
"193 147 OFFCURVE",
"247 21 OFFCURVE",
"395 -13 CURVE",
"324 -154 LINE",
"409 -175 OFFCURVE",
"453 -202 OFFCURVE",
"453 -252 CURVE SMOOTH",
"453 -306 OFFCURVE",
"377 -335 OFFCURVE",
"272 -348 CURVE",
"290 -439 LINE",
"451 -426 OFFCURVE",
"598 -370 OFFCURVE",
"598 -247 CURVE SMOOTH",
"598 -163 OFFCURVE",
"544 -122 OFFCURVE",
"477 -99 CURVE"
);
}
);
width = 709;
}
);
unicode = 0163;
userData = {
com.adobe.type.autohint = "ICA8aGludFNldExpc3Q+CiAgICA8aGludHNldCBw";
};
},
{
glyphname = uni0180;
lastChange = "2015-01-16 19:45:15 +0000";
layers = (
{
hints = (
{
horizontal = 1;
origin = "{0, 0}";
target = "{0, 0}";
type = Tag;
name = hr01;
},
{
horizontal = 1;
origin = "{1, 11}";
target = "{0, 0}";
type = Tag;
name = hr02;
},
{
horizontal = 1;
origin = "{1, 17}";
target = "{0, 0}";
type = Tag;
name = hr03;
}
);
layerId = "250EF945-70FC-4F2D-944E-2E0BA5947215";
name = SemiBold;
paths = (
{
closed = 1;
nodes = (
"354 695 LINE",
"441 779 OFFCURVE",
"523 823 OFFCURVE",
"603 823 CURVE SMOOTH",
"780 823 OFFCURVE",
"849 693 OFFCURVE",
"849 493 CURVE SMOOTH",
"849 266 OFFCURVE",
"735 136 OFFCURVE",
"583 136 CURVE SMOOTH",
"520 136 OFFCURVE",
"436 162 OFFCURVE",
"354 233 CURVE"
);
},
{
closed = 1;
nodes = (
"354 1024 LINE",
"354 1164 LINE",
"722 1164 LINE",
"722 1271 LINE",
"354 1271 LINE",
"354 1454 LINE",
"162 1454 LINE",
"162 1271 LINE",
"12 1260 LINE",
"12 1164 LINE",
"162 1164 LINE",
"162 0 LINE",
"315 0 LINE",
"331 99 LINE",
"338 99 LINE",
"425 20 OFFCURVE",
"527 -25 OFFCURVE",
"619 -25 CURVE SMOOTH",
"845 -25 OFFCURVE",
"1048 166 OFFCURVE",
"1048 496 CURVE SMOOTH",
"1048 791 OFFCURVE",
"908 983 OFFCURVE",
"652 983 CURVE SMOOTH",
"544 983 OFFCURVE",
"437 927 OFFCURVE",
"349 849 CURVE"
);
}
);
width = 1124;
}
);
unicode = 0180;
userData = {
com.adobe.type.autohint = "ICA8aGludFNldExpc3Q+CiAgICA8aGludHNldCBw";
};
},
{
glyphname = uni01EB;
lastChange = "2015-01-16 19:45:15 +0000";
layers = (
{
hints = (
{
horizontal = 1;
origin = "{0, 0}";
target = "{0, 0}";
type = Tag;
name = hr00;
}
);
layerId = "250EF945-70FC-4F2D-944E-2E0BA5947215";
name = SemiBold;
paths = (
{
closed = 1;
nodes = (
"415 -247 CURVE SMOOTH",
"415 -363 OFFCURVE",
"499 -423 OFFCURVE",
"605 -423 CURVE SMOOTH",
"660 -423 OFFCURVE",
"734 -398 OFFCURVE",
"775 -366 CURVE",
"729 -273 LINE",
"703 -288 OFFCURVE",
"678 -299 OFFCURVE",
"647 -299 CURVE SMOOTH",
"599 -299 OFFCURVE",
"554 -270 OFFCURVE",
"554 -207 CURVE SMOOTH",
"554 -133 OFFCURVE",
"604 -50 OFFCURVE",
"698 -7 CURVE SMOOTH",
"893 83 OFFCURVE",
"1025 222 OFFCURVE",
"1025 498 CURVE SMOOTH",
"1025 832 OFFCURVE",
"804 1024 OFFCURVE",
"558 1024 CURVE SMOOTH",
"311 1024 OFFCURVE",
"90 832 OFFCURVE",
"90 498 CURVE SMOOTH",
"90 183 OFFCURVE",
"291 -7 OFFCURVE",
"529 -22 CURVE",
"482 -61 OFFCURVE",
"415 -144 OFFCURVE"
);
},
{
closed = 1;
nodes = (
"289 498 CURVE SMOOTH",
"289 717 OFFCURVE",
"396 866 OFFCURVE",
"558 866 CURVE SMOOTH",
"721 866 OFFCURVE",
"826 717 OFFCURVE",
"826 498 CURVE SMOOTH",
"826 280 OFFCURVE",
"721 134 OFFCURVE",
"558 134 CURVE SMOOTH",
"396 134 OFFCURVE",
"289 280 OFFCURVE"
);
}
);
width = 1115;
}
);
unicode = 01EB;
userData = {
com.adobe.type.autohint = "ICA8aGludFNldExpc3Q+CiAgICA8aGludHNldCBw";
};
},
{
glyphname = uni0251;
lastChange = "2015-01-13 16:00:23 +0000";
layers = (
{
anchors = (
{
name = mark0;
position = "{587, -45}";
}
);
layerId = "250EF945-70FC-4F2D-944E-2E0BA5947215";
name = SemiBold;
paths = (
{
closed = 1;
nodes = (
"292 501 CURVE SMOOTH",
"292 721 OFFCURVE",
"411 864 OFFCURVE",
"560 864 CURVE SMOOTH",
"637 864 OFFCURVE",
"710 837 OFFCURVE",
"788 766 CURVE",
"788 265 LINE",
"712 177 OFFCURVE",
"637 136 OFFCURVE",
"550 136 CURVE SMOOTH",
"387 136 OFFCURVE",
"292 269 OFFCURVE"
);
},
{
closed = 1;
nodes = (
"93 498 CURVE SMOOTH",
"93 166 OFFCURVE",
"255 -25 OFFCURVE",
"506 -25 CURVE SMOOTH",
"619 -25 OFFCURVE",
"724 39 OFFCURVE",
"801 114 CURVE",
"807 114 LINE",
"823 0 LINE",
"982 0 LINE",
"982 999 LINE",
"826 999 LINE",
"810 902 LINE",
"805 902 LINE",
"717 983 OFFCURVE",
"635 1024 OFFCURVE",
"526 1024 CURVE SMOOTH",
"302 1024 OFFCURVE",
"93 823 OFFCURVE"
);
}
);
width = 1144;
}
);
unicode = 0251;
},
{
glyphname = uni0261;
lastChange = "2015-01-13 16:00:23 +0000";
layers = (
{
anchors = (
{
name = mark0;
position = "{567, -450}";
}
);
layerId = "250EF945-70FC-4F2D-944E-2E0BA5947215";
name = SemiBold;
paths = (
{
closed = 1;
nodes = (
"239 -191 CURVE",
"171 -325 LINE",
"278 -395 OFFCURVE",
"411 -434 OFFCURVE",
"531 -434 CURVE SMOOTH",
"822 -434 OFFCURVE",
"987 -287 OFFCURVE",
"987 -38 CURVE SMOOTH",
"987 999 LINE",
"827 999 LINE",
"811 906 LINE",
"807 906 LINE",
"724 984 OFFCURVE",
"642 1024 OFFCURVE",
"532 1024 CURVE SMOOTH",
"308 1024 OFFCURVE",
"100 826 OFFCURVE",
"100 515 CURVE SMOOTH",
"100 205 OFFCURVE",
"261 13 OFFCURVE",
"511 13 CURVE SMOOTH",
"624 13 OFFCURVE",
"723 70 OFFCURVE",
"798 140 CURVE",
"795 -36 LINE",
"788 -185 OFFCURVE",
"708 -280 OFFCURVE",
"531 -280 CURVE SMOOTH",
"439 -280 OFFCURVE",
"337 -255 OFFCURVE"
);
},
{
closed = 1;
nodes = (
"555 172 CURVE SMOOTH",
"392 172 OFFCURVE",
"296 304 OFFCURVE",
"296 517 CURVE SMOOTH",
"296 722 OFFCURVE",
"416 864 OFFCURVE",
"565 864 CURVE SMOOTH",
"642 864 OFFCURVE",
"715 837 OFFCURVE",
"795 766 CURVE",
"795 301 LINE",
"715 213 OFFCURVE",
"642 172 OFFCURVE"
);
}
);
width = 1154;
}
);
unicode = 0261;
},
{
glyphname = uogonek;
lastChange = "2015-01-16 19:45:15 +0000";
layers = (
{
hints = (
{
horizontal = 1;
origin = "{0, 0}";
target = "{0, 0}";
type = Tag;
name = hr01;
},
{
horizontal = 1;
origin = "{0, 11}";
target = "{0, 0}";
type = Tag;
name = hr02;
},
{
horizontal = 1;
origin = "{0, 27}";
target = "{0, 0}";
type = Tag;
name = hr03;
},
{
horizontal = 1;
origin = "{0, 33}";
target = "{0, 0}";
type = Tag;
name = hr04;
}
);
layerId = "250EF945-70FC-4F2D-944E-2E0BA5947215";
name = SemiBold;
paths = (
{
closed = 1;
nodes = (
"148 369 LINE",
"148 115 OFFCURVE",
"242 -25 OFFCURVE",
"455 -25 CURVE SMOOTH",
"593 -25 OFFCURVE",
"690 46 OFFCURVE",
"781 153 CURVE",
"788 153 LINE",
"806 6 LINE",
"724 -52 OFFCURVE",
"644 -134 OFFCURVE",
"644 -247 CURVE SMOOTH",
"644 -363 OFFCURVE",
"729 -423 OFFCURVE",
"836 -423 CURVE SMOOTH",
"890 -423 OFFCURVE",
"963 -398 OFFCURVE",
"1004 -366 CURVE",
"958 -273 LINE",
"935 -288 OFFCURVE",
"908 -299 OFFCURVE",
"876 -299 CURVE SMOOTH",
"830 -299 OFFCURVE",
"783 -269 OFFCURVE",
"783 -207 CURVE SMOOTH",
"783 -131 OFFCURVE",
"838 -56 OFFCURVE",
"962 0 CURVE",
"962 999 LINE",
"769 999 LINE",
"769 299 LINE",
"682 189 OFFCURVE",
"615 141 OFFCURVE",
"518 141 CURVE SMOOTH",
"393 141 OFFCURVE",
"342 215 OFFCURVE",
"342 394 CURVE SMOOTH",
"342 999 LINE",
"148 999 LINE"
);
}
);
width = 1123;
}
);
unicode = 0173;
userData = {
com.adobe.type.autohint = "ICA8aGludFNldExpc3Q+CiAgICA8aGludHNldCBw";
};
},
{
color = (255,153,153,1);
glyphname = v;
lastChange = "2015-01-16 19:45:15 +0000";
layers = (
{
anchors = (
{
name = top;
position = "{489, 1050}";
}
);
hints = (
{
horizontal = 1;
origin = "{0, 0}";
target = "{0, 0}";
type = Tag;
name = hr00;
}
);
layerId = "250EF945-70FC-4F2D-944E-2E0BA5947215";
name = SemiBold;
paths = (
{
closed = 1;
nodes = (
"380 0 LINE",
"605 0 LINE",
"953 999 LINE",
"765 999 LINE",
"587 450 LINE",
"558 351 OFFCURVE",
"526 249 OFFCURVE",
"498 153 CURVE",
"490 153 LINE",
"461 249 OFFCURVE",
"429 351 OFFCURVE",
"400 450 CURVE",
"223 999 LINE",
"25 999 LINE"
);
}
);
width = 977;
}
);
unicode = 0076;
userData = {
com.adobe.type.autohint = "ICA8aGludFNldExpc3Q+CiAgICA8aGludHNldCBw";
com.typemytype.robofont.mark = (
1,
0.6,
0.6,
1
);
};
},
{
color = (255,153,153,1);
glyphname = w;
lastChange = "2015-01-16 19:45:15 +0000";
layers = (
{
anchors = (
{
name = top;
position = "{746, 1050}";
}
);
hints = (
{
horizontal = 1;
origin = "{0, 0}";
target = "{0, 0}";
type = Tag;
name = hr01;
},
{
horizontal = 1;
origin = "{0, 5}";
target = "{0, 0}";
type = Tag;
name = hr02;
}
);
layerId = "250EF945-70FC-4F2D-944E-2E0BA5947215";
name = SemiBold;
paths = (
{
closed = 1;
nodes = (
"322 0 LINE",
"545 0 LINE",
"676 509 LINE",
"700 604 OFFCURVE",
"720 698 OFFCURVE",
"741 799 CURVE",
"750 799 LINE",
"773 698 OFFCURVE",
"791 605 OFFCURVE",
"815 511 CURVE SMOOTH",
"949 0 LINE",
"1181 0 LINE",
"1443 999 LINE",
"1262 999 LINE",
"1125 443 LINE",
"1105 348 OFFCURVE",
"1088 256 OFFCURVE",
"1067 162 CURVE",
"1059 162 LINE",
"1036 256 OFFCURVE",
"1014 348 OFFCURVE",
"990 443 CURVE SMOOTH",
"841 999 LINE",
"660 999 LINE",
"514 443 LINE",
"489 350 OFFCURVE",
"470 256 OFFCURVE",
"448 162 CURVE",
"440 162 LINE",
"422 256 OFFCURVE",
"404 348 OFFCURVE",
"383 443 CURVE",
"244 999 LINE",
"49 999 LINE"
);
}
);
width = 1492;
}
);
unicode = 0077;
userData = {
com.adobe.type.autohint = "ICA8aGludFNldExpc3Q+CiAgICA8aGludHNldCBw";
com.typemytype.robofont.mark = (
1,
0.6,
0.6,
1
);
};
},
{
color = (255,153,153,1);
glyphname = x;
lastChange = "2015-01-16 19:45:15 +0000";
layers = (
{
anchors = (
{
name = top;
position = "{469, 1050}";
}
);
hints = (
{
horizontal = 1;
origin = "{0, 0}";
target = "{0, 0}";
type = Tag;
name = hr00;
}
);
layerId = "250EF945-70FC-4F2D-944E-2E0BA5947215";
name = SemiBold;
paths = (
{
closed = 1;
nodes = (
"29 0 LINE",
"230 0 LINE",
"355 219 LINE",
"386 281 OFFCURVE",
"418 340 OFFCURVE",
"451 398 CURVE",
"459 398 LINE",
"495 340 OFFCURVE",
"531 279 OFFCURVE",
"565 219 CURVE",
"702 0 LINE",
"910 0 LINE",
"588 501 LINE",
"888 999 LINE",
"687 999 LINE",
"576 790 LINE",
"547 736 OFFCURVE",
"517 679 OFFCURVE",
"490 622 CURVE",
"482 622 LINE",
"448 679 OFFCURVE",
"415 736 OFFCURVE",
"386 790 CURVE SMOOTH",
"261 999 LINE",
"52 999 LINE",
"351 521 LINE"
);
}
);
width = 939;
}
);
unicode = 0078;
userData = {
com.adobe.type.autohint = "ICA8aGludFNldExpc3Q+CiAgICA8aGludHNldCBw";
com.typemytype.robofont.mark = (
1,
0.6,
0.6,
1
);
};
},
{
color = (255,153,153,1);
glyphname = y;
lastChange = "2015-01-16 19:45:15 +0000";
layers = (
{
anchors = (
{
name = top;
position = "{488, 1050}";
}
);
hints = (
{
horizontal = 1;
origin = "{0, 0}";
target = "{0, 0}";
type = Tag;
name = hr01;
},
{
horizontal = 1;
origin = "{0, 1}";
target = "{0, 0}";
type = Tag;
name = hr02;
},
{
horizontal = 1;
origin = "{0, 4}";
target = "{0, 0}";
type = Tag;
name = hr03;
}
);
layerId = "250EF945-70FC-4F2D-944E-2E0BA5947215";
name = SemiBold;
paths = (
{
closed = 1;
nodes = (
"110 -251 CURVE",
"74 -402 LINE",
"108 -414 OFFCURVE",
"147 -422 OFFCURVE",
"195 -422 CURVE SMOOTH",
"403 -422 OFFCURVE",
"507 -277 OFFCURVE",
"581 -69 CURVE SMOOTH",
"952 999 LINE",
"762 999 LINE",
"596 469 LINE",
"569 379 OFFCURVE",
"544 278 OFFCURVE",
"516 187 CURVE",
"508 187 LINE",
"478 281 OFFCURVE",
"445 382 OFFCURVE",
"414 469 CURVE SMOOTH",
"223 999 LINE",
"25 999 LINE",
"423 3 LINE",
"401 -67 LINE",
"363 -182 OFFCURVE",
"295 -265 OFFCURVE",
"185 -265 CURVE SMOOTH",
"161 -265 OFFCURVE",
"131 -257 OFFCURVE"
);
}
);
width = 976;
}
);
unicode = 0079;
userData = {
com.adobe.type.autohint = "ICA8aGludFNldExpc3Q+CiAgICA8aGludHNldCBw";
com.typemytype.robofont.mark = (
1,
0.6,
0.6,
1
);
};
},
{
color = (255,153,153,1);
glyphname = z;
lastChange = "2015-01-16 19:45:15 +0000";
layers = (
{
anchors = (
{
name = top;
position = "{448, 1050}";
}
);
hints = (
{
horizontal = 1;
origin = "{0, 0}";
target = "{0, 0}";
type = Tag;
name = hr00;
}
);
layerId = "250EF945-70FC-4F2D-944E-2E0BA5947215";
name = SemiBold;
paths = (
{
closed = 1;
nodes = (
"66 0 LINE",
"831 0 LINE",
"831 155 LINE",
"308 155 LINE",
"815 896 LINE",
"815 999 LINE",
"122 999 LINE",
"122 844 LINE",
"573 844 LINE",
"66 103 LINE"
);
}
);
width = 883;
}
);
unicode = 007A;
userData = {
com.adobe.type.autohint = "ICA8aGludFNldExpc3Q+CiAgICA8aGludHNldCBw";
com.typemytype.robofont.mark = (
1,
0.6,
0.6,
1
);
};
},
{
glyphname = a.a;
lastChange = "2015-01-13 16:00:23 +0000";
layers = (
{
anchors = (
{
name = mark0;
position = "{811, 0}";
}
);
layerId = "250EF945-70FC-4F2D-944E-2E0BA5947215";
name = SemiBold;
paths = (
{
closed = 1;
nodes = (
"292 499 CURVE SMOOTH",
"292 726 OFFCURVE",
"410 864 OFFCURVE",
"565 864 CURVE SMOOTH",
"646 864 OFFCURVE",
"710 837 OFFCURVE",
"788 766 CURVE",
"788 265 LINE",
"712 177 OFFCURVE",
"646 136 OFFCURVE",
"555 136 CURVE SMOOTH",
"384 136 OFFCURVE",
"292 263 OFFCURVE"
);
},
{
closed = 1;
nodes = (
"93 497 CURVE SMOOTH",
"93 158 OFFCURVE",
"248 -25 OFFCURVE",
"509 -25 CURVE SMOOTH",
"628 -25 OFFCURVE",
"726 36 OFFCURVE",
"801 114 CURVE",
"807 114 LINE",
"823 0 LINE",
"982 0 LINE",
"982 999 LINE",
"826 999 LINE",
"810 902 LINE",
"805 902 LINE",
"721 985 OFFCURVE",
"644 1024 OFFCURVE",
"530 1024 CURVE SMOOTH",
"296 1024 OFFCURVE",
"93 829 OFFCURVE"
);
}
);
width = 1144;
}
);
userData = {
com.typemytype.robofont.layerData = {
};
};
},
{
glyphname = aacute.a;
lastChange = "2015-01-13 16:00:23 +0000";
layers = (
{
layerId = "250EF945-70FC-4F2D-944E-2E0BA5947215";
name = SemiBold;
paths = (
{
closed = 1;
nodes = (
"292 501 CURVE SMOOTH",
"292 721 OFFCURVE",
"411 864 OFFCURVE",
"560 864 CURVE SMOOTH",
"637 864 OFFCURVE",
"710 837 OFFCURVE",
"788 766 CURVE",
"788 265 LINE",
"712 177 OFFCURVE",
"637 136 OFFCURVE",
"550 136 CURVE SMOOTH",
"387 136 OFFCURVE",
"292 269 OFFCURVE"
);
},
{
closed = 1;
nodes = (
"93 498 CURVE SMOOTH",
"93 166 OFFCURVE",
"255 -25 OFFCURVE",
"506 -25 CURVE SMOOTH",
"619 -25 OFFCURVE",
"724 39 OFFCURVE",
"801 114 CURVE",
"807 114 LINE",
"823 0 LINE",
"982 0 LINE",
"982 999 LINE",
"826 999 LINE",
"810 902 LINE",
"805 902 LINE",
"717 983 OFFCURVE",
"635 1024 OFFCURVE",
"526 1024 CURVE SMOOTH",
"302 1024 OFFCURVE",
"93 823 OFFCURVE"
);
},
{
closed = 1;
nodes = (
"828 1466 LINE",
"631 1466 LINE",
"444 1174 LINE",
"592 1174 LINE"
);
}
);
width = 1144;
}
);
},
{
glyphname = abreve.a;
lastChange = "2015-01-13 16:00:23 +0000";
layers = (
{
layerId = "250EF945-70FC-4F2D-944E-2E0BA5947215";
name = SemiBold;
paths = (
{
closed = 1;
nodes = (
"292 501 CURVE SMOOTH",
"292 721 OFFCURVE",
"411 864 OFFCURVE",
"560 864 CURVE SMOOTH",
"637 864 OFFCURVE",
"710 837 OFFCURVE",
"788 766 CURVE",
"788 265 LINE",
"712 177 OFFCURVE",
"637 136 OFFCURVE",
"550 136 CURVE SMOOTH",
"387 136 OFFCURVE",
"292 269 OFFCURVE"
);
},
{
closed = 1;
nodes = (
"93 498 CURVE SMOOTH",
"93 166 OFFCURVE",
"255 -25 OFFCURVE",
"506 -25 CURVE SMOOTH",
"619 -25 OFFCURVE",
"724 39 OFFCURVE",
"801 114 CURVE",
"807 114 LINE",
"823 0 LINE",
"982 0 LINE",
"982 999 LINE",
"826 999 LINE",
"810 902 LINE",
"805 902 LINE",
"717 983 OFFCURVE",
"635 1024 OFFCURVE",
"526 1024 CURVE SMOOTH",
"302 1024 OFFCURVE",
"93 823 OFFCURVE"
);
},
{
closed = 1;
nodes = (
"586 1178 CURVE SMOOTH",
"765 1178 OFFCURVE",
"839 1316 OFFCURVE",
"849 1442 CURVE",
"733 1442 LINE",
"723 1365 OFFCURVE",
"676 1293 OFFCURVE",
"586 1293 CURVE SMOOTH",
"494 1293 OFFCURVE",
"449 1365 OFFCURVE",
"437 1442 CURVE",
"321 1442 LINE",
"331 1316 OFFCURVE",
"406 1178 OFFCURVE"
);
}
);
width = 1144;
}
);
},
{
glyphname = uni1EAF.a;
lastChange = "2015-01-13 16:00:23 +0000";
layers = (
{
layerId = "250EF945-70FC-4F2D-944E-2E0BA5947215";
name = SemiBold;
paths = (
{
closed = 1;
nodes = (
"292 501 CURVE SMOOTH",
"292 721 OFFCURVE",
"411 864 OFFCURVE",
"560 864 CURVE SMOOTH",
"637 864 OFFCURVE",
"710 837 OFFCURVE",
"788 766 CURVE",
"788 265 LINE",
"712 177 OFFCURVE",
"637 136 OFFCURVE",
"550 136 CURVE SMOOTH",
"387 136 OFFCURVE",
"292 269 OFFCURVE"
);
},
{
closed = 1;
nodes = (
"93 498 CURVE SMOOTH",
"93 166 OFFCURVE",
"255 -25 OFFCURVE",
"506 -25 CURVE SMOOTH",
"619 -25 OFFCURVE",
"724 39 OFFCURVE",
"801 114 CURVE",
"807 114 LINE",
"823 0 LINE",
"982 0 LINE",
"982 999 LINE",
"826 999 LINE",
"810 902 LINE",
"805 902 LINE",
"717 983 OFFCURVE",
"635 1024 OFFCURVE",
"526 1024 CURVE SMOOTH",
"302 1024 OFFCURVE",
"93 823 OFFCURVE"
);
},
{
closed = 1;
nodes = (
"505 1392 LINE",
"614 1392 LINE",
"793 1624 LINE",
"640 1624 LINE"
);
},
{
closed = 1;
nodes = (
"586 1178 CURVE SMOOTH",
"765 1178 OFFCURVE",
"839 1316 OFFCURVE",
"849 1442 CURVE",
"751 1442 LINE",
"738 1359 OFFCURVE",
"688 1283 OFFCURVE",
"586 1283 CURVE SMOOTH",
"482 1283 OFFCURVE",
"432 1359 OFFCURVE",
"420 1442 CURVE",
"321 1442 LINE",
"331 1316 OFFCURVE",
"406 1178 OFFCURVE"
);
}
);
width = 1144;
}
);
},
{
glyphname = uni1EB7.a;
lastChange = "2015-01-13 16:00:23 +0000";
layers = (
{
layerId = "250EF945-70FC-4F2D-944E-2E0BA5947215";
name = SemiBold;
paths = (
{
closed = 1;
nodes = (
"292 501 CURVE SMOOTH",
"292 721 OFFCURVE",
"411 864 OFFCURVE",
"560 864 CURVE SMOOTH",
"637 864 OFFCURVE",
"710 837 OFFCURVE",
"788 766 CURVE",
"788 265 LINE",
"712 177 OFFCURVE",
"637 136 OFFCURVE",
"550 136 CURVE SMOOTH",
"387 136 OFFCURVE",
"292 269 OFFCURVE"
);
},
{
closed = 1;
nodes = (
"93 498 CURVE SMOOTH",
"93 166 OFFCURVE",
"255 -25 OFFCURVE",
"506 -25 CURVE SMOOTH",
"619 -25 OFFCURVE",
"724 39 OFFCURVE",
"801 114 CURVE",
"807 114 LINE",
"823 0 LINE",
"982 0 LINE",
"982 999 LINE",
"826 999 LINE",
"810 902 LINE",
"805 902 LINE",
"717 983 OFFCURVE",
"635 1024 OFFCURVE",
"526 1024 CURVE SMOOTH",
"302 1024 OFFCURVE",
"93 823 OFFCURVE"
);
},
{
closed = 1;
nodes = (
"586 1178 CURVE SMOOTH",
"765 1178 OFFCURVE",
"839 1316 OFFCURVE",
"849 1442 CURVE",
"733 1442 LINE",
"723 1365 OFFCURVE",
"676 1293 OFFCURVE",
"586 1293 CURVE SMOOTH",
"494 1293 OFFCURVE",
"449 1365 OFFCURVE",
"437 1442 CURVE",
"321 1442 LINE",
"331 1316 OFFCURVE",
"406 1178 OFFCURVE"
);
},
{
closed = 1;
nodes = (
"588 -430 CURVE SMOOTH",
"658 -430 OFFCURVE",
"709 -381 OFFCURVE",
"709 -310 CURVE SMOOTH",
"709 -242 OFFCURVE",
"658 -193 OFFCURVE",
"588 -193 CURVE SMOOTH",
"518 -193 OFFCURVE",
"467 -242 OFFCURVE",
"467 -310 CURVE SMOOTH",
"467 -381 OFFCURVE",
"518 -430 OFFCURVE"
);
}
);
width = 1144;
}
);
},
{
glyphname = uni1EB1.a;
lastChange = "2015-01-13 16:00:23 +0000";
layers = (
{
layerId = "250EF945-70FC-4F2D-944E-2E0BA5947215";
name = SemiBold;
paths = (
{
closed = 1;
nodes = (
"292 501 CURVE SMOOTH",
"292 721 OFFCURVE",
"411 864 OFFCURVE",
"560 864 CURVE SMOOTH",
"637 864 OFFCURVE",
"710 837 OFFCURVE",
"788 766 CURVE",
"788 265 LINE",
"712 177 OFFCURVE",
"637 136 OFFCURVE",
"550 136 CURVE SMOOTH",
"387 136 OFFCURVE",
"292 269 OFFCURVE"
);
},
{
closed = 1;
nodes = (
"93 498 CURVE SMOOTH",
"93 166 OFFCURVE",
"255 -25 OFFCURVE",
"506 -25 CURVE SMOOTH",
"619 -25 OFFCURVE",
"724 39 OFFCURVE",
"801 114 CURVE",
"807 114 LINE",
"823 0 LINE",
"982 0 LINE",
"982 999 LINE",
"826 999 LINE",
"810 902 LINE",
"805 902 LINE",
"717 983 OFFCURVE",
"635 1024 OFFCURVE",
"526 1024 CURVE SMOOTH",
"302 1024 OFFCURVE",
"93 823 OFFCURVE"
);
},
{
closed = 1;
nodes = (
"530 1624 LINE",
"377 1624 LINE",
"555 1392 LINE",
"665 1392 LINE"
);
},
{
closed = 1;
nodes = (
"586 1178 CURVE SMOOTH",
"765 1178 OFFCURVE",
"839 1316 OFFCURVE",
"849 1442 CURVE",
"751 1442 LINE",
"738 1359 OFFCURVE",
"688 1283 OFFCURVE",
"586 1283 CURVE SMOOTH",
"482 1283 OFFCURVE",
"432 1359 OFFCURVE",
"420 1442 CURVE",
"321 1442 LINE",
"331 1316 OFFCURVE",
"406 1178 OFFCURVE"
);
}
);
width = 1144;
}
);
},
{
glyphname = uni1EB3.a;
lastChange = "2015-01-13 16:00:23 +0000";
layers = (
{
layerId = "250EF945-70FC-4F2D-944E-2E0BA5947215";
name = SemiBold;
paths = (
{
closed = 1;
nodes = (
"292 501 CURVE SMOOTH",
"292 721 OFFCURVE",
"411 864 OFFCURVE",
"560 864 CURVE SMOOTH",
"637 864 OFFCURVE",
"710 837 OFFCURVE",
"788 766 CURVE",
"788 265 LINE",
"712 177 OFFCURVE",
"637 136 OFFCURVE",
"550 136 CURVE SMOOTH",
"387 136 OFFCURVE",
"292 269 OFFCURVE"
);
},
{
closed = 1;
nodes = (
"93 498 CURVE SMOOTH",
"93 166 OFFCURVE",
"255 -25 OFFCURVE",
"506 -25 CURVE SMOOTH",
"619 -25 OFFCURVE",
"724 39 OFFCURVE",
"801 114 CURVE",
"807 114 LINE",
"823 0 LINE",
"982 0 LINE",
"982 999 LINE",
"826 999 LINE",
"810 902 LINE",
"805 902 LINE",
"717 983 OFFCURVE",
"635 1024 OFFCURVE",
"526 1024 CURVE SMOOTH",
"302 1024 OFFCURVE",
"93 823 OFFCURVE"
);
},
{
closed = 1;
nodes = (
"586 1178 CURVE SMOOTH",
"765 1178 OFFCURVE",
"839 1316 OFFCURVE",
"849 1442 CURVE",
"751 1442 LINE",
"738 1359 OFFCURVE",
"688 1283 OFFCURVE",
"586 1283 CURVE SMOOTH",
"482 1283 OFFCURVE",
"432 1359 OFFCURVE",
"420 1442 CURVE",
"321 1442 LINE",
"331 1316 OFFCURVE",
"406 1178 OFFCURVE"
);
},
{
closed = 1;
nodes = (
"527 1405 LINE",
"630 1426 OFFCURVE",
"727 1465 OFFCURVE",
"727 1578 CURVE SMOOTH",
"727 1676 OFFCURVE",
"641 1725 OFFCURVE",
"469 1730 CURVE",
"453 1638 LINE",
"553 1633 OFFCURVE",
"593 1608 OFFCURVE",
"593 1557 CURVE SMOOTH",
"593 1515 OFFCURVE",
"557 1495 OFFCURVE",
"509 1481 CURVE"
);
}
);
width = 1144;
}
);
},
{
glyphname = uni1EB5.a;
lastChange = "2015-01-13 16:00:23 +0000";
layers = (
{
layerId = "250EF945-70FC-4F2D-944E-2E0BA5947215";
name = SemiBold;
paths = (
{
closed = 1;
nodes = (
"292 501 CURVE SMOOTH",
"292 721 OFFCURVE",
"411 864 OFFCURVE",
"560 864 CURVE SMOOTH",
"637 864 OFFCURVE",
"710 837 OFFCURVE",
"788 766 CURVE",
"788 265 LINE",
"712 177 OFFCURVE",
"637 136 OFFCURVE",
"550 136 CURVE SMOOTH",
"387 136 OFFCURVE",
"292 269 OFFCURVE"
);
},
{
closed = 1;
nodes = (
"93 498 CURVE SMOOTH",
"93 166 OFFCURVE",
"255 -25 OFFCURVE",
"506 -25 CURVE SMOOTH",
"619 -25 OFFCURVE",
"724 39 OFFCURVE",
"801 114 CURVE",
"807 114 LINE",
"823 0 LINE",
"982 0 LINE",
"982 999 LINE",
"826 999 LINE",
"810 902 LINE",
"805 902 LINE",
"717 983 OFFCURVE",
"635 1024 OFFCURVE",
"526 1024 CURVE SMOOTH",
"302 1024 OFFCURVE",
"93 823 OFFCURVE"
);
},
{
closed = 1;
nodes = (
"586 1178 CURVE SMOOTH",
"765 1178 OFFCURVE",
"837 1288 OFFCURVE",
"847 1401 CURVE",
"745 1401 LINE",
"733 1337 OFFCURVE",
"686 1279 OFFCURVE",
"586 1279 CURVE SMOOTH",
"485 1279 OFFCURVE",
"438 1337 OFFCURVE",
"426 1401 CURVE",
"325 1401 LINE",
"332 1288 OFFCURVE",
"406 1178 OFFCURVE"
);
},
{
closed = 1;
nodes = (
"311 1459 CURVE",
"406 1459 LINE",
"417 1519 OFFCURVE",
"444 1545 OFFCURVE",
"484 1545 CURVE SMOOTH",
"548 1545 OFFCURVE",
"590 1459 OFFCURVE",
"693 1459 CURVE SMOOTH",
"787 1459 OFFCURVE",
"847 1537 OFFCURVE",
"858 1654 CURVE",
"764 1654 LINE",
"755 1596 OFFCURVE",
"725 1568 OFFCURVE",
"686 1568 CURVE SMOOTH",
"621 1568 OFFCURVE",
"581 1654 OFFCURVE",
"477 1654 CURVE SMOOTH",
"385 1654 OFFCURVE",
"324 1578 OFFCURVE"
);
}
);
width = 1144;
}
);
},
{
glyphname = uni01CE.a;
lastChange = "2015-01-13 16:00:23 +0000";
layers = (
{
layerId = "250EF945-70FC-4F2D-944E-2E0BA5947215";
name = SemiBold;
paths = (
{
closed = 1;
nodes = (
"292 501 CURVE SMOOTH",
"292 721 OFFCURVE",
"411 864 OFFCURVE",
"560 864 CURVE SMOOTH",
"637 864 OFFCURVE",
"710 837 OFFCURVE",
"788 766 CURVE",
"788 265 LINE",
"712 177 OFFCURVE",
"637 136 OFFCURVE",
"550 136 CURVE SMOOTH",
"387 136 OFFCURVE",
"292 269 OFFCURVE"
);
},
{
closed = 1;
nodes = (
"93 498 CURVE SMOOTH",
"93 166 OFFCURVE",
"255 -25 OFFCURVE",
"506 -25 CURVE SMOOTH",
"619 -25 OFFCURVE",
"724 39 OFFCURVE",
"801 114 CURVE",
"807 114 LINE",
"823 0 LINE",
"982 0 LINE",
"982 999 LINE",
"826 999 LINE",
"810 902 LINE",
"805 902 LINE",
"717 983 OFFCURVE",
"635 1024 OFFCURVE",
"526 1024 CURVE SMOOTH",
"302 1024 OFFCURVE",
"93 823 OFFCURVE"
);
},
{
closed = 1;
nodes = (
"507 1174 LINE",
"663 1174 LINE",
"858 1466 LINE",
"722 1466 LINE",
"590 1283 LINE",
"581 1283 LINE",
"449 1466 LINE",
"312 1466 LINE"
);
}
);
width = 1144;
}
);
},
{
glyphname = acircumflex.a;
lastChange = "2015-01-13 16:00:23 +0000";
layers = (
{
layerId = "250EF945-70FC-4F2D-944E-2E0BA5947215";
name = SemiBold;
paths = (
{
closed = 1;
nodes = (
"292 501 CURVE SMOOTH",
"292 721 OFFCURVE",
"411 864 OFFCURVE",
"560 864 CURVE SMOOTH",
"637 864 OFFCURVE",
"710 837 OFFCURVE",
"788 766 CURVE",
"788 265 LINE",
"712 177 OFFCURVE",
"637 136 OFFCURVE",
"550 136 CURVE SMOOTH",
"387 136 OFFCURVE",
"292 269 OFFCURVE"
);
},
{
closed = 1;
nodes = (
"93 498 CURVE SMOOTH",
"93 166 OFFCURVE",
"255 -25 OFFCURVE",
"506 -25 CURVE SMOOTH",
"619 -25 OFFCURVE",
"724 39 OFFCURVE",
"801 114 CURVE",
"807 114 LINE",
"823 0 LINE",
"982 0 LINE",
"982 999 LINE",
"826 999 LINE",
"810 902 LINE",
"805 902 LINE",
"717 983 OFFCURVE",
"635 1024 OFFCURVE",
"526 1024 CURVE SMOOTH",
"302 1024 OFFCURVE",
"93 823 OFFCURVE"
);
},
{
closed = 1;
nodes = (
"312 1174 LINE",
"449 1174 LINE",
"581 1356 LINE",
"590 1356 LINE",
"722 1174 LINE",
"858 1174 LINE",
"663 1466 LINE",
"507 1466 LINE"
);
}
);
width = 1144;
}
);
},
{
glyphname = uni1EA5.a;
lastChange = "2015-01-13 16:00:23 +0000";
layers = (
{
anchors = (
{
name = mark0;
position = "{549, -45}";
}
);
layerId = "250EF945-70FC-4F2D-944E-2E0BA5947215";
name = SemiBold;
paths = (
{
closed = 1;
nodes = (
"292 501 CURVE SMOOTH",
"292 721 OFFCURVE",
"411 864 OFFCURVE",
"560 864 CURVE SMOOTH",
"637 864 OFFCURVE",
"710 837 OFFCURVE",
"788 766 CURVE",
"788 265 LINE",
"712 177 OFFCURVE",
"637 136 OFFCURVE",
"550 136 CURVE SMOOTH",
"387 136 OFFCURVE",
"292 269 OFFCURVE"
);
},
{
closed = 1;
nodes = (
"93 498 CURVE SMOOTH",
"93 166 OFFCURVE",
"255 -25 OFFCURVE",
"506 -25 CURVE SMOOTH",
"619 -25 OFFCURVE",
"724 39 OFFCURVE",
"801 114 CURVE",
"807 114 LINE",
"823 0 LINE",
"982 0 LINE",
"982 999 LINE",
"826 999 LINE",
"810 902 LINE",
"805 902 LINE",
"717 983 OFFCURVE",
"635 1024 OFFCURVE",
"526 1024 CURVE SMOOTH",
"302 1024 OFFCURVE",
"93 823 OFFCURVE"
);
},
{
closed = 1;
nodes = (
"338 1174 LINE",
"466 1174 LINE",
"581 1320 LINE",
"590 1320 LINE",
"704 1174 LINE",
"832 1174 LINE",
"663 1421 LINE",
"507 1421 LINE"
);
},
{
closed = 1;
nodes = (
"773 1313 LINE",
"889 1313 LINE",
"1080 1548 LINE",
"922 1548 LINE"
);
}
);
width = 1144;
}
);
},
{
glyphname = uni1EAD.a;
lastChange = "2015-01-13 16:00:23 +0000";
layers = (
{
layerId = "250EF945-70FC-4F2D-944E-2E0BA5947215";
name = SemiBold;
paths = (
{
closed = 1;
nodes = (
"292 501 CURVE SMOOTH",
"292 721 OFFCURVE",
"411 864 OFFCURVE",
"560 864 CURVE SMOOTH",
"637 864 OFFCURVE",
"710 837 OFFCURVE",
"788 766 CURVE",
"788 265 LINE",
"712 177 OFFCURVE",
"637 136 OFFCURVE",
"550 136 CURVE SMOOTH",
"387 136 OFFCURVE",
"292 269 OFFCURVE"
);
},
{
closed = 1;
nodes = (
"93 498 CURVE SMOOTH",
"93 166 OFFCURVE",
"255 -25 OFFCURVE",
"506 -25 CURVE SMOOTH",
"619 -25 OFFCURVE",
"724 39 OFFCURVE",
"801 114 CURVE",
"807 114 LINE",
"823 0 LINE",
"982 0 LINE",
"982 999 LINE",
"826 999 LINE",
"810 902 LINE",
"805 902 LINE",
"717 983 OFFCURVE",
"635 1024 OFFCURVE",
"526 1024 CURVE SMOOTH",
"302 1024 OFFCURVE",
"93 823 OFFCURVE"
);
},
{
closed = 1;
nodes = (
"312 1174 LINE",
"449 1174 LINE",
"581 1356 LINE",
"590 1356 LINE",
"722 1174 LINE",
"858 1174 LINE",
"663 1466 LINE",
"507 1466 LINE"
);
},
{
closed = 1;
nodes = (
"588 -430 CURVE SMOOTH",
"658 -430 OFFCURVE",
"709 -381 OFFCURVE",
"709 -310 CURVE SMOOTH",
"709 -242 OFFCURVE",
"658 -193 OFFCURVE",
"588 -193 CURVE SMOOTH",
"518 -193 OFFCURVE",
"467 -242 OFFCURVE",
"467 -310 CURVE SMOOTH",
"467 -381 OFFCURVE",
"518 -430 OFFCURVE"
);
}
);
width = 1144;
}
);
},
{
glyphname = uni1EA7.a;
lastChange = "2015-01-13 16:00:23 +0000";
layers = (
{
layerId = "250EF945-70FC-4F2D-944E-2E0BA5947215";
name = SemiBold;
paths = (
{
closed = 1;
nodes = (
"292 501 CURVE SMOOTH",
"292 721 OFFCURVE",
"411 864 OFFCURVE",
"560 864 CURVE SMOOTH",
"637 864 OFFCURVE",
"710 837 OFFCURVE",
"788 766 CURVE",
"788 265 LINE",
"712 177 OFFCURVE",
"637 136 OFFCURVE",
"550 136 CURVE SMOOTH",
"387 136 OFFCURVE",
"292 269 OFFCURVE"
);
},
{
closed = 1;
nodes = (
"93 498 CURVE SMOOTH",
"93 166 OFFCURVE",
"255 -25 OFFCURVE",
"506 -25 CURVE SMOOTH",
"619 -25 OFFCURVE",
"724 39 OFFCURVE",
"801 114 CURVE",
"807 114 LINE",
"823 0 LINE",
"982 0 LINE",
"982 999 LINE",
"826 999 LINE",
"810 902 LINE",
"805 902 LINE",
"717 983 OFFCURVE",
"635 1024 OFFCURVE",
"526 1024 CURVE SMOOTH",
"302 1024 OFFCURVE",
"93 823 OFFCURVE"
);
},
{
closed = 1;
nodes = (
"338 1174 LINE",
"466 1174 LINE",
"581 1320 LINE",
"590 1320 LINE",
"704 1174 LINE",
"832 1174 LINE",
"663 1421 LINE",
"507 1421 LINE"
);
},
{
closed = 1;
nodes = (
"867 1548 LINE",
"708 1548 LINE",
"900 1313 LINE",
"1015 1313 LINE"
);
}
);
width = 1144;
}
);
},
{
glyphname = uni1EA9.a;
lastChange = "2015-01-13 16:00:23 +0000";
layers = (
{
layerId = "250EF945-70FC-4F2D-944E-2E0BA5947215";
name = SemiBold;
paths = (
{
closed = 1;
nodes = (
"292 501 CURVE SMOOTH",
"292 721 OFFCURVE",
"411 864 OFFCURVE",
"560 864 CURVE SMOOTH",
"637 864 OFFCURVE",
"710 837 OFFCURVE",
"788 766 CURVE",
"788 265 LINE",
"712 177 OFFCURVE",
"637 136 OFFCURVE",
"550 136 CURVE SMOOTH",
"387 136 OFFCURVE",
"292 269 OFFCURVE"
);
},
{
closed = 1;
nodes = (
"93 498 CURVE SMOOTH",
"93 166 OFFCURVE",
"255 -25 OFFCURVE",
"506 -25 CURVE SMOOTH",
"619 -25 OFFCURVE",
"724 39 OFFCURVE",
"801 114 CURVE",
"807 114 LINE",
"823 0 LINE",
"982 0 LINE",
"982 999 LINE",
"826 999 LINE",
"810 902 LINE",
"805 902 LINE",
"717 983 OFFCURVE",
"635 1024 OFFCURVE",
"526 1024 CURVE SMOOTH",
"302 1024 OFFCURVE",
"93 823 OFFCURVE"
);
},
{
closed = 1;
nodes = (
"338 1174 LINE",
"466 1174 LINE",
"581 1320 LINE",
"590 1320 LINE",
"704 1174 LINE",
"832 1174 LINE",
"663 1421 LINE",
"507 1421 LINE"
);
},
{
closed = 1;
nodes = (
"830 1286 LINE",
"934 1308 OFFCURVE",
"1030 1345 OFFCURVE",
"1030 1460 CURVE SMOOTH",
"1030 1556 OFFCURVE",
"943 1605 OFFCURVE",
"771 1612 CURVE",
"754 1520 LINE",
"856 1514 OFFCURVE",
"895 1490 OFFCURVE",
"895 1439 CURVE SMOOTH",
"895 1398 OFFCURVE",
"860 1377 OFFCURVE",
"813 1364 CURVE"
);
}
);
width = 1144;
}
);
},
{
glyphname = uni1EAB.a;
lastChange = "2015-01-13 16:00:23 +0000";
layers = (
{
layerId = "250EF945-70FC-4F2D-944E-2E0BA5947215";
name = SemiBold;
paths = (
{
closed = 1;
nodes = (
"292 501 CURVE SMOOTH",
"292 721 OFFCURVE",
"411 864 OFFCURVE",
"560 864 CURVE SMOOTH",
"637 864 OFFCURVE",
"710 837 OFFCURVE",
"788 766 CURVE",
"788 265 LINE",
"712 177 OFFCURVE",
"637 136 OFFCURVE",
"550 136 CURVE SMOOTH",
"387 136 OFFCURVE",
"292 269 OFFCURVE"
);
},
{
closed = 1;
nodes = (
"93 498 CURVE SMOOTH",
"93 166 OFFCURVE",
"255 -25 OFFCURVE",
"506 -25 CURVE SMOOTH",
"619 -25 OFFCURVE",
"724 39 OFFCURVE",
"801 114 CURVE",
"807 114 LINE",
"823 0 LINE",
"982 0 LINE",
"982 999 LINE",
"826 999 LINE",
"810 902 LINE",
"805 902 LINE",
"717 983 OFFCURVE",
"635 1024 OFFCURVE",
"526 1024 CURVE SMOOTH",
"302 1024 OFFCURVE",
"93 823 OFFCURVE"
);
},
{
closed = 1;
nodes = (
"311 1459 CURVE",
"406 1459 LINE",
"417 1519 OFFCURVE",
"444 1545 OFFCURVE",
"484 1545 CURVE SMOOTH",
"548 1545 OFFCURVE",
"590 1459 OFFCURVE",
"693 1459 CURVE SMOOTH",
"787 1459 OFFCURVE",
"847 1537 OFFCURVE",
"858 1654 CURVE",
"764 1654 LINE",
"755 1596 OFFCURVE",
"725 1568 OFFCURVE",
"686 1568 CURVE SMOOTH",
"621 1568 OFFCURVE",
"581 1654 OFFCURVE",
"477 1654 CURVE SMOOTH",
"385 1654 OFFCURVE",
"324 1578 OFFCURVE"
);
},
{
closed = 1;
nodes = (
"322 1170 LINE",
"454 1170 LINE",
"581 1301 LINE",
"590 1301 LINE",
"716 1170 LINE",
"849 1170 LINE",
"672 1385 LINE",
"497 1385 LINE"
);
}
);
width = 1144;
}
);
},
{
glyphname = adieresis.a;
lastChange = "2015-01-13 16:00:23 +0000";
layers = (
{
layerId = "250EF945-70FC-4F2D-944E-2E0BA5947215";
name = SemiBold;
paths = (
{
closed = 1;
nodes = (
"292 501 CURVE SMOOTH",
"292 721 OFFCURVE",
"411 864 OFFCURVE",
"560 864 CURVE SMOOTH",
"637 864 OFFCURVE",
"710 837 OFFCURVE",
"788 766 CURVE",
"788 265 LINE",
"712 177 OFFCURVE",
"637 136 OFFCURVE",
"550 136 CURVE SMOOTH",
"387 136 OFFCURVE",
"292 269 OFFCURVE"
);
},
{
closed = 1;
nodes = (
"93 498 CURVE SMOOTH",
"93 166 OFFCURVE",
"255 -25 OFFCURVE",
"506 -25 CURVE SMOOTH",
"619 -25 OFFCURVE",
"724 39 OFFCURVE",
"801 114 CURVE",
"807 114 LINE",
"823 0 LINE",
"982 0 LINE",
"982 999 LINE",
"826 999 LINE",
"810 902 LINE",
"805 902 LINE",
"717 983 OFFCURVE",
"635 1024 OFFCURVE",
"526 1024 CURVE SMOOTH",
"302 1024 OFFCURVE",
"93 823 OFFCURVE"
);
},
{
closed = 1;
nodes = (
"403 1198 CURVE SMOOTH",
"467 1198 OFFCURVE",
"511 1244 OFFCURVE",
"511 1306 CURVE SMOOTH",
"511 1368 OFFCURVE",
"467 1414 OFFCURVE",
"403 1414 CURVE SMOOTH",
"341 1414 OFFCURVE",
"295 1368 OFFCURVE",
"295 1306 CURVE SMOOTH",
"295 1244 OFFCURVE",
"341 1198 OFFCURVE"
);
},
{
closed = 1;
nodes = (
"767 1198 CURVE SMOOTH",
"829 1198 OFFCURVE",
"875 1244 OFFCURVE",
"875 1306 CURVE SMOOTH",
"875 1368 OFFCURVE",
"829 1414 OFFCURVE",
"767 1414 CURVE SMOOTH",
"704 1414 OFFCURVE",
"658 1368 OFFCURVE",
"658 1306 CURVE SMOOTH",
"658 1244 OFFCURVE",
"704 1198 OFFCURVE"
);
}
);
width = 1144;
}
);
},
{
glyphname = uni1EA1.a;
lastChange = "2015-01-13 16:00:23 +0000";
layers = (
{
layerId = "250EF945-70FC-4F2D-944E-2E0BA5947215";
name = SemiBold;
paths = (
{
closed = 1;
nodes = (
"292 501 CURVE SMOOTH",
"292 721 OFFCURVE",
"411 864 OFFCURVE",
"560 864 CURVE SMOOTH",
"637 864 OFFCURVE",
"710 837 OFFCURVE",
"788 766 CURVE",
"788 265 LINE",
"712 177 OFFCURVE",
"637 136 OFFCURVE",
"550 136 CURVE SMOOTH",
"387 136 OFFCURVE",
"292 269 OFFCURVE"
);
},
{
closed = 1;
nodes = (
"93 498 CURVE SMOOTH",
"93 166 OFFCURVE",
"255 -25 OFFCURVE",
"506 -25 CURVE SMOOTH",
"619 -25 OFFCURVE",
"724 39 OFFCURVE",
"801 114 CURVE",
"807 114 LINE",
"823 0 LINE",
"982 0 LINE",
"982 999 LINE",
"826 999 LINE",
"810 902 LINE",
"805 902 LINE",
"717 983 OFFCURVE",
"635 1024 OFFCURVE",
"526 1024 CURVE SMOOTH",
"302 1024 OFFCURVE",
"93 823 OFFCURVE"
);
},
{
closed = 1;
nodes = (
"588 -430 CURVE SMOOTH",
"658 -430 OFFCURVE",
"709 -381 OFFCURVE",
"709 -310 CURVE SMOOTH",
"709 -242 OFFCURVE",
"658 -193 OFFCURVE",
"588 -193 CURVE SMOOTH",
"518 -193 OFFCURVE",
"467 -242 OFFCURVE",
"467 -310 CURVE SMOOTH",
"467 -381 OFFCURVE",
"518 -430 OFFCURVE"
);
}
);
width = 1144;
}
);
},
{
glyphname = agrave.a;
lastChange = "2015-01-13 16:00:23 +0000";
layers = (
{
layerId = "250EF945-70FC-4F2D-944E-2E0BA5947215";
name = SemiBold;
paths = (
{
closed = 1;
nodes = (
"292 501 CURVE SMOOTH",
"292 721 OFFCURVE",
"411 864 OFFCURVE",
"560 864 CURVE SMOOTH",
"637 864 OFFCURVE",
"710 837 OFFCURVE",
"788 766 CURVE",
"788 265 LINE",
"712 177 OFFCURVE",
"637 136 OFFCURVE",
"550 136 CURVE SMOOTH",
"387 136 OFFCURVE",
"292 269 OFFCURVE"
);
},
{
closed = 1;
nodes = (
"93 498 CURVE SMOOTH",
"93 166 OFFCURVE",
"255 -25 OFFCURVE",
"506 -25 CURVE SMOOTH",
"619 -25 OFFCURVE",
"724 39 OFFCURVE",
"801 114 CURVE",
"807 114 LINE",
"823 0 LINE",
"982 0 LINE",
"982 999 LINE",
"826 999 LINE",
"810 902 LINE",
"805 902 LINE",
"717 983 OFFCURVE",
"635 1024 OFFCURVE",
"526 1024 CURVE SMOOTH",
"302 1024 OFFCURVE",
"93 823 OFFCURVE"
);
},
{
closed = 1;
nodes = (
"580 1174 LINE",
"725 1174 LINE",
"539 1466 LINE",
"344 1466 LINE"
);
}
);
width = 1144;
}
);
},
{
glyphname = uni1EA3.a;
lastChange = "2015-01-13 16:00:23 +0000";
layers = (
{
layerId = "250EF945-70FC-4F2D-944E-2E0BA5947215";
name = SemiBold;
paths = (
{
closed = 1;
nodes = (
"292 501 CURVE SMOOTH",
"292 721 OFFCURVE",
"411 864 OFFCURVE",
"560 864 CURVE SMOOTH",
"637 864 OFFCURVE",
"710 837 OFFCURVE",
"788 766 CURVE",
"788 265 LINE",
"712 177 OFFCURVE",
"637 136 OFFCURVE",
"550 136 CURVE SMOOTH",
"387 136 OFFCURVE",
"292 269 OFFCURVE"
);
},
{
closed = 1;
nodes = (
"93 498 CURVE SMOOTH",
"93 166 OFFCURVE",
"255 -25 OFFCURVE",
"506 -25 CURVE SMOOTH",
"619 -25 OFFCURVE",
"724 39 OFFCURVE",
"801 114 CURVE",
"807 114 LINE",
"823 0 LINE",
"982 0 LINE",
"982 999 LINE",
"826 999 LINE",
"810 902 LINE",
"805 902 LINE",
"717 983 OFFCURVE",
"635 1024 OFFCURVE",
"526 1024 CURVE SMOOTH",
"302 1024 OFFCURVE",
"93 823 OFFCURVE"
);
},
{
closed = 1;
nodes = (
"525 1134 LINE",
"651 1153 OFFCURVE",
"764 1205 OFFCURVE",
"764 1328 CURVE SMOOTH",
"764 1433 OFFCURVE",
"661 1492 OFFCURVE",
"468 1498 CURVE",
"448 1391 LINE",
"561 1385 OFFCURVE",
"617 1358 OFFCURVE",
"617 1308 CURVE SMOOTH",
"617 1258 OFFCURVE",
"567 1236 OFFCURVE",
"505 1219 CURVE"
);
}
);
width = 1144;
}
);
},
{
glyphname = amacron.a;
lastChange = "2015-01-13 16:00:23 +0000";
layers = (
{
layerId = "250EF945-70FC-4F2D-944E-2E0BA5947215";
name = SemiBold;
paths = (
{
closed = 1;
nodes = (
"292 501 CURVE SMOOTH",
"292 721 OFFCURVE",
"411 864 OFFCURVE",
"560 864 CURVE SMOOTH",
"637 864 OFFCURVE",
"710 837 OFFCURVE",
"788 766 CURVE",
"788 265 LINE",
"712 177 OFFCURVE",
"637 136 OFFCURVE",
"550 136 CURVE SMOOTH",
"387 136 OFFCURVE",
"292 269 OFFCURVE"
);
},
{
closed = 1;
nodes = (
"93 498 CURVE SMOOTH",
"93 166 OFFCURVE",
"255 -25 OFFCURVE",
"506 -25 CURVE SMOOTH",
"619 -25 OFFCURVE",
"724 39 OFFCURVE",
"801 114 CURVE",
"807 114 LINE",
"823 0 LINE",
"982 0 LINE",
"982 999 LINE",
"826 999 LINE",
"810 902 LINE",
"805 902 LINE",
"717 983 OFFCURVE",
"635 1024 OFFCURVE",
"526 1024 CURVE SMOOTH",
"302 1024 OFFCURVE",
"93 823 OFFCURVE"
);
},
{
closed = 1;
nodes = (
"328 1228 LINE",
"841 1228 LINE",
"841 1358 LINE",
"328 1358 LINE"
);
}
);
width = 1144;
}
);
},
{
glyphname = aogonek.a;
lastChange = "2015-01-13 16:00:23 +0000";
layers = (
{
anchors = (
{
name = mark0;
position = "{584, 1044}";
}
);
layerId = "250EF945-70FC-4F2D-944E-2E0BA5947215";
name = SemiBold;
paths = (
{
closed = 1;
nodes = (
"292 501 CURVE SMOOTH",
"292 721 OFFCURVE",
"411 864 OFFCURVE",
"560 864 CURVE SMOOTH",
"637 864 OFFCURVE",
"710 837 OFFCURVE",
"788 766 CURVE",
"788 265 LINE",
"712 177 OFFCURVE",
"637 136 OFFCURVE",
"550 136 CURVE SMOOTH",
"387 136 OFFCURVE",
"292 269 OFFCURVE"
);
},
{
closed = 1;
nodes = (
"93 498 CURVE SMOOTH",
"93 166 OFFCURVE",
"255 -25 OFFCURVE",
"506 -25 CURVE SMOOTH",
"619 -25 OFFCURVE",
"724 39 OFFCURVE",
"801 114 CURVE",
"807 114 LINE",
"824 6 LINE",
"743 -52 OFFCURVE",
"664 -134 OFFCURVE",
"664 -247 CURVE SMOOTH",
"664 -363 OFFCURVE",
"749 -423 OFFCURVE",
"856 -423 CURVE SMOOTH",
"910 -423 OFFCURVE",
"983 -398 OFFCURVE",
"1025 -366 CURVE",
"978 -273 LINE",
"954 -288 OFFCURVE",
"928 -299 OFFCURVE",
"896 -299 CURVE SMOOTH",
"848 -299 OFFCURVE",
"804 -269 OFFCURVE",
"804 -207 CURVE SMOOTH",
"804 -131 OFFCURVE",
"859 -56 OFFCURVE",
"982 0 CURVE",
"982 999 LINE",
"826 999 LINE",
"810 902 LINE",
"805 902 LINE",
"717 983 OFFCURVE",
"635 1024 OFFCURVE",
"526 1024 CURVE SMOOTH",
"302 1024 OFFCURVE",
"93 823 OFFCURVE"
);
}
);
width = 1144;
}
);
},
{
glyphname = aring.a;
lastChange = "2015-01-13 16:00:23 +0000";
layers = (
{
layerId = "250EF945-70FC-4F2D-944E-2E0BA5947215";
name = SemiBold;
paths = (
{
closed = 1;
nodes = (
"292 501 CURVE SMOOTH",
"292 721 OFFCURVE",
"411 864 OFFCURVE",
"560 864 CURVE SMOOTH",
"637 864 OFFCURVE",
"710 837 OFFCURVE",
"788 766 CURVE",
"788 265 LINE",
"712 177 OFFCURVE",
"637 136 OFFCURVE",
"550 136 CURVE SMOOTH",
"387 136 OFFCURVE",
"292 269 OFFCURVE"
);
},
{
closed = 1;
nodes = (
"93 498 CURVE SMOOTH",
"93 166 OFFCURVE",
"255 -25 OFFCURVE",
"506 -25 CURVE SMOOTH",
"619 -25 OFFCURVE",
"724 39 OFFCURVE",
"801 114 CURVE",
"807 114 LINE",
"823 0 LINE",
"982 0 LINE",
"982 999 LINE",
"826 999 LINE",
"810 902 LINE",
"805 902 LINE",
"717 983 OFFCURVE",
"635 1024 OFFCURVE",
"526 1024 CURVE SMOOTH",
"302 1024 OFFCURVE",
"93 823 OFFCURVE"
);
},
{
closed = 1;
nodes = (
"586 1112 CURVE SMOOTH",
"701 1112 OFFCURVE",
"784 1189 OFFCURVE",
"784 1306 CURVE SMOOTH",
"784 1421 OFFCURVE",
"701 1498 OFFCURVE",
"586 1498 CURVE SMOOTH",
"468 1498 OFFCURVE",
"386 1421 OFFCURVE",
"386 1306 CURVE SMOOTH",
"386 1189 OFFCURVE",
"468 1112 OFFCURVE"
);
},
{
closed = 1;
nodes = (
"586 1195 CURVE SMOOTH",
"532 1195 OFFCURVE",
"490 1239 OFFCURVE",
"490 1306 CURVE SMOOTH",
"490 1372 OFFCURVE",
"532 1416 OFFCURVE",
"586 1416 CURVE SMOOTH",
"638 1416 OFFCURVE",
"681 1372 OFFCURVE",
"681 1306 CURVE SMOOTH",
"681 1239 OFFCURVE",
"638 1195 OFFCURVE"
);
}
);
width = 1144;
}
);
},
{
glyphname = atilde.a;
lastChange = "2015-01-13 16:00:23 +0000";
layers = (
{
layerId = "250EF945-70FC-4F2D-944E-2E0BA5947215";
name = SemiBold;
paths = (
{
closed = 1;
nodes = (
"292 501 CURVE SMOOTH",
"292 721 OFFCURVE",
"411 864 OFFCURVE",
"560 864 CURVE SMOOTH",
"637 864 OFFCURVE",
"710 837 OFFCURVE",
"788 766 CURVE",
"788 265 LINE",
"712 177 OFFCURVE",
"637 136 OFFCURVE",
"550 136 CURVE SMOOTH",
"387 136 OFFCURVE",
"292 269 OFFCURVE"
);
},
{
closed = 1;
nodes = (
"93 498 CURVE SMOOTH",
"93 166 OFFCURVE",
"255 -25 OFFCURVE",
"506 -25 CURVE SMOOTH",
"619 -25 OFFCURVE",
"724 39 OFFCURVE",
"801 114 CURVE",
"807 114 LINE",
"823 0 LINE",
"982 0 LINE",
"982 999 LINE",
"826 999 LINE",
"810 902 LINE",
"805 902 LINE",
"717 983 OFFCURVE",
"635 1024 OFFCURVE",
"526 1024 CURVE SMOOTH",
"302 1024 OFFCURVE",
"93 823 OFFCURVE"
);
},
{
closed = 1;
nodes = (
"290 1185 CURVE",
"396 1185 LINE",
"409 1253 OFFCURVE",
"431 1286 OFFCURVE",
"471 1286 CURVE SMOOTH",
"537 1286 OFFCURVE",
"601 1185 OFFCURVE",
"704 1185 CURVE SMOOTH",
"808 1185 OFFCURVE",
"867 1278 OFFCURVE",
"880 1412 CURVE",
"774 1412 LINE",
"763 1343 OFFCURVE",
"739 1310 OFFCURVE",
"700 1310 CURVE SMOOTH",
"635 1310 OFFCURVE",
"569 1412 OFFCURVE",
"465 1412 CURVE SMOOTH",
"361 1412 OFFCURVE",
"303 1319 OFFCURVE"
);
}
);
width = 1144;
}
);
},
{
glyphname = g.a;
lastChange = "2015-01-13 16:00:23 +0000";
layers = (
{
anchors = (
{
name = mark0;
position = "{904, -446}";
}
);
layerId = "250EF945-70FC-4F2D-944E-2E0BA5947215";
name = SemiBold;
paths = (
{
closed = 1;
nodes = (
"243 -197 CURVE",
"174 -331 LINE",
"281 -401 OFFCURVE",
"411 -434 OFFCURVE",
"531 -434 CURVE SMOOTH",
"822 -434 OFFCURVE",
"987 -287 OFFCURVE",
"987 -38 CURVE SMOOTH",
"987 999 LINE",
"827 999 LINE",
"811 906 LINE",
"807 906 LINE",
"726 984 OFFCURVE",
"650 1024 OFFCURVE",
"535 1024 CURVE SMOOTH",
"300 1024 OFFCURVE",
"100 832 OFFCURVE",
"100 515 CURVE SMOOTH",
"100 201 OFFCURVE",
"251 13 OFFCURVE",
"513 13 CURVE SMOOTH",
"632 13 OFFCURVE",
"723 68 OFFCURVE",
"798 140 CURVE",
"795 -36 LINE",
"788 -185 OFFCURVE",
"708 -280 OFFCURVE",
"531 -280 CURVE SMOOTH",
"439 -280 OFFCURVE",
"341 -261 OFFCURVE"
);
},
{
closed = 1;
nodes = (
"559 172 CURVE SMOOTH",
"389 172 OFFCURVE",
"296 301 OFFCURVE",
"296 518 CURVE SMOOTH",
"296 728 OFFCURVE",
"413 864 OFFCURVE",
"570 864 CURVE SMOOTH",
"650 864 OFFCURVE",
"715 837 OFFCURVE",
"795 766 CURVE",
"795 301 LINE",
"715 213 OFFCURVE",
"651 172 OFFCURVE"
);
}
);
width = 1154;
}
);
userData = {
com.typemytype.robofont.layerData = {
};
};
},
{
glyphname = gbreve.a;
lastChange = "2015-01-13 16:00:23 +0000";
layers = (
{
layerId = "250EF945-70FC-4F2D-944E-2E0BA5947215";
name = SemiBold;
paths = (
{
closed = 1;
nodes = (
"239 -191 CURVE",
"171 -325 LINE",
"278 -395 OFFCURVE",
"411 -434 OFFCURVE",
"531 -434 CURVE SMOOTH",
"822 -434 OFFCURVE",
"987 -287 OFFCURVE",
"987 -38 CURVE SMOOTH",
"987 999 LINE",
"827 999 LINE",
"811 906 LINE",
"807 906 LINE",
"724 984 OFFCURVE",
"642 1024 OFFCURVE",
"532 1024 CURVE SMOOTH",
"308 1024 OFFCURVE",
"100 826 OFFCURVE",
"100 515 CURVE SMOOTH",
"100 205 OFFCURVE",
"261 13 OFFCURVE",
"511 13 CURVE SMOOTH",
"624 13 OFFCURVE",
"723 70 OFFCURVE",
"798 140 CURVE",
"795 -36 LINE",
"788 -185 OFFCURVE",
"708 -280 OFFCURVE",
"531 -280 CURVE SMOOTH",
"439 -280 OFFCURVE",
"337 -255 OFFCURVE"
);
},
{
closed = 1;
nodes = (
"555 172 CURVE SMOOTH",
"392 172 OFFCURVE",
"296 304 OFFCURVE",
"296 517 CURVE SMOOTH",
"296 722 OFFCURVE",
"416 864 OFFCURVE",
"565 864 CURVE SMOOTH",
"642 864 OFFCURVE",
"715 837 OFFCURVE",
"795 766 CURVE",
"795 301 LINE",
"715 213 OFFCURVE",
"642 172 OFFCURVE"
);
},
{
closed = 1;
nodes = (
"595 1178 CURVE SMOOTH",
"774 1178 OFFCURVE",
"848 1316 OFFCURVE",
"858 1442 CURVE",
"741 1442 LINE",
"732 1365 OFFCURVE",
"685 1293 OFFCURVE",
"595 1293 CURVE SMOOTH",
"503 1293 OFFCURVE",
"457 1365 OFFCURVE",
"446 1442 CURVE",
"330 1442 LINE",
"340 1316 OFFCURVE",
"416 1178 OFFCURVE"
);
}
);
width = 1154;
}
);
},
{
glyphname = gcaron.a;
lastChange = "2015-01-13 16:00:23 +0000";
layers = (
{
layerId = "250EF945-70FC-4F2D-944E-2E0BA5947215";
name = SemiBold;
paths = (
{
closed = 1;
nodes = (
"239 -191 CURVE",
"171 -325 LINE",
"278 -395 OFFCURVE",
"411 -434 OFFCURVE",
"531 -434 CURVE SMOOTH",
"822 -434 OFFCURVE",
"987 -287 OFFCURVE",
"987 -38 CURVE SMOOTH",
"987 999 LINE",
"827 999 LINE",
"811 906 LINE",
"807 906 LINE",
"724 984 OFFCURVE",
"642 1024 OFFCURVE",
"532 1024 CURVE SMOOTH",
"308 1024 OFFCURVE",
"100 826 OFFCURVE",
"100 515 CURVE SMOOTH",
"100 205 OFFCURVE",
"261 13 OFFCURVE",
"511 13 CURVE SMOOTH",
"624 13 OFFCURVE",
"723 70 OFFCURVE",
"798 140 CURVE",
"795 -36 LINE",
"788 -185 OFFCURVE",
"708 -280 OFFCURVE",
"531 -280 CURVE SMOOTH",
"439 -280 OFFCURVE",
"337 -255 OFFCURVE"
);
},
{
closed = 1;
nodes = (
"555 172 CURVE SMOOTH",
"392 172 OFFCURVE",
"296 304 OFFCURVE",
"296 517 CURVE SMOOTH",
"296 722 OFFCURVE",
"416 864 OFFCURVE",
"565 864 CURVE SMOOTH",
"642 864 OFFCURVE",
"715 837 OFFCURVE",
"795 766 CURVE",
"795 301 LINE",
"715 213 OFFCURVE",
"642 172 OFFCURVE"
);
},
{
closed = 1;
nodes = (
"516 1174 LINE",
"673 1174 LINE",
"867 1466 LINE",
"731 1466 LINE",
"599 1283 LINE",
"591 1283 LINE",
"459 1466 LINE",
"321 1466 LINE"
);
}
);
width = 1154;
}
);
},
{
glyphname = gcircumflex.a;
lastChange = "2015-01-13 16:00:23 +0000";
layers = (
{
layerId = "250EF945-70FC-4F2D-944E-2E0BA5947215";
name = SemiBold;
paths = (
{
closed = 1;
nodes = (
"239 -191 CURVE",
"171 -325 LINE",
"278 -395 OFFCURVE",
"411 -434 OFFCURVE",
"531 -434 CURVE SMOOTH",
"822 -434 OFFCURVE",
"987 -287 OFFCURVE",
"987 -38 CURVE SMOOTH",
"987 999 LINE",
"827 999 LINE",
"811 906 LINE",
"807 906 LINE",
"724 984 OFFCURVE",
"642 1024 OFFCURVE",
"532 1024 CURVE SMOOTH",
"308 1024 OFFCURVE",
"100 826 OFFCURVE",
"100 515 CURVE SMOOTH",
"100 205 OFFCURVE",
"261 13 OFFCURVE",
"511 13 CURVE SMOOTH",
"624 13 OFFCURVE",
"723 70 OFFCURVE",
"798 140 CURVE",
"795 -36 LINE",
"788 -185 OFFCURVE",
"708 -280 OFFCURVE",
"531 -280 CURVE SMOOTH",
"439 -280 OFFCURVE",
"337 -255 OFFCURVE"
);
},
{
closed = 1;
nodes = (
"555 172 CURVE SMOOTH",
"392 172 OFFCURVE",
"296 304 OFFCURVE",
"296 517 CURVE SMOOTH",
"296 722 OFFCURVE",
"416 864 OFFCURVE",
"565 864 CURVE SMOOTH",
"642 864 OFFCURVE",
"715 837 OFFCURVE",
"795 766 CURVE",
"795 301 LINE",
"715 213 OFFCURVE",
"642 172 OFFCURVE"
);
},
{
closed = 1;
nodes = (
"321 1174 LINE",
"459 1174 LINE",
"591 1356 LINE",
"599 1356 LINE",
"731 1174 LINE",
"867 1174 LINE",
"673 1466 LINE",
"516 1466 LINE"
);
}
);
width = 1154;
}
);
},
{
glyphname = uni0123.a;
lastChange = "2015-01-13 16:00:23 +0000";
layers = (
{
layerId = "250EF945-70FC-4F2D-944E-2E0BA5947215";
name = SemiBold;
paths = (
{
closed = 1;
nodes = (
"239 -191 CURVE",
"171 -325 LINE",
"278 -395 OFFCURVE",
"411 -434 OFFCURVE",
"531 -434 CURVE SMOOTH",
"822 -434 OFFCURVE",
"987 -287 OFFCURVE",
"987 -38 CURVE SMOOTH",
"987 999 LINE",
"827 999 LINE",
"811 906 LINE",
"807 906 LINE",
"724 984 OFFCURVE",
"642 1024 OFFCURVE",
"532 1024 CURVE SMOOTH",
"308 1024 OFFCURVE",
"100 826 OFFCURVE",
"100 515 CURVE SMOOTH",
"100 205 OFFCURVE",
"261 13 OFFCURVE",
"511 13 CURVE SMOOTH",
"624 13 OFFCURVE",
"723 70 OFFCURVE",
"798 140 CURVE",
"795 -36 LINE",
"788 -185 OFFCURVE",
"708 -280 OFFCURVE",
"531 -280 CURVE SMOOTH",
"439 -280 OFFCURVE",
"337 -255 OFFCURVE"
);
},
{
closed = 1;
nodes = (
"555 172 CURVE SMOOTH",
"392 172 OFFCURVE",
"296 304 OFFCURVE",
"296 517 CURVE SMOOTH",
"296 722 OFFCURVE",
"416 864 OFFCURVE",
"565 864 CURVE SMOOTH",
"642 864 OFFCURVE",
"715 837 OFFCURVE",
"795 766 CURVE",
"795 301 LINE",
"715 213 OFFCURVE",
"642 172 OFFCURVE"
);
},
{
closed = 1;
nodes = (
"655 1109 CURVE",
"695 1194 LINE",
"636 1208 OFFCURVE",
"592 1231 OFFCURVE",
"592 1282 CURVE SMOOTH",
"592 1332 OFFCURVE",
"667 1358 OFFCURVE",
"772 1371 CURVE",
"754 1462 LINE",
"592 1449 OFFCURVE",
"445 1392 OFFCURVE",
"445 1270 CURVE SMOOTH",
"445 1177 OFFCURVE",
"508 1129 OFFCURVE"
);
}
);
width = 1154;
}
);
},
{
glyphname = gdotaccent.a;
lastChange = "2015-01-13 16:00:23 +0000";
layers = (
{
layerId = "250EF945-70FC-4F2D-944E-2E0BA5947215";
name = SemiBold;
paths = (
{
closed = 1;
nodes = (
"239 -191 CURVE",
"171 -325 LINE",
"278 -395 OFFCURVE",
"411 -434 OFFCURVE",
"531 -434 CURVE SMOOTH",
"822 -434 OFFCURVE",
"987 -287 OFFCURVE",
"987 -38 CURVE SMOOTH",
"987 999 LINE",
"827 999 LINE",
"811 906 LINE",
"807 906 LINE",
"724 984 OFFCURVE",
"642 1024 OFFCURVE",
"532 1024 CURVE SMOOTH",
"308 1024 OFFCURVE",
"100 826 OFFCURVE",
"100 515 CURVE SMOOTH",
"100 205 OFFCURVE",
"261 13 OFFCURVE",
"511 13 CURVE SMOOTH",
"624 13 OFFCURVE",
"723 70 OFFCURVE",
"798 140 CURVE",
"795 -36 LINE",
"788 -185 OFFCURVE",
"708 -280 OFFCURVE",
"531 -280 CURVE SMOOTH",
"439 -280 OFFCURVE",
"337 -255 OFFCURVE"
);
},
{
closed = 1;
nodes = (
"555 172 CURVE SMOOTH",
"392 172 OFFCURVE",
"296 304 OFFCURVE",
"296 517 CURVE SMOOTH",
"296 722 OFFCURVE",
"416 864 OFFCURVE",
"565 864 CURVE SMOOTH",
"642 864 OFFCURVE",
"715 837 OFFCURVE",
"795 766 CURVE",
"795 301 LINE",
"715 213 OFFCURVE",
"642 172 OFFCURVE"
);
},
{
closed = 1;
nodes = (
"595 1194 CURVE SMOOTH",
"664 1194 OFFCURVE",
"715 1242 OFFCURVE",
"715 1313 CURVE SMOOTH",
"715 1382 OFFCURVE",
"664 1432 OFFCURVE",
"595 1432 CURVE SMOOTH",
"523 1432 OFFCURVE",
"474 1382 OFFCURVE",
"474 1313 CURVE SMOOTH",
"474 1242 OFFCURVE",
"523 1194 OFFCURVE"
);
}
);
width = 1154;
}
);
},
{
glyphname = uni1E21.a;
lastChange = "2015-01-13 16:00:23 +0000";
layers = (
{
layerId = "250EF945-70FC-4F2D-944E-2E0BA5947215";
name = SemiBold;
paths = (
{
closed = 1;
nodes = (
"239 -191 CURVE",
"171 -325 LINE",
"278 -395 OFFCURVE",
"411 -434 OFFCURVE",
"531 -434 CURVE SMOOTH",
"822 -434 OFFCURVE",
"987 -287 OFFCURVE",
"987 -38 CURVE SMOOTH",
"987 999 LINE",
"827 999 LINE",
"811 906 LINE",
"807 906 LINE",
"724 984 OFFCURVE",
"642 1024 OFFCURVE",
"532 1024 CURVE SMOOTH",
"308 1024 OFFCURVE",
"100 826 OFFCURVE",
"100 515 CURVE SMOOTH",
"100 205 OFFCURVE",
"261 13 OFFCURVE",
"511 13 CURVE SMOOTH",
"624 13 OFFCURVE",
"723 70 OFFCURVE",
"798 140 CURVE",
"795 -36 LINE",
"788 -185 OFFCURVE",
"708 -280 OFFCURVE",
"531 -280 CURVE SMOOTH",
"439 -280 OFFCURVE",
"337 -255 OFFCURVE"
);
},
{
closed = 1;
nodes = (
"555 172 CURVE SMOOTH",
"392 172 OFFCURVE",
"296 304 OFFCURVE",
"296 517 CURVE SMOOTH",
"296 722 OFFCURVE",
"416 864 OFFCURVE",
"565 864 CURVE SMOOTH",
"642 864 OFFCURVE",
"715 837 OFFCURVE",
"795 766 CURVE",
"795 301 LINE",
"715 213 OFFCURVE",
"642 172 OFFCURVE"
);
},
{
closed = 1;
nodes = (
"337 1228 LINE",
"851 1228 LINE",
"851 1358 LINE",
"337 1358 LINE"
);
}
);
width = 1154;
}
);
},
{
glyphname = l.a;
lastChange = "2015-01-13 16:00:23 +0000";
layers = (
{
anchors = (
{
name = mark0;
position = "{258, -45}";
}
);
layerId = "250EF945-70FC-4F2D-944E-2E0BA5947215";
name = SemiBold;
paths = (
{
closed = 1;
nodes = (
"162 0 LINE",
"354 0 LINE",
"354 1454 LINE",
"162 1454 LINE"
);
}
);
width = 515;
}
);
},
{
glyphname = lacute.a;
lastChange = "2015-01-13 16:00:23 +0000";
layers = (
{
layerId = "250EF945-70FC-4F2D-944E-2E0BA5947215";
name = SemiBold;
paths = (
{
closed = 1;
nodes = (
"162 0 LINE",
"354 0 LINE",
"354 1454 LINE",
"162 1454 LINE"
);
},
{
closed = 1;
nodes = (
"535 1785 LINE",
"320 1785 LINE",
"140 1553 LINE",
"300 1553 LINE"
);
}
);
width = 515;
}
);
},
{
glyphname = lcaron.a;
lastChange = "2015-01-13 16:00:23 +0000";
layers = (
{
layerId = "250EF945-70FC-4F2D-944E-2E0BA5947215";
name = SemiBold;
paths = (
{
closed = 1;
nodes = (
"162 0 LINE",
"354 0 LINE",
"354 1454 LINE",
"162 1454 LINE"
);
},
{
closed = 1;
nodes = (
"558 1122 LINE",
"590 1439 LINE",
"591 1560 LINE",
"458 1560 LINE",
"466 1122 LINE"
);
}
);
width = 563;
}
);
},
{
glyphname = uni013C.a;
lastChange = "2015-01-13 16:00:23 +0000";
layers = (
{
layerId = "250EF945-70FC-4F2D-944E-2E0BA5947215";
name = SemiBold;
paths = (
{
closed = 1;
nodes = (
"162 0 LINE",
"354 0 LINE",
"354 1454 LINE",
"162 1454 LINE"
);
},
{
closed = 1;
nodes = (
"196 -96 CURVE",
"155 -180 LINE",
"213 -194 OFFCURVE",
"256 -217 OFFCURVE",
"256 -267 CURVE SMOOTH",
"256 -319 OFFCURVE",
"181 -345 OFFCURVE",
"77 -358 CURVE",
"94 -447 LINE",
"257 -435 OFFCURVE",
"403 -379 OFFCURVE",
"403 -256 CURVE SMOOTH",
"403 -163 OFFCURVE",
"341 -116 OFFCURVE"
);
}
);
width = 515;
}
);
},
{
glyphname = ldot.a;
lastChange = "2015-01-13 16:00:23 +0000";
layers = (
{
layerId = "250EF945-70FC-4F2D-944E-2E0BA5947215";
name = SemiBold;
paths = (
{
closed = 1;
nodes = (
"162 0 LINE",
"354 0 LINE",
"354 1454 LINE",
"162 1454 LINE"
);
},
{
closed = 1;
nodes = (
"512 667 CURVE SMOOTH",
"512 586 OFFCURVE",
"571 529 OFFCURVE",
"646 529 CURVE SMOOTH",
"720 529 OFFCURVE",
"777 586 OFFCURVE",
"777 667 CURVE SMOOTH",
"777 750 OFFCURVE",
"720 807 OFFCURVE",
"646 807 CURVE SMOOTH",
"571 807 OFFCURVE",
"512 750 OFFCURVE"
);
}
);
width = 775;
}
);
},
{
glyphname = uni1E37.a;
lastChange = "2015-01-13 16:00:23 +0000";
layers = (
{
layerId = "250EF945-70FC-4F2D-944E-2E0BA5947215";
name = SemiBold;
paths = (
{
closed = 1;
nodes = (
"162 0 LINE",
"354 0 LINE",
"354 1454 LINE",
"162 1454 LINE"
);
},
{
closed = 1;
nodes = (
"258 -430 CURVE SMOOTH",
"328 -430 OFFCURVE",
"378 -381 OFFCURVE",
"378 -310 CURVE SMOOTH",
"378 -242 OFFCURVE",
"328 -193 OFFCURVE",
"258 -193 CURVE SMOOTH",
"187 -193 OFFCURVE",
"136 -242 OFFCURVE",
"136 -310 CURVE SMOOTH",
"136 -381 OFFCURVE",
"187 -430 OFFCURVE"
);
}
);
width = 515;
}
);
},
{
glyphname = uni1E39.a;
lastChange = "2015-01-13 16:00:23 +0000";
layers = (
{
layerId = "250EF945-70FC-4F2D-944E-2E0BA5947215";
name = SemiBold;
paths = (
{
closed = 1;
nodes = (
"162 0 LINE",
"354 0 LINE",
"354 1454 LINE",
"162 1454 LINE"
);
},
{
closed = 1;
nodes = (
"0 1674 LINE",
"513 1674 LINE",
"513 1807 LINE",
"0 1807 LINE"
);
},
{
closed = 1;
nodes = (
"258 -430 CURVE SMOOTH",
"328 -430 OFFCURVE",
"378 -381 OFFCURVE",
"378 -310 CURVE SMOOTH",
"378 -242 OFFCURVE",
"328 -193 OFFCURVE",
"258 -193 CURVE SMOOTH",
"187 -193 OFFCURVE",
"136 -242 OFFCURVE",
"136 -310 CURVE SMOOTH",
"136 -381 OFFCURVE",
"187 -430 OFFCURVE"
);
}
);
width = 515;
}
);
},
{
glyphname = uni1E3B.a;
lastChange = "2015-01-13 16:00:23 +0000";
layers = (
{
layerId = "250EF945-70FC-4F2D-944E-2E0BA5947215";
name = SemiBold;
paths = (
{
closed = 1;
nodes = (
"162 0 LINE",
"354 0 LINE",
"354 1454 LINE",
"162 1454 LINE"
);
},
{
closed = 1;
nodes = (
"513 -224 LINE",
"-2 -224 LINE",
"-2 -357 LINE",
"513 -357 LINE"
);
}
);
width = 515;
}
);
},
{
glyphname = lslash.a;
lastChange = "2015-01-13 16:00:23 +0000";
layers = (
{
layerId = "250EF945-70FC-4F2D-944E-2E0BA5947215";
name = SemiBold;
paths = (
{
closed = 1;
nodes = (
"507 1007 LINE",
"354 911 LINE",
"354 1454 LINE",
"162 1454 LINE",
"162 813 LINE",
"44 738 LINE",
"44 577 LINE",
"162 652 LINE",
"162 0 LINE",
"354 0 LINE",
"354 749 LINE",
"507 846 LINE"
);
}
);
width = 542;
}
);
},
{
glyphname = iogonek.d;
lastChange = "2015-01-13 16:00:23 +0000";
layers = (
{
anchors = (
{
name = mark0;
position = "{259, 1044}";
}
);
layerId = "250EF945-70FC-4F2D-944E-2E0BA5947215";
name = SemiBold;
paths = (
{
closed = 1;
nodes = (
"162 0 LINE",
"210 0 LINE",
"155 -54 OFFCURVE",
"79 -135 OFFCURVE",
"79 -247 CURVE SMOOTH",
"79 -363 OFFCURVE",
"164 -423 OFFCURVE",
"271 -423 CURVE SMOOTH",
"324 -423 OFFCURVE",
"398 -398 OFFCURVE",
"439 -366 CURVE",
"393 -273 LINE",
"366 -288 OFFCURVE",
"343 -299 OFFCURVE",
"313 -299 CURVE SMOOTH",
"263 -299 OFFCURVE",
"218 -269 OFFCURVE",
"218 -207 CURVE SMOOTH",
"218 -131 OFFCURVE",
"267 -56 OFFCURVE",
"354 0 CURVE",
"354 999 LINE",
"162 999 LINE"
);
}
);
width = 515;
}
);
},
{
glyphname = a.supa;
lastChange = "2015-01-13 16:00:23 +0000";
layers = (
{
layerId = "250EF945-70FC-4F2D-944E-2E0BA5947215";
name = SemiBold;
paths = (
{
closed = 1;
nodes = (
"212 876 CURVE SMOOTH",
"212 1009 OFFCURVE",
"288 1095 OFFCURVE",
"378 1095 CURVE SMOOTH",
"424 1095 OFFCURVE",
"473 1077 OFFCURVE",
"525 1032 CURVE",
"525 714 LINE",
"474 660 OFFCURVE",
"430 634 OFFCURVE",
"380 634 CURVE SMOOTH",
"267 634 OFFCURVE",
"212 718 OFFCURVE"
);
},
{
closed = 1;
nodes = (
"65 872 CURVE SMOOTH",
"65 646 OFFCURVE",
"172 516 OFFCURVE",
"345 516 CURVE SMOOTH",
"420 516 OFFCURVE",
"479 556 OFFCURVE",
"532 603 CURVE",
"540 603 LINE",
"551 532 LINE",
"667 532 LINE",
"667 1194 LINE",
"557 1194 LINE",
"544 1128 LINE",
"536 1128 LINE",
"481 1183 OFFCURVE",
"422 1211 OFFCURVE",
"353 1211 CURVE SMOOTH",
"206 1211 OFFCURVE",
"65 1082 OFFCURVE"
);
}
);
width = 770;
}
);
},
{
glyphname = g.supa;
lastChange = "2015-01-13 16:00:23 +0000";
layers = (
{
layerId = "250EF945-70FC-4F2D-944E-2E0BA5947215";
name = SemiBold;
paths = (
{
closed = 1;
nodes = (
"164 409 CURVE",
"113 312 LINE",
"185 264 OFFCURVE",
"276 236 OFFCURVE",
"355 236 CURVE SMOOTH",
"555 236 OFFCURVE",
"671 342 OFFCURVE",
"671 516 CURVE SMOOTH",
"671 1194 LINE",
"558 1194 LINE",
"545 1131 LINE",
"539 1131 LINE",
"486 1185 OFFCURVE",
"427 1210 OFFCURVE",
"356 1210 CURVE SMOOTH",
"208 1210 OFFCURVE",
"68 1081 OFFCURVE",
"68 876 CURVE SMOOTH",
"68 681 OFFCURVE",
"177 551 OFFCURVE",
"350 551 CURVE SMOOTH",
"420 551 OFFCURVE",
"477 584 OFFCURVE",
"535 632 CURVE",
"530 548 LINE",
"530 524 LINE",
"530 426 OFFCURVE",
"470 352 OFFCURVE",
"356 352 CURVE SMOOTH",
"295 352 OFFCURVE",
"225 369 OFFCURVE"
);
},
{
closed = 1;
nodes = (
"382 669 CURVE SMOOTH",
"269 669 OFFCURVE",
"215 751 OFFCURVE",
"215 879 CURVE SMOOTH",
"215 1009 OFFCURVE",
"290 1093 OFFCURVE",
"380 1093 CURVE SMOOTH",
"426 1093 OFFCURVE",
"480 1075 OFFCURVE",
"530 1031 CURVE",
"530 746 LINE",
"477 694 OFFCURVE",
"433 669 OFFCURVE"
);
}
);
width = 778;
}
);
},
{
glyphname = l.supa;
lastChange = "2015-01-13 16:00:23 +0000";
layers = (
{
layerId = "250EF945-70FC-4F2D-944E-2E0BA5947215";
name = SemiBold;
paths = (
{
closed = 1;
nodes = (
"102 532 LINE",
"245 532 LINE",
"245 1490 LINE",
"102 1490 LINE"
);
}
);
width = 348;
}
);
},
{
glyphname = a.sups;
lastChange = "2015-01-16 19:45:15 +0000";
layers = (
{
hints = (
{
horizontal = 1;
origin = "{0, 0}";
target = "{0, 0}";
type = Tag;
name = hr00;
}
);
layerId = "250EF945-70FC-4F2D-944E-2E0BA5947215";
name = SemiBold;
paths = (
{
closed = 1;
nodes = (
"277 516 CURVE SMOOTH",
"359 516 OFFCURVE",
"426 558 OFFCURVE",
"480 607 CURVE",
"489 607 LINE",
"504 532 LINE",
"618 532 LINE",
"618 931 LINE",
"618 1111 OFFCURVE",
"542 1211 OFFCURVE",
"376 1211 CURVE SMOOTH",
"269 1211 OFFCURVE",
"170 1167 OFFCURVE",
"98 1123 CURVE",
"151 1026 LINE",
"208 1060 OFFCURVE",
"285 1095 OFFCURVE",
"353 1095 CURVE SMOOTH",
"445 1095 OFFCURVE",
"473 1037 OFFCURVE",
"475 955 CURVE",
"196 929 OFFCURVE",
"73 854 OFFCURVE",
"73 711 CURVE SMOOTH",
"73 597 OFFCURVE",
"155 516 OFFCURVE"
);
},
{
closed = 1;
nodes = (
"319 629 CURVE SMOOTH",
"254 629 OFFCURVE",
"212 658 OFFCURVE",
"212 722 CURVE SMOOTH",
"212 793 OFFCURVE",
"278 846 OFFCURVE",
"475 867 CURVE",
"475 705 LINE",
"421 654 OFFCURVE",
"372 629 OFFCURVE"
);
}
);
width = 712;
}
);
unicode = 1D43;
userData = {
com.adobe.type.autohint = "ICA8aGludFNldExpc3Q+CiAgICA8aGludHNldCBw";
};
},
{
glyphname = b.sups;
lastChange = "2015-01-16 19:45:15 +0000";
layers = (
{
hints = (
{
horizontal = 1;
origin = "{0, 0}";
target = "{0, 0}";
type = Tag;
name = hr00;
}
);
layerId = "250EF945-70FC-4F2D-944E-2E0BA5947215";
name = SemiBold;
paths = (
{
closed = 1;
nodes = (
"102 532 LINE",
"213 532 LINE",
"226 599 LINE",
"234 599 LINE",
"289 545 OFFCURVE",
"358 516 OFFCURVE",
"420 516 CURVE SMOOTH",
"569 516 OFFCURVE",
"705 647 OFFCURVE",
"705 876 CURVE SMOOTH",
"705 1078 OFFCURVE",
"609 1211 OFFCURVE",
"439 1211 CURVE SMOOTH",
"365 1211 OFFCURVE",
"299 1172 OFFCURVE",
"239 1122 CURVE",
"245 1236 LINE",
"245 1490 LINE",
"102 1490 LINE"
);
},
{
closed = 1;
nodes = (
"245 693 CURVE",
"245 1012 LINE",
"299 1064 OFFCURVE",
"352 1093 OFFCURVE",
"402 1093 CURVE SMOOTH",
"510 1093 OFFCURVE",
"558 1011 OFFCURVE",
"558 873 CURVE SMOOTH",
"558 718 OFFCURVE",
"487 633 OFFCURVE",
"394 633 CURVE SMOOTH",
"350 633 OFFCURVE",
"296 649 OFFCURVE"
);
}
);
width = 770;
}
);
unicode = 1D47;
userData = {
com.adobe.type.autohint = "ICA8aGludFNldExpc3Q+CiAgICA8aGludHNldCBw";
};
},
{
glyphname = c.sups;
lastChange = "2015-01-16 19:45:15 +0000";
layers = (
{
hints = (
{
horizontal = 1;
origin = "{0, 0}";
target = "{0, 0}";
type = Tag;
name = hr00;
}
);
layerId = "250EF945-70FC-4F2D-944E-2E0BA5947215";
name = SemiBold;
paths = (
{
closed = 1;
nodes = (
"378 516 CURVE SMOOTH",
"481 516 OFFCURVE",
"551 555 OFFCURVE",
"598 594 CURVE",
"539 687 LINE",
"502 658 OFFCURVE",
"460 633 OFFCURVE",
"393 633 CURVE SMOOTH",
"282 633 OFFCURVE",
"204 727 OFFCURVE",
"204 863 CURVE SMOOTH",
"204 1000 OFFCURVE",
"286 1095 OFFCURVE",
"393 1095 CURVE SMOOTH",
"449 1095 OFFCURVE",
"481 1077 OFFCURVE",
"519 1047 CURVE",
"588 1140 LINE",
"548 1174 OFFCURVE",
"480 1211 OFFCURVE",
"383 1211 CURVE SMOOTH",
"211 1211 OFFCURVE",
"59 1083 OFFCURVE",
"59 863 CURVE SMOOTH",
"59 642 OFFCURVE",
"194 516 OFFCURVE"
);
}
);
width = 630;
}
);
unicode = 1D9C;
userData = {
com.adobe.type.autohint = "ICA8aGludFNldExpc3Q+CiAgICA8aGludHNldCBw";
};
},
{
glyphname = d.sups;
lastChange = "2015-01-16 19:45:15 +0000";
layers = (
{
hints = (
{
horizontal = 1;
origin = "{0, 0}";
target = "{0, 0}";
type = Tag;
name = hr00;
}
);
layerId = "250EF945-70FC-4F2D-944E-2E0BA5947215";
name = SemiBold;
paths = (
{
closed = 1;
nodes = (
"345 516 CURVE SMOOTH",
"420 516 OFFCURVE",
"479 556 OFFCURVE",
"532 603 CURVE",
"538 603 LINE",
"552 532 LINE",
"667 532 LINE",
"667 1490 LINE",
"525 1490 LINE",
"525 1250 LINE",
"532 1136 LINE",
"479 1183 OFFCURVE",
"422 1211 OFFCURVE",
"351 1211 CURVE SMOOTH",
"206 1211 OFFCURVE",
"65 1082 OFFCURVE",
"65 876 CURVE SMOOTH",
"65 646 OFFCURVE",
"172 516 OFFCURVE"
);
},
{
closed = 1;
nodes = (
"380 633 CURVE SMOOTH",
"266 633 OFFCURVE",
"212 718 OFFCURVE",
"212 876 CURVE SMOOTH",
"212 1009 OFFCURVE",
"288 1095 OFFCURVE",
"378 1095 CURVE SMOOTH",
"424 1095 OFFCURVE",
"473 1077 OFFCURVE",
"525 1032 CURVE",
"525 714 LINE",
"474 660 OFFCURVE",
"430 633 OFFCURVE"
);
}
);
width = 770;
}
);
unicode = 1D48;
userData = {
com.adobe.type.autohint = "ICA8aGludFNldExpc3Q+CiAgICA8aGludHNldCBw";
};
},
{
glyphname = e.sups;
lastChange = "2015-01-16 19:45:15 +0000";
layers = (
{
hints = (
{
horizontal = 1;
origin = "{0, 0}";
target = "{0, 0}";
type = Tag;
name = hr00;
}
);
layerId = "250EF945-70FC-4F2D-944E-2E0BA5947215";
name = SemiBold;
paths = (
{
closed = 1;
nodes = (
"384 516 CURVE SMOOTH",
"472 516 OFFCURVE",
"553 548 OFFCURVE",
"618 589 CURVE",
"564 679 LINE",
"517 648 OFFCURVE",
"462 629 OFFCURVE",
"400 629 CURVE SMOOTH",
"284 629 OFFCURVE",
"204 701 OFFCURVE",
"195 831 CURVE",
"632 831 LINE",
"638 860 OFFCURVE",
"640 874 OFFCURVE",
"640 904 CURVE SMOOTH",
"640 1040 OFFCURVE",
"570 1211 OFFCURVE",
"366 1211 CURVE SMOOTH",
"199 1211 OFFCURVE",
"56 1075 OFFCURVE",
"56 863 CURVE SMOOTH",
"56 642 OFFCURVE",
"201 516 OFFCURVE"
);
},
{
closed = 1;
nodes = (
"192 918 LINE",
"209 1033 OFFCURVE",
"274 1098 OFFCURVE",
"367 1098 CURVE SMOOTH",
"478 1098 OFFCURVE",
"515 1007 OFFCURVE",
"515 918 CURVE"
);
}
);
width = 692;
}
);
unicode = 1D49;
userData = {
com.adobe.type.autohint = "ICA8aGludFNldExpc3Q+CiAgICA8aGludHNldCBw";
};
},
{
glyphname = eacute.sups;
lastChange = "2015-01-16 19:45:15 +0000";
layers = (
{
hints = (
{
horizontal = 1;
origin = "{0, 0}";
target = "{0, 0}";
type = Tag;
name = hr00;
}
);
layerId = "250EF945-70FC-4F2D-944E-2E0BA5947215";
name = SemiBold;
paths = (
{
closed = 1;
nodes = (
"268 1309 LINE",
"379 1309 LINE",
"537 1504 LINE",
"390 1504 LINE"
);
},
{
closed = 1;
nodes = (
"384 516 CURVE SMOOTH",
"472 516 OFFCURVE",
"553 548 OFFCURVE",
"618 589 CURVE",
"564 679 LINE",
"517 648 OFFCURVE",
"462 629 OFFCURVE",
"400 629 CURVE SMOOTH",
"284 629 OFFCURVE",
"204 701 OFFCURVE",
"195 831 CURVE",
"632 831 LINE",
"638 860 OFFCURVE",
"640 874 OFFCURVE",
"640 904 CURVE SMOOTH",
"640 1040 OFFCURVE",
"570 1211 OFFCURVE",
"366 1211 CURVE SMOOTH",
"199 1211 OFFCURVE",
"56 1075 OFFCURVE",
"56 863 CURVE SMOOTH",
"56 642 OFFCURVE",
"201 516 OFFCURVE"
);
},
{
closed = 1;
nodes = (
"192 918 LINE",
"209 1033 OFFCURVE",
"274 1098 OFFCURVE",
"367 1098 CURVE SMOOTH",
"478 1098 OFFCURVE",
"515 1007 OFFCURVE",
"515 918 CURVE"
);
}
);
width = 692;
}
);
userData = {
com.adobe.type.autohint = "ICA8aGludFNldExpc3Q+CiAgICA8aGludHNldCBw";
};
},
{
glyphname = egrave.sups;
lastChange = "2015-01-16 19:45:15 +0000";
layers = (
{
hints = (
{
horizontal = 1;
origin = "{0, 0}";
target = "{0, 0}";
type = Tag;
name = hr00;
}
);
layerId = "250EF945-70FC-4F2D-944E-2E0BA5947215";
name = SemiBold;
paths = (
{
closed = 1;
nodes = (
"353 1309 LINE",
"464 1309 LINE",
"343 1504 LINE",
"197 1504 LINE"
);
},
{
closed = 1;
nodes = (
"384 516 CURVE SMOOTH",
"472 516 OFFCURVE",
"553 548 OFFCURVE",
"618 589 CURVE",
"564 679 LINE",
"517 648 OFFCURVE",
"462 629 OFFCURVE",
"400 629 CURVE SMOOTH",
"284 629 OFFCURVE",
"204 701 OFFCURVE",
"195 831 CURVE",
"632 831 LINE",
"638 860 OFFCURVE",
"640 874 OFFCURVE",
"640 904 CURVE SMOOTH",
"640 1040 OFFCURVE",
"570 1211 OFFCURVE",
"366 1211 CURVE SMOOTH",
"199 1211 OFFCURVE",
"56 1075 OFFCURVE",
"56 863 CURVE SMOOTH",
"56 642 OFFCURVE",
"201 516 OFFCURVE"
);
},
{
closed = 1;
nodes = (
"192 918 LINE",
"209 1033 OFFCURVE",
"274 1098 OFFCURVE",
"367 1098 CURVE SMOOTH",
"478 1098 OFFCURVE",
"515 1007 OFFCURVE",
"515 918 CURVE"
);
}
);
width = 692;
}
);
userData = {
com.adobe.type.autohint = "ICA8aGludFNldExpc3Q+CiAgICA8aGludHNldCBw";
};
},
{
glyphname = f.sups;
lastChange = "2015-01-16 19:45:15 +0000";
layers = (
{
hints = (
{
horizontal = 1;
origin = "{0, 0}";
target = "{0, 0}";
type = Tag;
name = hr01;
},
{
horizontal = 1;
origin = "{0, 8}";
target = "{0, 0}";
type = Tag;
name = hr02;
},
{
horizontal = 1;
origin = "{0, 9}";
target = "{0, 0}";
type = Tag;
name = hr03;
}
);
layerId = "250EF945-70FC-4F2D-944E-2E0BA5947215";
name = SemiBold;
paths = (
{
closed = 1;
nodes = (
"463 1492 LINE",
"429 1506 OFFCURVE",
"391 1515 OFFCURVE",
"344 1515 CURVE SMOOTH",
"194 1515 OFFCURVE",
"130 1407 OFFCURVE",
"130 1269 CURVE SMOOTH",
"130 1195 LINE",
"38 1189 LINE",
"38 1083 LINE",
"130 1083 LINE",
"130 532 LINE",
"272 532 LINE",
"272 1083 LINE",
"408 1083 LINE",
"408 1195 LINE",
"272 1195 LINE",
"272 1277 LINE",
"272 1355 OFFCURVE",
"303 1401 OFFCURVE",
"359 1401 CURVE SMOOTH",
"391 1401 OFFCURVE",
"416 1393 OFFCURVE",
"434 1387 CURVE"
);
}
);
width = 424;
}
);
unicode = 1DA0;
userData = {
com.adobe.type.autohint = "ICA8aGludFNldExpc3Q+CiAgICA8aGludHNldCBw";
};
},
{
glyphname = g.sups;
lastChange = "2015-01-16 19:45:15 +0000";
layers = (
{
hints = (
{
horizontal = 1;
origin = "{0, 0}";
target = "{0, 0}";
type = Tag;
name = hr01;
},
{
horizontal = 1;
origin = "{1, 13}";
target = "{0, 0}";
type = Tag;
name = hr02;
},
{
horizontal = 1;
origin = "{1, 31}";
target = "{0, 0}";
type = Tag;
name = hr03;
},
{
horizontal = 1;
origin = "{1, 41}";
target = "{0, 0}";
type = Tag;
name = hr04;
},
{
horizontal = 1;
origin = "{2, 0}";
target = "{0, 0}";
type = Tag;
name = hr06;
}
);
layerId = "250EF945-70FC-4F2D-944E-2E0BA5947215";
name = SemiBold;
paths = (
{
closed = 1;
nodes = (
"179 433 CURVE SMOOTH",
"179 465 OFFCURVE",
"200 498 OFFCURVE",
"237 523 CURVE",
"266 515 OFFCURVE",
"300 515 OFFCURVE",
"324 515 CURVE SMOOTH",
"425 515 LINE",
"504 515 OFFCURVE",
"549 499 OFFCURVE",
"549 446 CURVE SMOOTH",
"549 385 OFFCURVE",
"471 332 OFFCURVE",
"358 332 CURVE SMOOTH",
"247 332 OFFCURVE",
"179 368 OFFCURVE"
);
},
{
closed = 1;
nodes = (
"58 411 CURVE SMOOTH",
"58 294 OFFCURVE",
"172 236 OFFCURVE",
"335 236 CURVE SMOOTH",
"553 236 OFFCURVE",
"686 341 OFFCURVE",
"686 468 CURVE SMOOTH",
"686 582 OFFCURVE",
"608 631 OFFCURVE",
"446 631 CURVE SMOOTH",
"322 631 LINE",
"239 631 OFFCURVE",
"211 652 OFFCURVE",
"211 692 CURVE SMOOTH",
"211 722 OFFCURVE",
"225 741 OFFCURVE",
"247 759 CURVE",
"279 743 OFFCURVE",
"312 738 OFFCURVE",
"341 738 CURVE SMOOTH",
"480 738 OFFCURVE",
"595 822 OFFCURVE",
"595 969 CURVE SMOOTH",
"595 1013 OFFCURVE",
"577 1059 OFFCURVE",
"553 1084 CURVE",
"676 1084 LINE",
"676 1193 LINE",
"446 1193 LINE",
"416 1205 OFFCURVE",
"382 1211 OFFCURVE",
"341 1211 CURVE SMOOTH",
"201 1211 OFFCURVE",
"79 1122 OFFCURVE",
"79 972 CURVE SMOOTH",
"79 894 OFFCURVE",
"122 830 OFFCURVE",
"167 798 CURVE",
"167 790 LINE",
"129 764 OFFCURVE",
"93 719 OFFCURVE",
"93 670 CURVE SMOOTH",
"93 616 OFFCURVE",
"118 582 OFFCURVE",
"153 559 CURVE",
"153 551 LINE",
"91 515 OFFCURVE",
"58 468 OFFCURVE"
);
},
{
closed = 1;
nodes = (
"341 832 CURVE SMOOTH",
"267 832 OFFCURVE",
"213 886 OFFCURVE",
"213 972 CURVE SMOOTH",
"213 1060 OFFCURVE",
"267 1110 OFFCURVE",
"341 1110 CURVE SMOOTH",
"411 1110 OFFCURVE",
"468 1060 OFFCURVE",
"468 972 CURVE SMOOTH",
"468 886 OFFCURVE",
"411 832 OFFCURVE"
);
}
);
width = 709;
}
);
unicode = 1D4D;
userData = {
com.adobe.type.autohint = "ICA8aGludFNldExpc3Q+CiAgICA8aGludHNldCBw";
};
},
{
glyphname = h.sups;
lastChange = "2015-01-16 19:45:15 +0000";
layers = (
{
hints = (
{
horizontal = 1;
origin = "{0, 0}";
target = "{0, 0}";
type = Tag;
name = hr00;
}
);
layerId = "250EF945-70FC-4F2D-944E-2E0BA5947215";
name = SemiBold;
paths = (
{
closed = 1;
nodes = (
"102 532 LINE",
"245 532 LINE",
"245 1000 LINE",
"307 1060 OFFCURVE",
"356 1090 OFFCURVE",
"407 1090 CURVE SMOOTH",
"504 1090 OFFCURVE",
"524 1029 OFFCURVE",
"524 929 CURVE SMOOTH",
"524 532 LINE",
"667 532 LINE",
"667 948 LINE",
"667 1104 OFFCURVE",
"611 1211 OFFCURVE",
"458 1211 CURVE SMOOTH",
"368 1211 OFFCURVE",
"292 1160 OFFCURVE",
"238 1103 CURVE",
"245 1238 LINE",
"245 1490 LINE",
"102 1490 LINE"
);
}
);
width = 757;
}
);
unicode = 02B0;
userData = {
com.adobe.type.autohint = "ICA8aGludFNldExpc3Q+CiAgICA8aGludHNldCBw";
};
},
{
glyphname = i.sups;
lastChange = "2015-01-16 19:45:15 +0000";
layers = (
{
hints = (
{
horizontal = 1;
origin = "{0, 0}";
target = "{0, 0}";
type = Tag;
name = hr01;
},
{
horizontal = 1;
origin = "{1, 0}";
target = "{0, 0}";
type = Tag;
name = hr02;
}
);
layerId = "250EF945-70FC-4F2D-944E-2E0BA5947215";
name = SemiBold;
paths = (
{
closed = 1;
nodes = (
"176 1315 CURVE SMOOTH",
"229 1315 OFFCURVE",
"268 1350 OFFCURVE",
"268 1400 CURVE SMOOTH",
"268 1450 OFFCURVE",
"229 1485 OFFCURVE",
"176 1485 CURVE SMOOTH",
"123 1485 OFFCURVE",
"83 1450 OFFCURVE",
"83 1400 CURVE SMOOTH",
"83 1350 OFFCURVE",
"123 1315 OFFCURVE"
);
},
{
closed = 1;
nodes = (
"102 532 LINE",
"245 532 LINE",
"245 1195 LINE",
"102 1195 LINE"
);
}
);
width = 348;
}
);
unicode = 2071;
userData = {
com.adobe.type.autohint = "ICA8aGludFNldExpc3Q+CiAgICA8aGludHNldCBw";
};
},
{
glyphname = j.sups;
lastChange = "2015-01-16 19:45:15 +0000";
layers = (
{
hints = (
{
horizontal = 1;
origin = "{0, 0}";
target = "{0, 0}";
type = Tag;
name = hr01;
},
{
horizontal = 1;
origin = "{1, 0}";
target = "{0, 0}";
type = Tag;
name = hr02;
}
);
layerId = "250EF945-70FC-4F2D-944E-2E0BA5947215";
name = SemiBold;
paths = (
{
closed = 1;
nodes = (
"48 239 CURVE SMOOTH",
"195 239 OFFCURVE",
"250 336 OFFCURVE",
"250 482 CURVE SMOOTH",
"250 1195 LINE",
"107 1195 LINE",
"107 474 LINE",
"107 397 OFFCURVE",
"91 356 OFFCURVE",
"30 356 CURVE SMOOTH",
"3 356 OFFCURVE",
"-11 360 OFFCURVE",
"-28 366 CURVE",
"-56 255 LINE",
"-26 246 OFFCURVE",
"1 239 OFFCURVE"
);
},
{
closed = 1;
nodes = (
"180 1315 CURVE SMOOTH",
"233 1315 OFFCURVE",
"272 1350 OFFCURVE",
"272 1400 CURVE SMOOTH",
"272 1450 OFFCURVE",
"233 1485 OFFCURVE",
"180 1485 CURVE SMOOTH",
"127 1485 OFFCURVE",
"87 1450 OFFCURVE",
"87 1400 CURVE SMOOTH",
"87 1350 OFFCURVE",
"127 1315 OFFCURVE"
);
}
);
width = 354;
}
);
unicode = 02B2;
userData = {
com.adobe.type.autohint = "ICA8aGludFNldExpc3Q+CiAgICA8aGludHNldCBw";
};
},
{
glyphname = k.sups;
lastChange = "2015-01-16 19:45:15 +0000";
layers = (
{
hints = (
{
horizontal = 1;
origin = "{0, 0}";
target = "{0, 0}";
type = Tag;
name = hr00;
}
);
layerId = "250EF945-70FC-4F2D-944E-2E0BA5947215";
name = SemiBold;
paths = (
{
closed = 1;
nodes = (
"102 532 LINE",
"245 532 LINE",
"245 698 LINE",
"352 827 LINE",
"536 532 LINE",
"693 532 LINE",
"434 922 LINE",
"666 1195 LINE",
"509 1195 LINE",
"254 877 LINE",
"245 877 LINE",
"245 1490 LINE",
"102 1490 LINE"
);
}
);
width = 703;
}
);
unicode = 1D4F;
userData = {
com.adobe.type.autohint = "ICA8aGludFNldExpc3Q+CiAgICA8aGludHNldCBw";
};
},
{
glyphname = l.sups;
lastChange = "2015-01-16 19:45:15 +0000";
layers = (
{
hints = (
{
horizontal = 1;
origin = "{0, 0}";
target = "{0, 0}";
type = Tag;
name = hr00;
}
);
layerId = "250EF945-70FC-4F2D-944E-2E0BA5947215";
name = SemiBold;
paths = (
{
closed = 1;
nodes = (
"102 695 LINE",
"102 585 OFFCURVE",
"140 516 OFFCURVE",
"248 516 CURVE SMOOTH",
"284 516 OFFCURVE",
"307 522 OFFCURVE",
"326 529 CURVE",
"307 637 LINE",
"295 633 OFFCURVE",
"286 633 OFFCURVE",
"278 633 CURVE SMOOTH",
"258 633 OFFCURVE",
"245 647 OFFCURVE",
"245 685 CURVE SMOOTH",
"245 1490 LINE",
"102 1490 LINE"
);
}
);
width = 364;
}
);
unicode = 02E1;
userData = {
com.adobe.type.autohint = "ICA8aGludFNldExpc3Q+CiAgICA8aGludHNldCBw";
};
},
{
glyphname = m.sups;
lastChange = "2015-01-16 19:45:15 +0000";
layers = (
{
hints = (
{
horizontal = 1;
origin = "{0, 0}";
target = "{0, 0}";
type = Tag;
name = hr01;
},
{
horizontal = 1;
origin = "{0, 2}";
target = "{0, 0}";
type = Tag;
name = hr02;
},
{
horizontal = 1;
origin = "{0, 34}";
target = "{0, 0}";
type = Tag;
name = hr03;
}
);
layerId = "250EF945-70FC-4F2D-944E-2E0BA5947215";
name = SemiBold;
paths = (
{
closed = 1;
nodes = (
"102 532 LINE",
"245 532 LINE",
"245 1000 LINE",
"305 1061 OFFCURVE",
"349 1090 OFFCURVE",
"394 1090 CURVE SMOOTH",
"482 1090 OFFCURVE",
"508 1029 OFFCURVE",
"508 929 CURVE SMOOTH",
"508 532 LINE",
"650 532 LINE",
"650 1000 LINE",
"710 1061 OFFCURVE",
"755 1090 OFFCURVE",
"800 1090 CURVE SMOOTH",
"889 1090 OFFCURVE",
"915 1029 OFFCURVE",
"915 929 CURVE SMOOTH",
"915 532 LINE",
"1057 532 LINE",
"1057 948 LINE",
"1057 1104 OFFCURVE",
"996 1211 OFFCURVE",
"849 1211 CURVE SMOOTH",
"760 1211 OFFCURVE",
"689 1152 OFFCURVE",
"628 1089 CURVE",
"597 1170 OFFCURVE",
"533 1211 OFFCURVE",
"443 1211 CURVE SMOOTH",
"353 1211 OFFCURVE",
"292 1162 OFFCURVE",
"237 1102 CURVE",
"229 1102 LINE",
"218 1195 LINE",
"102 1195 LINE"
);
}
);
width = 1152;
}
);
unicode = 1D50;
userData = {
com.adobe.type.autohint = "ICA8aGludFNldExpc3Q+CiAgICA8aGludHNldCBw";
};
},
{
glyphname = n.sups;
lastChange = "2015-01-16 19:45:15 +0000";
layers = (
{
hints = (
{
horizontal = 1;
origin = "{0, 0}";
target = "{0, 0}";
type = Tag;
name = hr01;
},
{
horizontal = 1;
origin = "{0, 2}";
target = "{0, 0}";
type = Tag;
name = hr02;
},
{
horizontal = 1;
origin = "{0, 19}";
target = "{0, 0}";
type = Tag;
name = hr03;
}
);
layerId = "250EF945-70FC-4F2D-944E-2E0BA5947215";
name = SemiBold;
paths = (
{
closed = 1;
nodes = (
"102 532 LINE",
"245 532 LINE",
"245 1000 LINE",
"307 1060 OFFCURVE",
"356 1090 OFFCURVE",
"409 1090 CURVE SMOOTH",
"504 1090 OFFCURVE",
"524 1029 OFFCURVE",
"524 929 CURVE SMOOTH",
"524 532 LINE",
"667 532 LINE",
"667 948 LINE",
"667 1104 OFFCURVE",
"611 1211 OFFCURVE",
"458 1211 CURVE SMOOTH",
"368 1211 OFFCURVE",
"294 1162 OFFCURVE",
"237 1102 CURVE",
"229 1102 LINE",
"216 1195 LINE",
"102 1195 LINE"
);
}
);
width = 761;
}
);
unicode = 207F;
userData = {
com.adobe.type.autohint = "ICA8aGludFNldExpc3Q+CiAgICA8aGludHNldCBw";
};
},
{
glyphname = o.sups;
lastChange = "2015-01-16 19:45:15 +0000";
layers = (
{
hints = (
{
horizontal = 1;
origin = "{0, 0}";
target = "{0, 0}";
type = Tag;
name = hr00;
}
);
layerId = "250EF945-70FC-4F2D-944E-2E0BA5947215";
name = SemiBold;
paths = (
{
closed = 1;
nodes = (
"374 516 CURVE SMOOTH",
"544 516 OFFCURVE",
"689 645 OFFCURVE",
"689 863 CURVE SMOOTH",
"689 1083 OFFCURVE",
"544 1211 OFFCURVE",
"374 1211 CURVE SMOOTH",
"204 1211 OFFCURVE",
"59 1083 OFFCURVE",
"59 863 CURVE SMOOTH",
"59 645 OFFCURVE",
"204 516 OFFCURVE"
);
},
{
closed = 1;
nodes = (
"374 633 CURVE SMOOTH",
"268 633 OFFCURVE",
"204 726 OFFCURVE",
"204 863 CURVE SMOOTH",
"204 1003 OFFCURVE",
"268 1095 OFFCURVE",
"374 1095 CURVE SMOOTH",
"481 1095 OFFCURVE",
"543 1003 OFFCURVE",
"543 863 CURVE SMOOTH",
"543 726 OFFCURVE",
"481 633 OFFCURVE"
);
}
);
width = 751;
}
);
unicode = 1D52;
userData = {
com.adobe.type.autohint = "ICA8aGludFNldExpc3Q+CiAgICA8aGludHNldCBw";
};
},
{
glyphname = p.sups;
lastChange = "2015-01-16 19:45:15 +0000";
layers = (
{
hints = (
{
horizontal = 1;
origin = "{0, 0}";
target = "{0, 0}";
type = Tag;
name = hr01;
},
{
horizontal = 1;
origin = "{0, 12}";
target = "{0, 0}";
type = Tag;
name = hr02;
},
{
horizontal = 1;
origin = "{0, 17}";
target = "{0, 0}";
type = Tag;
name = hr03;
},
{
horizontal = 1;
origin = "{1, 1}";
target = "{0, 0}";
type = Tag;
name = hr04;
}
);
layerId = "250EF945-70FC-4F2D-944E-2E0BA5947215";
name = SemiBold;
paths = (
{
closed = 1;
nodes = (
"102 253 LINE",
"245 253 LINE",
"245 462 LINE",
"236 591 LINE",
"291 543 OFFCURVE",
"360 516 OFFCURVE",
"420 516 CURVE SMOOTH",
"569 516 OFFCURVE",
"705 647 OFFCURVE",
"705 876 CURVE SMOOTH",
"705 1078 OFFCURVE",
"609 1211 OFFCURVE",
"439 1211 CURVE SMOOTH",
"361 1211 OFFCURVE",
"289 1167 OFFCURVE",
"236 1120 CURVE",
"230 1120 LINE",
"216 1195 LINE",
"102 1195 LINE"
);
},
{
closed = 1;
nodes = (
"245 693 CURVE",
"245 1012 LINE",
"299 1064 OFFCURVE",
"352 1093 OFFCURVE",
"402 1093 CURVE SMOOTH",
"510 1093 OFFCURVE",
"558 1011 OFFCURVE",
"558 873 CURVE SMOOTH",
"558 718 OFFCURVE",
"487 633 OFFCURVE",
"394 633 CURVE SMOOTH",
"350 633 OFFCURVE",
"296 649 OFFCURVE"
);
}
);
width = 770;
}
);
unicode = 1D56;
userData = {
com.adobe.type.autohint = "ICA8aGludFNldExpc3Q+CiAgICA8aGludHNldCBw";
};
},
{
glyphname = q.sups;
lastChange = "2015-01-16 19:45:15 +0000";
layers = (
{
hints = (
{
horizontal = 1;
origin = "{0, 0}";
target = "{0, 0}";
type = Tag;
name = hr01;
},
{
horizontal = 1;
origin = "{0, 4}";
target = "{0, 0}";
type = Tag;
name = hr02;
}
);
layerId = "250EF945-70FC-4F2D-944E-2E0BA5947215";
name = SemiBold;
paths = (
{
closed = 1;
nodes = (
"525 253 LINE",
"667 253 LINE",
"667 1195 LINE",
"557 1195 LINE",
"544 1128 LINE",
"537 1128 LINE",
"485 1183 OFFCURVE",
"425 1211 OFFCURVE",
"353 1211 CURVE SMOOTH",
"206 1211 OFFCURVE",
"65 1079 OFFCURVE",
"65 863 CURVE SMOOTH",
"65 646 OFFCURVE",
"174 516 OFFCURVE",
"347 516 CURVE SMOOTH",
"417 516 OFFCURVE",
"484 550 OFFCURVE",
"532 597 CURVE",
"525 479 LINE"
);
},
{
closed = 1;
nodes = (
"380 635 CURVE SMOOTH",
"266 635 OFFCURVE",
"212 720 OFFCURVE",
"212 865 CURVE SMOOTH",
"212 1009 OFFCURVE",
"290 1093 OFFCURVE",
"378 1093 CURVE SMOOTH",
"424 1093 OFFCURVE",
"475 1073 OFFCURVE",
"525 1031 CURVE",
"525 706 LINE",
"475 655 OFFCURVE",
"430 635 OFFCURVE"
);
}
);
width = 770;
}
);
userData = {
com.adobe.type.autohint = "ICA8aGludFNldExpc3Q+CiAgICA8aGludHNldCBw";
};
},
{
glyphname = r.sups;
lastChange = "2015-01-16 19:45:15 +0000";
layers = (
{
hints = (
{
horizontal = 1;
origin = "{0, 0}";
target = "{0, 0}";
type = Tag;
name = hr01;
},
{
horizontal = 1;
origin = "{0, 5}";
target = "{0, 0}";
type = Tag;
name = hr02;
},
{
horizontal = 1;
origin = "{0, 9}";
target = "{0, 0}";
type = Tag;
name = hr03;
},
{
horizontal = 1;
origin = "{0, 12}";
target = "{0, 0}";
type = Tag;
name = hr04;
},
{
horizontal = 1;
origin = "{0, 17}";
target = "{0, 0}";
type = Tag;
name = hr05;
}
);
layerId = "250EF945-70FC-4F2D-944E-2E0BA5947215";
name = SemiBold;
paths = (
{
closed = 1;
nodes = (
"102 532 LINE",
"248 532 LINE",
"248 943 LINE",
"291 1046 OFFCURVE",
"355 1082 OFFCURVE",
"411 1082 CURVE SMOOTH",
"435 1082 OFFCURVE",
"462 1075 OFFCURVE",
"478 1071 CURVE",
"506 1197 LINE",
"488 1205 OFFCURVE",
"461 1211 OFFCURVE",
"426 1211 CURVE SMOOTH",
"355 1211 OFFCURVE",
"290 1164 OFFCURVE",
"238 1078 CURVE",
"232 1078 LINE",
"218 1195 LINE",
"102 1195 LINE"
);
}
);
width = 504;
}
);
unicode = 02B3;
userData = {
com.adobe.type.autohint = "ICA8aGludFNldExpc3Q+CiAgICA8aGludHNldCBw";
};
},
{
glyphname = s.sups;
lastChange = "2015-01-16 19:45:15 +0000";
layers = (
{
hints = (
{
horizontal = 1;
origin = "{0, 0}";
target = "{0, 0}";
type = Tag;
name = hr00;
}
);
layerId = "250EF945-70FC-4F2D-944E-2E0BA5947215";
name = SemiBold;
paths = (
{
closed = 1;
nodes = (
"38 606 LINE",
"104 555 OFFCURVE",
"198 516 OFFCURVE",
"295 516 CURVE SMOOTH",
"450 516 OFFCURVE",
"546 603 OFFCURVE",
"546 722 CURVE SMOOTH",
"546 845 OFFCURVE",
"442 884 OFFCURVE",
"350 919 CURVE SMOOTH",
"276 947 OFFCURVE",
"205 968 OFFCURVE",
"205 1025 CURVE SMOOTH",
"205 1065 OFFCURVE",
"239 1102 OFFCURVE",
"308 1102 CURVE SMOOTH",
"368 1102 OFFCURVE",
"410 1079 OFFCURVE",
"459 1045 CURVE",
"527 1134 LINE",
"472 1175 OFFCURVE",
"401 1211 OFFCURVE",
"304 1211 CURVE SMOOTH",
"158 1211 OFFCURVE",
"70 1123 OFFCURVE",
"70 1018 CURVE SMOOTH",
"70 904 OFFCURVE",
"171 855 OFFCURVE",
"262 820 CURVE SMOOTH",
"337 792 OFFCURVE",
"409 769 OFFCURVE",
"409 712 CURVE SMOOTH",
"409 661 OFFCURVE",
"369 624 OFFCURVE",
"297 624 CURVE SMOOTH",
"227 624 OFFCURVE",
"165 654 OFFCURVE",
"104 699 CURVE"
);
}
);
width = 585;
}
);
unicode = 02E2;
userData = {
com.adobe.type.autohint = "ICA8aGludFNldExpc3Q+CiAgICA8aGludHNldCBw";
};
},
{
glyphname = uni0259.sups;
lastChange = "2015-01-16 19:45:15 +0000";
layers = (
{
hints = (
{
horizontal = 1;
origin = "{0, 0}";
target = "{0, 0}";
type = Tag;
name = hr00;
}
);
layerId = "250EF945-70FC-4F2D-944E-2E0BA5947215";
name = SemiBold;
paths = (
{
closed = 1;
nodes = (
"329 516 CURVE SMOOTH",
"499 516 OFFCURVE",
"634 650 OFFCURVE",
"634 863 CURVE SMOOTH",
"634 1080 OFFCURVE",
"512 1211 OFFCURVE",
"321 1211 CURVE SMOOTH",
"234 1211 OFFCURVE",
"160 1180 OFFCURVE",
"96 1137 CURVE",
"148 1049 LINE",
"198 1079 OFFCURVE",
"247 1098 OFFCURVE",
"310 1098 CURVE SMOOTH",
"426 1098 OFFCURVE",
"487 1023 OFFCURVE",
"495 904 CURVE",
"58 904 LINE",
"52 873 OFFCURVE",
"50 860 OFFCURVE",
"50 830 CURVE SMOOTH",
"50 687 OFFCURVE",
"122 516 OFFCURVE"
);
},
{
closed = 1;
nodes = (
"327 629 CURVE SMOOTH",
"217 629 OFFCURVE",
"175 712 OFFCURVE",
"175 814 CURVE",
"496 814 LINE",
"487 688 OFFCURVE",
"421 629 OFFCURVE"
);
}
);
width = 692;
}
);
unicode = 2094;
userData = {
com.adobe.type.autohint = "ICA8aGludFNldExpc3Q+CiAgICA8aGludHNldCBw";
};
},
{
glyphname = t.sups;
lastChange = "2015-01-16 19:45:15 +0000";
layers = (
{
hints = (
{
horizontal = 1;
origin = "{0, 0}";
target = "{0, 0}";
type = Tag;
name = hr01;
},
{
horizontal = 1;
origin = "{0, 21}";
target = "{0, 0}";
type = Tag;
name = hr02;
},
{
horizontal = 1;
origin = "{0, 22}";
target = "{0, 0}";
type = Tag;
name = hr03;
}
);
layerId = "250EF945-70FC-4F2D-944E-2E0BA5947215";
name = SemiBold;
paths = (
{
closed = 1;
nodes = (
"128 755 LINE",
"128 613 OFFCURVE",
"182 516 OFFCURVE",
"333 516 CURVE SMOOTH",
"384 516 OFFCURVE",
"433 528 OFFCURVE",
"470 541 CURVE",
"442 645 LINE",
"418 635 OFFCURVE",
"394 629 OFFCURVE",
"368 629 CURVE SMOOTH",
"303 629 OFFCURVE",
"271 673 OFFCURVE",
"271 753 CURVE SMOOTH",
"271 1081 LINE",
"447 1081 LINE",
"447 1195 LINE",
"271 1195 LINE",
"271 1377 LINE",
"152 1377 LINE",
"134 1195 LINE",
"32 1189 LINE",
"32 1081 LINE",
"128 1081 LINE"
);
}
);
width = 485;
}
);
unicode = 1D57;
userData = {
com.adobe.type.autohint = "ICA8aGludFNldExpc3Q+CiAgICA8aGludHNldCBw";
};
},
{
glyphname = u.sups;
lastChange = "2015-01-16 19:45:15 +0000";
layers = (
{
hints = (
{
horizontal = 1;
origin = "{0, 0}";
target = "{0, 0}";
type = Tag;
name = hr00;
}
);
layerId = "250EF945-70FC-4F2D-944E-2E0BA5947215";
name = SemiBold;
paths = (
{
closed = 1;
nodes = (
"310 516 CURVE SMOOTH",
"398 516 OFFCURVE",
"474 567 OFFCURVE",
"527 623 CURVE",
"534 623 LINE",
"549 532 LINE",
"662 532 LINE",
"662 1195 LINE",
"519 1195 LINE",
"519 727 LINE",
"461 666 OFFCURVE",
"409 638 OFFCURVE",
"358 638 CURVE SMOOTH",
"261 638 OFFCURVE",
"240 696 OFFCURVE",
"240 797 CURVE SMOOTH",
"240 1195 LINE",
"98 1195 LINE",
"98 776 LINE",
"98 621 OFFCURVE",
"157 516 OFFCURVE"
);
}
);
width = 763;
}
);
unicode = 1D58;
userData = {
com.adobe.type.autohint = "ICA8aGludFNldExpc3Q+CiAgICA8aGludHNldCBw";
};
},
{
glyphname = v.sups;
lastChange = "2015-01-16 19:45:15 +0000";
layers = (
{
hints = (
{
horizontal = 1;
origin = "{0, 0}";
target = "{0, 0}";
type = Tag;
name = hr00;
}
);
layerId = "250EF945-70FC-4F2D-944E-2E0BA5947215";
name = SemiBold;
paths = (
{
closed = 1;
nodes = (
"252 532 LINE",
"418 532 LINE",
"654 1195 LINE",
"515 1195 LINE",
"402 843 LINE",
"341 643 LINE",
"334 643 LINE",
"271 843 LINE",
"158 1195 LINE",
"16 1195 LINE"
);
}
);
width = 670;
}
);
unicode = 1D5B;
userData = {
com.adobe.type.autohint = "ICA8aGludFNldExpc3Q+CiAgICA8aGludHNldCBw";
};
},
{
glyphname = w.sups;
lastChange = "2015-01-16 19:45:15 +0000";
layers = (
{
hints = (
{
horizontal = 1;
origin = "{0, 0}";
target = "{0, 0}";
type = Tag;
name = hr01;
},
{
horizontal = 1;
origin = "{0, 3}";
target = "{0, 0}";
type = Tag;
name = hr02;
}
);
layerId = "250EF945-70FC-4F2D-944E-2E0BA5947215";
name = SemiBold;
paths = (
{
closed = 1;
nodes = (
"212 532 LINE",
"381 532 LINE",
"464 854 LINE",
"505 1041 LINE",
"509 1041 LINE",
"550 854 LINE",
"633 532 LINE",
"803 532 LINE",
"978 1195 LINE",
"844 1195 LINE",
"761 839 LINE",
"720 649 LINE",
"712 649 LINE",
"668 839 LINE",
"569 1195 LINE",
"444 1195 LINE",
"352 839 LINE",
"308 649 LINE",
"301 649 LINE",
"263 839 LINE",
"179 1195 LINE",
"33 1195 LINE"
);
}
);
width = 1011;
}
);
unicode = 02B7;
userData = {
com.adobe.type.autohint = "ICA8aGludFNldExpc3Q+CiAgICA8aGludHNldCBw";
};
},
{
glyphname = x.sups;
lastChange = "2015-01-16 19:45:15 +0000";
layers = (
{
hints = (
{
horizontal = 1;
origin = "{0, 0}";
target = "{0, 0}";
type = Tag;
name = hr00;
}
);
layerId = "250EF945-70FC-4F2D-944E-2E0BA5947215";
name = SemiBold;
paths = (
{
closed = 1;
nodes = (
"16 532 LINE",
"168 532 LINE",
"245 667 LINE",
"309 778 LINE",
"317 778 LINE",
"388 667 LINE",
"471 532 LINE",
"626 532 LINE",
"412 863 LINE",
"612 1195 LINE",
"462 1195 LINE",
"391 1065 LINE",
"339 959 LINE",
"331 959 LINE",
"268 1065 LINE",
"189 1195 LINE",
"34 1195 LINE",
"236 878 LINE"
);
}
);
width = 644;
}
);
unicode = 02E3;
userData = {
com.adobe.type.autohint = "ICA8aGludFNldExpc3Q+CiAgICA8aGludHNldCBw";
};
},
{
glyphname = y.sups;
lastChange = "2015-01-16 19:45:15 +0000";
layers = (
{
hints = (
{
horizontal = 1;
origin = "{0, 0}";
target = "{0, 0}";
type = Tag;
name = hr00;
}
);
layerId = "250EF945-70FC-4F2D-944E-2E0BA5947215";
name = SemiBold;
paths = (
{
closed = 1;
nodes = (
"81 387 CURVE",
"53 274 LINE",
"79 266 OFFCURVE",
"105 262 OFFCURVE",
"140 262 CURVE SMOOTH",
"284 262 OFFCURVE",
"356 357 OFFCURVE",
"408 502 CURVE SMOOTH",
"650 1195 LINE",
"511 1195 LINE",
"410 859 LINE",
"390 797 OFFCURVE",
"370 736 OFFCURVE",
"352 670 CURVE",
"344 670 LINE",
"324 736 OFFCURVE",
"304 798 OFFCURVE",
"283 859 CURVE SMOOTH",
"160 1195 LINE",
"16 1195 LINE",
"284 540 LINE",
"270 501 LINE",
"247 429 OFFCURVE",
"201 376 OFFCURVE",
"130 376 CURVE SMOOTH",
"114 376 OFFCURVE",
"100 379 OFFCURVE"
);
}
);
width = 666;
}
);
unicode = 02B8;
userData = {
com.adobe.type.autohint = "ICA8aGludFNldExpc3Q+CiAgICA8aGludHNldCBw";
};
},
{
glyphname = z.sups;
lastChange = "2015-01-16 19:45:15 +0000";
layers = (
{
hints = (
{
horizontal = 1;
origin = "{0, 0}";
target = "{0, 0}";
type = Tag;
name = hr00;
}
);
layerId = "250EF945-70FC-4F2D-944E-2E0BA5947215";
name = SemiBold;
paths = (
{
closed = 1;
nodes = (
"44 532 LINE",
"566 532 LINE",
"566 646 LINE",
"225 646 LINE",
"556 1115 LINE",
"556 1195 LINE",
"84 1195 LINE",
"84 1081 LINE",
"377 1081 LINE",
"44 610 LINE"
);
}
);
width = 602;
}
);
unicode = 1DBB;
userData = {
com.adobe.type.autohint = "ICA8aGludFNldExpc3Q+CiAgICA8aGludHNldCBw";
};
},
{
glyphname = f_f;
lastChange = "2015-01-16 19:45:15 +0000";
layers = (
{
hints = (
{
horizontal = 1;
origin = "{0, 0}";
target = "{0, 0}";
type = Tag;
name = hr01;
},
{
horizontal = 1;
origin = "{0, 12}";
target = "{0, 0}";
type = Tag;
name = hr02;
},
{
horizontal = 1;
origin = "{0, 25}";
target = "{0, 0}";
type = Tag;
name = hr03;
}
);
layerId = "250EF945-70FC-4F2D-944E-2E0BA5947215";
name = SemiBold;
paths = (
{
closed = 1;
nodes = (
"1267 1445 LINE",
"1222 1463 OFFCURVE",
"1159 1479 OFFCURVE",
"1094 1479 CURVE SMOOTH",
"881 1479 OFFCURVE",
"788 1345 OFFCURVE",
"788 1139 CURVE SMOOTH",
"788 999 LINE",
"387 999 LINE",
"387 1113 LINE",
"387 1238 OFFCURVE",
"443 1302 OFFCURVE",
"536 1302 CURVE SMOOTH",
"586 1302 OFFCURVE",
"625 1294 OFFCURVE",
"666 1276 CURVE",
"705 1421 LINE",
"656 1443 OFFCURVE",
"586 1458 OFFCURVE",
"518 1458 CURVE SMOOTH",
"298 1458 OFFCURVE",
"195 1323 OFFCURVE",
"195 1116 CURVE SMOOTH",
"195 998 LINE",
"59 988 LINE",
"59 844 LINE",
"195 844 LINE",
"195 0 LINE",
"387 0 LINE",
"387 844 LINE",
"788 844 LINE",
"788 0 LINE",
"980 0 LINE",
"980 844 LINE",
"1186 844 LINE",
"1186 999 LINE",
"980 999 LINE",
"980 1141 LINE",
"980 1264 OFFCURVE",
"1027 1323 OFFCURVE",
"1117 1323 CURVE SMOOTH",
"1151 1323 OFFCURVE",
"1190 1314 OFFCURVE",
"1228 1299 CURVE"
);
}
);
width = 1207;
}
);
unicode = FB00;
userData = {
com.adobe.type.autohint = "ICA8aGludFNldExpc3Q+CiAgICA8aGludHNldCBw";
};
},
{
glyphname = f_t;
lastChange = "2015-01-16 19:45:15 +0000";
layers = (
{
hints = (
{
horizontal = 1;
origin = "{0, 0}";
target = "{0, 0}";
type = Tag;
name = hr01;
},
{
horizontal = 1;
origin = "{0, 29}";
target = "{0, 0}";
type = Tag;
name = hr02;
},
{
horizontal = 1;
origin = "{0, 31}";
target = "{0, 0}";
type = Tag;
name = hr03;
},
{
horizontal = 1;
origin = "{0, 40}";
target = "{0, 0}";
type = Tag;
name = hr04;
}
);
layerId = "250EF945-70FC-4F2D-944E-2E0BA5947215";
name = SemiBold;
paths = (
{
closed = 1;
nodes = (
"1188 156 LINE",
"1156 144 OFFCURVE",
"1113 131 OFFCURVE",
"1078 131 CURVE SMOOTH",
"970 131 OFFCURVE",
"928 196 OFFCURVE",
"928 317 CURVE SMOOTH",
"928 844 LINE",
"1193 844 LINE",
"1193 999 LINE",
"928 999 LINE",
"928 1276 LINE",
"768 1276 LINE",
"745 999 LINE",
"387 999 LINE",
"387 1139 LINE",
"387 1262 OFFCURVE",
"432 1323 OFFCURVE",
"522 1323 CURVE SMOOTH",
"558 1323 OFFCURVE",
"597 1314 OFFCURVE",
"633 1299 CURVE",
"673 1445 LINE",
"628 1463 OFFCURVE",
"566 1479 OFFCURVE",
"500 1479 CURVE SMOOTH",
"288 1479 OFFCURVE",
"195 1343 OFFCURVE",
"195 1138 CURVE SMOOTH",
"195 998 LINE",
"59 988 LINE",
"59 844 LINE",
"195 844 LINE",
"195 0 LINE",
"387 0 LINE",
"387 844 LINE",
"735 844 LINE",
"735 318 LINE",
"735 115 OFFCURVE",
"812 -25 OFFCURVE",
"1032 -25 CURVE SMOOTH",
"1100 -25 OFFCURVE",
"1169 -6 OFFCURVE",
"1224 12 CURVE"
);
}
);
width = 1252;
}
);
userData = {
com.adobe.type.autohint = "ICA8aGludFNldExpc3Q+CiAgICA8aGludHNldCBw";
};
},
